%TF.GenerationSoftware,KiCad,Pcbnew,7.0.2*%
%TF.CreationDate,2024-02-14T23:55:05+01:00*%
%TF.ProjectId,CDFR,43444652-2e6b-4696-9361-645f70636258,rev?*%
%TF.SameCoordinates,Original*%
%TF.FileFunction,Copper,L2,Bot*%
%TF.FilePolarity,Positive*%
%FSLAX46Y46*%
G04 Gerber Fmt 4.6, Leading zero omitted, Abs format (unit mm)*
G04 Created by KiCad (PCBNEW 7.0.2) date 2024-02-14 23:55:05*
%MOMM*%
%LPD*%
G01*
G04 APERTURE LIST*
G04 Aperture macros list*
%AMRoundRect*
0 Rectangle with rounded corners*
0 $1 Rounding radius*
0 $2 $3 $4 $5 $6 $7 $8 $9 X,Y pos of 4 corners*
0 Add a 4 corners polygon primitive as box body*
4,1,4,$2,$3,$4,$5,$6,$7,$8,$9,$2,$3,0*
0 Add four circle primitives for the rounded corners*
1,1,$1+$1,$2,$3*
1,1,$1+$1,$4,$5*
1,1,$1+$1,$6,$7*
1,1,$1+$1,$8,$9*
0 Add four rect primitives between the rounded corners*
20,1,$1+$1,$2,$3,$4,$5,0*
20,1,$1+$1,$4,$5,$6,$7,0*
20,1,$1+$1,$6,$7,$8,$9,0*
20,1,$1+$1,$8,$9,$2,$3,0*%
G04 Aperture macros list end*
%TA.AperFunction,ComponentPad*%
%ADD10RoundRect,0.250000X0.600000X0.725000X-0.600000X0.725000X-0.600000X-0.725000X0.600000X-0.725000X0*%
%TD*%
%TA.AperFunction,ComponentPad*%
%ADD11O,1.700000X1.950000*%
%TD*%
%TA.AperFunction,ComponentPad*%
%ADD12RoundRect,0.250000X-0.725000X0.600000X-0.725000X-0.600000X0.725000X-0.600000X0.725000X0.600000X0*%
%TD*%
%TA.AperFunction,ComponentPad*%
%ADD13O,1.950000X1.700000*%
%TD*%
%TA.AperFunction,ComponentPad*%
%ADD14RoundRect,0.250000X0.725000X-0.600000X0.725000X0.600000X-0.725000X0.600000X-0.725000X-0.600000X0*%
%TD*%
%TA.AperFunction,ComponentPad*%
%ADD15R,1.700000X1.700000*%
%TD*%
%TA.AperFunction,ComponentPad*%
%ADD16O,1.700000X1.700000*%
%TD*%
%TA.AperFunction,ComponentPad*%
%ADD17R,1.524000X1.524000*%
%TD*%
%TA.AperFunction,ComponentPad*%
%ADD18C,1.524000*%
%TD*%
%TA.AperFunction,ComponentPad*%
%ADD19C,6.200000*%
%TD*%
%TA.AperFunction,ComponentPad*%
%ADD20R,2.540000X2.540000*%
%TD*%
%TA.AperFunction,ComponentPad*%
%ADD21C,2.540000*%
%TD*%
%TA.AperFunction,ComponentPad*%
%ADD22R,2.550000X2.550000*%
%TD*%
%TA.AperFunction,ComponentPad*%
%ADD23C,2.550000*%
%TD*%
%TA.AperFunction,Conductor*%
%ADD24C,0.250000*%
%TD*%
G04 APERTURE END LIST*
D10*
%TO.P,J5,1,Pin_1*%
%TO.N,/I2C_CLK*%
X123000000Y-33025000D03*
D11*
%TO.P,J5,2,Pin_2*%
%TO.N,/I2C_SDA*%
X120500000Y-33025000D03*
%TO.P,J5,3,Pin_3*%
%TO.N,GND*%
X118000000Y-33025000D03*
%TD*%
D12*
%TO.P,J2,1,Pin_1*%
%TO.N,/I2C_CLK*%
X110550000Y-52500000D03*
D13*
%TO.P,J2,2,Pin_2*%
%TO.N,/I2C_SDA*%
X110550000Y-55000000D03*
%TO.P,J2,3,Pin_3*%
%TO.N,GND*%
X110550000Y-57500000D03*
%TD*%
D14*
%TO.P,J8,1,Pin_1*%
%TO.N,+5V*%
X150975000Y-57750000D03*
D13*
%TO.P,J8,2,Pin_2*%
%TO.N,Net-(J8-Pin_2)*%
X150975000Y-55250000D03*
%TO.P,J8,3,Pin_3*%
%TO.N,Net-(J8-Pin_3)*%
X150975000Y-52750000D03*
%TO.P,J8,4,Pin_4*%
%TO.N,GND*%
X150975000Y-50250000D03*
%TO.P,J8,5,Pin_5*%
%TO.N,Net-(J8-Pin_5)*%
X150975000Y-47750000D03*
%TD*%
D15*
%TO.P,JP1,1,A*%
%TO.N,+5V*%
X146000000Y-50960000D03*
D16*
%TO.P,JP1,2,C*%
%TO.N,Net-(J8-Pin_5)*%
X146000000Y-53500000D03*
%TO.P,JP1,3,B*%
%TO.N,MotorControl*%
X146000000Y-56040000D03*
%TD*%
D12*
%TO.P,J4,1,Pin_1*%
%TO.N,/I2C_CLK*%
X110525000Y-75500000D03*
D13*
%TO.P,J4,2,Pin_2*%
%TO.N,/I2C_SDA*%
X110525000Y-78000000D03*
%TO.P,J4,3,Pin_3*%
%TO.N,GND*%
X110525000Y-80500000D03*
%TD*%
D12*
%TO.P,J1,1,Pin_1*%
%TO.N,/I2C_CLK*%
X110550000Y-41000000D03*
D13*
%TO.P,J1,2,Pin_2*%
%TO.N,/I2C_SDA*%
X110550000Y-43500000D03*
%TO.P,J1,3,Pin_3*%
%TO.N,GND*%
X110550000Y-46000000D03*
%TD*%
D17*
%TO.P,U1,1,3V3*%
%TO.N,+3.3V*%
X157500000Y-36870000D03*
D18*
%TO.P,U1,2,5V*%
%TO.N,+5V*%
X160040000Y-36870000D03*
%TO.P,U1,3,GPIO2/SDA1*%
%TO.N,/I2C_SDA*%
X157500000Y-39410000D03*
%TO.P,U1,4,5V*%
%TO.N,+5V*%
X160040000Y-39410000D03*
%TO.P,U1,5,GPIO3/SCL1*%
%TO.N,/I2C_CLK*%
X157500000Y-41950000D03*
%TO.P,U1,6,GND*%
%TO.N,GND*%
X160040000Y-41950000D03*
%TO.P,U1,7,GPIO4/GPIO_GCKL*%
%TO.N,unconnected-(U1-GPIO4{slash}GPIO_GCKL-Pad7)*%
X157500000Y-44490000D03*
%TO.P,U1,8,GPIO14/TXD0*%
%TO.N,Net-(J8-Pin_3)*%
X160040000Y-44490000D03*
%TO.P,U1,9,GND*%
%TO.N,GND*%
X157500000Y-47030000D03*
%TO.P,U1,10,GPIO15/RXD0*%
%TO.N,Net-(J8-Pin_2)*%
X160040000Y-47030000D03*
%TO.P,U1,11,GPIO17/GPIO_GEN0*%
%TO.N,unconnected-(U1-GPIO17{slash}GPIO_GEN0-Pad11)*%
X157500000Y-49570000D03*
%TO.P,U1,12,GPIO18/GPIO_GEN1*%
%TO.N,MotorControl*%
X160040000Y-49570000D03*
%TO.P,U1,13,GPIO27/GPIO_GEN2*%
%TO.N,unconnected-(U1-GPIO27{slash}GPIO_GEN2-Pad13)*%
X157500000Y-52110000D03*
%TO.P,U1,14,GND*%
%TO.N,GND*%
X160040000Y-52110000D03*
%TO.P,U1,15,GPIO22/GPIO_GEN3*%
%TO.N,unconnected-(U1-GPIO22{slash}GPIO_GEN3-Pad15)*%
X157500000Y-54650000D03*
%TO.P,U1,16,GPIO23/GPIO_GEN4*%
%TO.N,unconnected-(U1-GPIO23{slash}GPIO_GEN4-Pad16)*%
X160040000Y-54650000D03*
%TO.P,U1,17,3V3*%
%TO.N,unconnected-(U1-3V3-Pad17)*%
X157500000Y-57190000D03*
%TO.P,U1,18,GPIO24/GPIO_GEN5*%
%TO.N,unconnected-(U1-GPIO24{slash}GPIO_GEN5-Pad18)*%
X160040000Y-57190000D03*
%TO.P,U1,19,GPIO10/SPI_MOSI*%
%TO.N,unconnected-(U1-GPIO10{slash}SPI_MOSI-Pad19)*%
X157500000Y-59730000D03*
%TO.P,U1,20,GND*%
%TO.N,GND*%
X160040000Y-59730000D03*
%TO.P,U1,21,GPIO9/SPI_MISO*%
%TO.N,unconnected-(U1-GPIO9{slash}SPI_MISO-Pad21)*%
X157500000Y-62270000D03*
%TO.P,U1,22,GPIO25/GPIO_GEN6*%
%TO.N,unconnected-(U1-GPIO25{slash}GPIO_GEN6-Pad22)*%
X160040000Y-62270000D03*
%TO.P,U1,23,GPIO11/SPI_SCLK*%
%TO.N,unconnected-(U1-GPIO11{slash}SPI_SCLK-Pad23)*%
X157500000Y-64810000D03*
%TO.P,U1,24,GPIO8/~{SPI_CE0}*%
%TO.N,unconnected-(U1-GPIO8{slash}~{SPI_CE0}-Pad24)*%
X160040000Y-64810000D03*
%TO.P,U1,25,GND*%
%TO.N,GND*%
X157500000Y-67350000D03*
%TO.P,U1,26,GPIO7/~{SPI_CE1}*%
%TO.N,unconnected-(U1-GPIO7{slash}~{SPI_CE1}-Pad26)*%
X160040000Y-67350000D03*
%TO.P,U1,27,ID_SD*%
%TO.N,unconnected-(U1-ID_SD-Pad27)*%
X157500000Y-69890000D03*
%TO.P,U1,28,ID_SC*%
%TO.N,unconnected-(U1-ID_SC-Pad28)*%
X160040000Y-69890000D03*
%TO.P,U1,29,GPIO5*%
%TO.N,Net-(J6-Pin_1)*%
X157500000Y-72430000D03*
%TO.P,U1,30,GND*%
%TO.N,GND*%
X160040000Y-72430000D03*
%TO.P,U1,31,GPIO6*%
%TO.N,unconnected-(U1-GPIO6-Pad31)*%
X157500000Y-74970000D03*
%TO.P,U1,32,GPIO12*%
%TO.N,unconnected-(U1-GPIO12-Pad32)*%
X160040000Y-74970000D03*
%TO.P,U1,33,GPIO13*%
%TO.N,unconnected-(U1-GPIO13-Pad33)*%
X157500000Y-77510000D03*
%TO.P,U1,34,GND*%
%TO.N,GND*%
X160040000Y-77510000D03*
%TO.P,U1,35,GPIO19*%
%TO.N,unconnected-(U1-GPIO19-Pad35)*%
X157500000Y-80050000D03*
%TO.P,U1,36,GPIO16*%
%TO.N,unconnected-(U1-GPIO16-Pad36)*%
X160040000Y-80050000D03*
%TO.P,U1,37,GPIO26*%
%TO.N,unconnected-(U1-GPIO26-Pad37)*%
X157500000Y-82590000D03*
%TO.P,U1,38,GPIO20*%
%TO.N,unconnected-(U1-GPIO20-Pad38)*%
X160040000Y-82590000D03*
%TO.P,U1,39,GND*%
%TO.N,GND*%
X157500000Y-85130000D03*
%TO.P,U1,40,GPIO21*%
%TO.N,unconnected-(U1-GPIO21-Pad40)*%
X160040000Y-85130000D03*
D19*
%TO.P,U1,S1,SHIELD*%
%TO.N,GND*%
X158770000Y-32000000D03*
%TO.P,U1,S2,SHIELD*%
X158770000Y-90000000D03*
%TO.P,U1,S3,SHIELD*%
X109770000Y-90000000D03*
%TO.P,U1,S4,SHIELD*%
X109770000Y-32000000D03*
%TD*%
D12*
%TO.P,J3,1,Pin_1*%
%TO.N,/I2C_CLK*%
X110525000Y-64000000D03*
D13*
%TO.P,J3,2,Pin_2*%
%TO.N,/I2C_SDA*%
X110525000Y-66500000D03*
%TO.P,J3,3,Pin_3*%
%TO.N,GND*%
X110525000Y-69000000D03*
%TD*%
D20*
%TO.P,U3,1,Vin*%
%TO.N,Net-(J7-Pin_1)*%
X136890000Y-46930000D03*
D21*
%TO.P,U3,2,GND*%
%TO.N,GND*%
X119110000Y-46930000D03*
%TO.P,U3,3,GND*%
X119110000Y-87570000D03*
%TO.P,U3,4,Vout*%
%TO.N,+5V*%
X136890000Y-87570000D03*
%TD*%
D15*
%TO.P,J6,1,Pin_1*%
%TO.N,Net-(J6-Pin_1)*%
X147960000Y-89000000D03*
D16*
%TO.P,J6,2,Pin_2*%
%TO.N,GND*%
X150500000Y-89000000D03*
%TD*%
D22*
%TO.P,J7,1,Pin_1*%
%TO.N,Net-(J7-Pin_1)*%
X130420000Y-39500000D03*
D23*
%TO.P,J7,2,Pin_2*%
%TO.N,Net-(J7-Pin_2)*%
X135500000Y-39500000D03*
%TD*%
D24*
%TO.N,/I2C_CLK*%
X115550000Y-70475000D02*
X110525000Y-75500000D01*
X148575000Y-33025000D02*
X157500000Y-41950000D01*
X115025000Y-41000000D02*
X123000000Y-33025000D01*
X115550000Y-47500000D02*
X115550000Y-44650000D01*
X110550000Y-41000000D02*
X115025000Y-41000000D01*
X115450000Y-59500000D02*
X110950000Y-64000000D01*
X115450000Y-57400000D02*
X115450000Y-59500000D01*
X111900000Y-41000000D02*
X110550000Y-41000000D01*
X110550000Y-52500000D02*
X115450000Y-57400000D01*
X111900000Y-64000000D02*
X115550000Y-67650000D01*
X115550000Y-44650000D02*
X111900000Y-41000000D01*
X115550000Y-67650000D02*
X115550000Y-70475000D01*
X110950000Y-64000000D02*
X110525000Y-64000000D01*
X110525000Y-64000000D02*
X111900000Y-64000000D01*
X110550000Y-52500000D02*
X115550000Y-47500000D01*
X123000000Y-33025000D02*
X148575000Y-33025000D01*
%TO.N,/I2C_SDA*%
X110550000Y-43500000D02*
X109250000Y-43500000D01*
X115525000Y-38000000D02*
X120500000Y-33025000D01*
X108850000Y-49850000D02*
X110400000Y-49850000D01*
X113250000Y-47000000D02*
X113250000Y-46200000D01*
X113100000Y-67600000D02*
X113100000Y-70550000D01*
X110400000Y-49850000D02*
X113250000Y-47000000D01*
X113100000Y-70550000D02*
X111350000Y-72300000D01*
X109900000Y-38000000D02*
X115525000Y-38000000D01*
X108100000Y-52550000D02*
X108100000Y-50600000D01*
X108400000Y-39500000D02*
X109900000Y-38000000D01*
X149815000Y-31725000D02*
X157500000Y-39410000D01*
X113300000Y-58350000D02*
X110500000Y-61150000D01*
X113250000Y-46200000D02*
X110550000Y-43500000D01*
X110050000Y-72300000D02*
X108500000Y-73850000D01*
X113150000Y-67550000D02*
X113100000Y-67600000D01*
X110500000Y-61150000D02*
X109950000Y-61150000D01*
X109950000Y-61150000D02*
X108550000Y-62550000D01*
X111350000Y-72300000D02*
X110050000Y-72300000D01*
X109250000Y-43500000D02*
X108400000Y-42650000D01*
X108100000Y-50600000D02*
X108850000Y-49850000D01*
X121800000Y-31725000D02*
X149815000Y-31725000D01*
X110550000Y-55000000D02*
X113300000Y-57750000D01*
X108550000Y-64550000D02*
X108575000Y-64550000D01*
X108575000Y-64550000D02*
X110525000Y-66500000D01*
X108550000Y-62550000D02*
X108550000Y-64550000D01*
X120500000Y-33025000D02*
X121800000Y-31725000D01*
X108500000Y-73850000D02*
X108500000Y-75975000D01*
X113300000Y-57750000D02*
X113300000Y-58350000D01*
X110550000Y-55000000D02*
X108100000Y-52550000D01*
X112100000Y-66500000D02*
X113150000Y-67550000D01*
X108400000Y-42650000D02*
X108400000Y-39500000D01*
X108500000Y-75975000D02*
X110525000Y-78000000D01*
X110525000Y-66500000D02*
X112100000Y-66500000D01*
%TO.N,GND*%
X158760000Y-71150000D02*
X160040000Y-72430000D01*
X158760000Y-45770000D02*
X157500000Y-47030000D01*
X158760000Y-43230000D02*
X158760000Y-45770000D01*
X158760000Y-68610000D02*
X158760000Y-71150000D01*
X157500000Y-67350000D02*
X158760000Y-68610000D01*
X160040000Y-41950000D02*
X158760000Y-43230000D01*
%TO.N,Net-(J6-Pin_1)*%
X147960000Y-81970000D02*
X157500000Y-72430000D01*
X147960000Y-89000000D02*
X147960000Y-81970000D01*
%TD*%
%TA.AperFunction,Conductor*%
%TO.N,GND*%
G36*
X157134390Y-28583685D02*
G01*
X157180145Y-28636489D01*
X157190089Y-28705647D01*
X157161064Y-28769203D01*
X157123646Y-28798485D01*
X156970423Y-28876555D01*
X156964802Y-28879801D01*
X156653797Y-29081770D01*
X156648543Y-29085587D01*
X156405750Y-29282197D01*
X157990677Y-30867124D01*
X157903075Y-30926333D01*
X157734094Y-31088288D01*
X157636580Y-31220133D01*
X156052197Y-29635750D01*
X155855587Y-29878543D01*
X155851770Y-29883797D01*
X155649801Y-30194802D01*
X155646555Y-30200423D01*
X155478196Y-30530846D01*
X155475559Y-30536770D01*
X155342658Y-30882988D01*
X155340659Y-30889140D01*
X155244676Y-31247356D01*
X155243328Y-31253699D01*
X155185315Y-31619975D01*
X155184638Y-31626418D01*
X155165230Y-31996756D01*
X155165230Y-32003243D01*
X155184638Y-32373581D01*
X155185315Y-32380024D01*
X155243328Y-32746300D01*
X155244676Y-32752643D01*
X155340659Y-33110859D01*
X155342658Y-33117011D01*
X155475559Y-33463229D01*
X155478196Y-33469153D01*
X155646555Y-33799576D01*
X155649801Y-33805197D01*
X155851770Y-34116202D01*
X155855587Y-34121456D01*
X156052197Y-34364248D01*
X157635874Y-32780571D01*
X157660507Y-32820577D01*
X157815144Y-32996278D01*
X157987835Y-33135716D01*
X156405750Y-34717801D01*
X156648543Y-34914412D01*
X156653797Y-34918229D01*
X156964802Y-35120198D01*
X156970423Y-35123444D01*
X157300846Y-35291803D01*
X157306776Y-35294443D01*
X157497711Y-35367736D01*
X157553244Y-35410138D01*
X157577037Y-35475832D01*
X157561536Y-35543960D01*
X157511662Y-35592893D01*
X157453274Y-35607500D01*
X156693439Y-35607500D01*
X156693420Y-35607500D01*
X156690128Y-35607501D01*
X156686848Y-35607853D01*
X156686840Y-35607854D01*
X156630515Y-35613909D01*
X156495669Y-35664204D01*
X156380454Y-35750454D01*
X156294204Y-35865668D01*
X156243910Y-36000515D01*
X156243909Y-36000517D01*
X156237500Y-36060127D01*
X156237500Y-36063448D01*
X156237500Y-36063449D01*
X156237500Y-36963546D01*
X156217815Y-37030585D01*
X156165011Y-37076340D01*
X156095853Y-37086284D01*
X156032297Y-37057259D01*
X156025819Y-37051227D01*
X150315802Y-31341211D01*
X150302906Y-31325113D01*
X150251775Y-31277098D01*
X150248978Y-31274387D01*
X150232227Y-31257636D01*
X150229471Y-31254880D01*
X150226290Y-31252412D01*
X150217422Y-31244837D01*
X150185582Y-31214938D01*
X150168024Y-31205285D01*
X150151764Y-31194604D01*
X150135936Y-31182327D01*
X150095851Y-31164980D01*
X150085361Y-31159841D01*
X150047091Y-31138802D01*
X150027691Y-31133821D01*
X150009284Y-31127519D01*
X149990897Y-31119562D01*
X149947758Y-31112729D01*
X149936324Y-31110361D01*
X149894019Y-31099500D01*
X149873984Y-31099500D01*
X149854586Y-31097973D01*
X149847162Y-31096797D01*
X149834805Y-31094840D01*
X149834804Y-31094840D01*
X149809468Y-31097235D01*
X149791325Y-31098950D01*
X149779656Y-31099500D01*
X121882744Y-31099500D01*
X121862236Y-31097235D01*
X121792113Y-31099439D01*
X121788219Y-31099500D01*
X121760650Y-31099500D01*
X121756794Y-31099986D01*
X121756791Y-31099987D01*
X121756735Y-31099994D01*
X121756662Y-31100003D01*
X121745043Y-31100917D01*
X121701372Y-31102289D01*
X121682128Y-31107880D01*
X121663084Y-31111824D01*
X121643208Y-31114335D01*
X121602600Y-31130413D01*
X121591554Y-31134194D01*
X121549610Y-31146382D01*
X121549607Y-31146383D01*
X121532365Y-31156579D01*
X121514904Y-31165133D01*
X121496267Y-31172512D01*
X121460931Y-31198185D01*
X121451174Y-31204595D01*
X121413580Y-31226829D01*
X121399413Y-31240996D01*
X121384624Y-31253626D01*
X121368413Y-31265404D01*
X121340572Y-31299058D01*
X121332711Y-31307697D01*
X121054231Y-31586177D01*
X120992908Y-31619662D01*
X120934457Y-31618271D01*
X120735407Y-31564936D01*
X120500000Y-31544340D01*
X120264592Y-31564936D01*
X120036336Y-31626097D01*
X119822170Y-31725965D01*
X119628598Y-31861505D01*
X119461508Y-32028595D01*
X119351269Y-32186033D01*
X119296692Y-32229657D01*
X119227193Y-32236850D01*
X119164839Y-32205328D01*
X119148119Y-32186032D01*
X119038109Y-32028921D01*
X118871081Y-31861893D01*
X118677576Y-31726399D01*
X118463492Y-31626569D01*
X118250000Y-31569364D01*
X118250000Y-32616981D01*
X118135199Y-32564554D01*
X118033975Y-32550000D01*
X117966025Y-32550000D01*
X117864801Y-32564554D01*
X117750000Y-32616981D01*
X117750000Y-31569364D01*
X117749999Y-31569364D01*
X117536507Y-31626569D01*
X117322421Y-31726400D01*
X117128921Y-31861890D01*
X116961890Y-32028921D01*
X116826400Y-32222421D01*
X116726569Y-32436507D01*
X116665430Y-32664681D01*
X116655778Y-32774999D01*
X116655778Y-32775000D01*
X117596031Y-32775000D01*
X117563481Y-32825649D01*
X117525000Y-32956705D01*
X117525000Y-33093295D01*
X117563481Y-33224351D01*
X117596031Y-33275000D01*
X116655778Y-33275000D01*
X116665430Y-33385318D01*
X116726569Y-33613492D01*
X116826400Y-33827578D01*
X116961890Y-34021078D01*
X117128918Y-34188106D01*
X117322423Y-34323600D01*
X117536507Y-34423430D01*
X117764681Y-34484569D01*
X117859462Y-34492862D01*
X117924531Y-34518314D01*
X117965510Y-34574905D01*
X117969388Y-34644667D01*
X117936336Y-34704071D01*
X115302228Y-37338181D01*
X115240905Y-37371666D01*
X115214547Y-37374500D01*
X109982740Y-37374500D01*
X109962236Y-37372236D01*
X109892144Y-37374439D01*
X109888250Y-37374500D01*
X109860650Y-37374500D01*
X109856799Y-37374986D01*
X109856768Y-37374988D01*
X109856640Y-37375005D01*
X109845028Y-37375918D01*
X109801372Y-37377290D01*
X109782135Y-37382879D01*
X109763094Y-37386822D01*
X109743208Y-37389335D01*
X109702582Y-37405419D01*
X109691537Y-37409200D01*
X109649613Y-37421381D01*
X109632365Y-37431581D01*
X109614903Y-37440135D01*
X109602915Y-37444881D01*
X109596265Y-37447515D01*
X109560926Y-37473189D01*
X109551168Y-37479599D01*
X109513579Y-37501829D01*
X109499410Y-37515998D01*
X109484622Y-37528628D01*
X109468413Y-37540405D01*
X109440572Y-37574058D01*
X109432711Y-37582696D01*
X108016208Y-38999199D01*
X108000110Y-39012096D01*
X107952096Y-39063225D01*
X107949392Y-39066016D01*
X107932628Y-39082780D01*
X107932621Y-39082787D01*
X107929880Y-39085529D01*
X107927499Y-39088597D01*
X107927490Y-39088608D01*
X107927411Y-39088711D01*
X107919842Y-39097572D01*
X107889935Y-39129420D01*
X107880285Y-39146974D01*
X107869609Y-39163228D01*
X107857326Y-39179063D01*
X107839975Y-39219158D01*
X107834838Y-39229644D01*
X107813802Y-39267907D01*
X107808821Y-39287309D01*
X107802520Y-39305711D01*
X107794561Y-39324102D01*
X107787728Y-39367242D01*
X107785360Y-39378674D01*
X107774499Y-39420977D01*
X107774500Y-39441016D01*
X107772973Y-39460415D01*
X107769839Y-39480195D01*
X107773949Y-39523671D01*
X107774499Y-39535339D01*
X107774499Y-42567256D01*
X107772235Y-42587763D01*
X107774439Y-42657872D01*
X107774500Y-42661767D01*
X107774500Y-42689350D01*
X107774988Y-42693219D01*
X107774989Y-42693225D01*
X107775004Y-42693343D01*
X107775918Y-42704967D01*
X107777290Y-42748626D01*
X107782879Y-42767860D01*
X107786825Y-42786916D01*
X107789335Y-42806792D01*
X107805414Y-42847404D01*
X107809197Y-42858451D01*
X107821382Y-42900391D01*
X107831580Y-42917635D01*
X107840136Y-42935100D01*
X107847514Y-42953732D01*
X107847515Y-42953733D01*
X107873180Y-42989059D01*
X107879593Y-42998822D01*
X107901826Y-43036416D01*
X107901829Y-43036419D01*
X107901830Y-43036420D01*
X107915995Y-43050585D01*
X107928627Y-43065375D01*
X107940406Y-43081587D01*
X107974058Y-43109426D01*
X107982699Y-43117289D01*
X108749197Y-43883787D01*
X108762098Y-43899889D01*
X108764212Y-43901874D01*
X108764214Y-43901877D01*
X108798908Y-43934457D01*
X108813240Y-43947916D01*
X108816036Y-43950626D01*
X108835530Y-43970120D01*
X108838615Y-43972513D01*
X108838701Y-43972580D01*
X108847573Y-43980158D01*
X108879418Y-44010062D01*
X108896974Y-44019714D01*
X108913231Y-44030392D01*
X108929064Y-44042674D01*
X108945185Y-44049649D01*
X108969156Y-44060023D01*
X108979643Y-44065160D01*
X109017908Y-44086197D01*
X109037316Y-44091180D01*
X109055710Y-44097478D01*
X109074105Y-44105438D01*
X109117254Y-44112271D01*
X109128660Y-44114633D01*
X109170981Y-44125500D01*
X109170984Y-44125500D01*
X109179400Y-44127661D01*
X109239437Y-44163401D01*
X109250134Y-44176642D01*
X109250964Y-44177828D01*
X109250965Y-44177829D01*
X109386505Y-44371401D01*
X109553599Y-44538495D01*
X109662204Y-44614541D01*
X109711032Y-44648730D01*
X109754657Y-44703307D01*
X109761851Y-44772805D01*
X109730328Y-44835160D01*
X109711033Y-44851880D01*
X109553918Y-44961893D01*
X109386893Y-45128918D01*
X109251399Y-45322423D01*
X109151569Y-45536507D01*
X109094364Y-45749999D01*
X109094364Y-45750000D01*
X110146031Y-45750000D01*
X110113481Y-45800649D01*
X110075000Y-45931705D01*
X110075000Y-46068295D01*
X110113481Y-46199351D01*
X110146031Y-46250000D01*
X109094364Y-46250000D01*
X109151569Y-46463492D01*
X109251400Y-46677578D01*
X109386890Y-46871078D01*
X109553921Y-47038109D01*
X109747421Y-47173599D01*
X109961507Y-47273430D01*
X110189682Y-47334569D01*
X110300000Y-47344220D01*
X110300000Y-46408018D01*
X110414801Y-46460446D01*
X110516025Y-46475000D01*
X110583975Y-46475000D01*
X110685199Y-46460446D01*
X110800000Y-46408018D01*
X110800000Y-47344219D01*
X110910317Y-47334569D01*
X111138492Y-47273430D01*
X111352578Y-47173599D01*
X111546078Y-47038109D01*
X111713106Y-46871081D01*
X111848600Y-46677576D01*
X111948430Y-46463492D01*
X112009569Y-46235318D01*
X112017862Y-46140535D01*
X112043314Y-46075466D01*
X112099905Y-46034487D01*
X112169667Y-46030609D01*
X112229071Y-46063661D01*
X112588182Y-46422772D01*
X112621666Y-46484093D01*
X112624500Y-46510451D01*
X112624500Y-46689547D01*
X112604815Y-46756586D01*
X112588181Y-46777228D01*
X110177228Y-49188181D01*
X110115905Y-49221666D01*
X110089547Y-49224500D01*
X108932741Y-49224500D01*
X108912237Y-49222236D01*
X108842145Y-49224439D01*
X108838251Y-49224500D01*
X108810650Y-49224500D01*
X108806799Y-49224986D01*
X108806768Y-49224988D01*
X108806640Y-49225005D01*
X108795028Y-49225918D01*
X108751368Y-49227290D01*
X108732128Y-49232880D01*
X108713081Y-49236825D01*
X108693209Y-49239335D01*
X108652599Y-49255413D01*
X108641554Y-49259194D01*
X108599611Y-49271380D01*
X108582369Y-49281578D01*
X108564897Y-49290138D01*
X108546266Y-49297514D01*
X108510938Y-49323181D01*
X108501180Y-49329591D01*
X108463579Y-49351829D01*
X108449410Y-49365998D01*
X108434622Y-49378628D01*
X108418413Y-49390405D01*
X108390572Y-49424058D01*
X108382711Y-49432696D01*
X107716208Y-50099199D01*
X107700110Y-50112096D01*
X107652096Y-50163225D01*
X107649392Y-50166016D01*
X107632628Y-50182780D01*
X107632621Y-50182787D01*
X107629880Y-50185529D01*
X107627499Y-50188597D01*
X107627490Y-50188608D01*
X107627411Y-50188711D01*
X107619842Y-50197572D01*
X107589935Y-50229420D01*
X107580285Y-50246974D01*
X107569609Y-50263228D01*
X107557326Y-50279063D01*
X107539975Y-50319158D01*
X107534838Y-50329644D01*
X107513802Y-50367907D01*
X107508821Y-50387309D01*
X107502520Y-50405711D01*
X107494561Y-50424102D01*
X107487728Y-50467242D01*
X107485360Y-50478674D01*
X107474499Y-50520977D01*
X107474500Y-50541016D01*
X107472973Y-50560414D01*
X107469840Y-50580194D01*
X107473950Y-50623673D01*
X107474500Y-50635343D01*
X107474500Y-52467256D01*
X107472235Y-52487766D01*
X107474439Y-52557872D01*
X107474500Y-52561767D01*
X107474500Y-52589350D01*
X107474988Y-52593219D01*
X107474989Y-52593225D01*
X107475004Y-52593343D01*
X107475918Y-52604967D01*
X107477290Y-52648626D01*
X107482879Y-52667860D01*
X107486825Y-52686916D01*
X107489335Y-52706792D01*
X107505414Y-52747404D01*
X107509197Y-52758451D01*
X107521382Y-52800391D01*
X107531580Y-52817635D01*
X107540136Y-52835100D01*
X107547514Y-52853732D01*
X107547515Y-52853733D01*
X107573180Y-52889059D01*
X107579593Y-52898822D01*
X107601826Y-52936416D01*
X107601829Y-52936419D01*
X107601830Y-52936420D01*
X107615995Y-52950585D01*
X107628627Y-52965375D01*
X107640406Y-52981587D01*
X107674058Y-53009426D01*
X107682699Y-53017289D01*
X109111177Y-54445767D01*
X109144662Y-54507090D01*
X109143271Y-54565541D01*
X109089936Y-54764592D01*
X109069340Y-55000000D01*
X109089936Y-55235407D01*
X109143271Y-55434456D01*
X109151097Y-55463663D01*
X109250965Y-55677829D01*
X109386505Y-55871401D01*
X109553599Y-56038495D01*
X109672000Y-56121400D01*
X109711032Y-56148730D01*
X109754657Y-56203307D01*
X109761851Y-56272805D01*
X109730328Y-56335160D01*
X109711033Y-56351880D01*
X109553918Y-56461893D01*
X109386893Y-56628918D01*
X109251399Y-56822423D01*
X109151569Y-57036507D01*
X109094364Y-57249999D01*
X109094364Y-57250000D01*
X110146031Y-57250000D01*
X110113481Y-57300649D01*
X110075000Y-57431705D01*
X110075000Y-57568295D01*
X110113481Y-57699351D01*
X110146031Y-57750000D01*
X109094364Y-57750000D01*
X109151569Y-57963492D01*
X109251400Y-58177578D01*
X109386890Y-58371078D01*
X109553921Y-58538109D01*
X109747421Y-58673599D01*
X109961507Y-58773430D01*
X110189682Y-58834569D01*
X110300000Y-58844220D01*
X110300000Y-57908018D01*
X110414801Y-57960446D01*
X110516025Y-57975000D01*
X110583975Y-57975000D01*
X110685199Y-57960446D01*
X110800000Y-57908018D01*
X110800000Y-58844219D01*
X110910317Y-58834569D01*
X111138492Y-58773430D01*
X111352578Y-58673599D01*
X111546078Y-58538109D01*
X111713106Y-58371081D01*
X111848600Y-58177576D01*
X111948430Y-57963492D01*
X112009569Y-57735318D01*
X112017862Y-57640535D01*
X112043314Y-57575466D01*
X112099905Y-57534487D01*
X112169667Y-57530609D01*
X112229071Y-57563661D01*
X112627728Y-57962318D01*
X112661213Y-58023641D01*
X112656229Y-58093333D01*
X112627728Y-58137680D01*
X110277228Y-60488181D01*
X110215905Y-60521666D01*
X110189547Y-60524500D01*
X110032744Y-60524500D01*
X110012237Y-60522235D01*
X109942127Y-60524439D01*
X109938232Y-60524500D01*
X109910650Y-60524500D01*
X109906805Y-60524985D01*
X109906780Y-60524987D01*
X109906653Y-60525004D01*
X109895033Y-60525918D01*
X109851369Y-60527290D01*
X109832129Y-60532880D01*
X109813081Y-60536825D01*
X109793209Y-60539335D01*
X109752599Y-60555413D01*
X109741554Y-60559194D01*
X109699610Y-60571381D01*
X109682365Y-60581579D01*
X109664904Y-60590133D01*
X109646267Y-60597512D01*
X109610931Y-60623185D01*
X109601174Y-60629595D01*
X109563580Y-60651829D01*
X109549413Y-60665996D01*
X109534624Y-60678626D01*
X109518413Y-60690404D01*
X109490572Y-60724058D01*
X109482711Y-60732697D01*
X108166208Y-62049199D01*
X108150110Y-62062096D01*
X108102096Y-62113225D01*
X108099392Y-62116016D01*
X108082628Y-62132780D01*
X108082621Y-62132787D01*
X108079880Y-62135529D01*
X108077499Y-62138597D01*
X108077490Y-62138608D01*
X108077411Y-62138711D01*
X108069842Y-62147572D01*
X108039935Y-62179420D01*
X108030285Y-62196974D01*
X108019609Y-62213228D01*
X108007326Y-62229063D01*
X107989975Y-62269158D01*
X107984838Y-62279644D01*
X107963802Y-62317907D01*
X107958821Y-62337309D01*
X107952520Y-62355711D01*
X107944561Y-62374102D01*
X107937728Y-62417242D01*
X107935360Y-62428674D01*
X107924499Y-62470977D01*
X107924500Y-62491016D01*
X107922973Y-62510414D01*
X107919840Y-62530194D01*
X107923950Y-62573673D01*
X107924500Y-62585343D01*
X107924500Y-64479151D01*
X107922304Y-64502385D01*
X107920772Y-64510412D01*
X107924255Y-64565757D01*
X107924500Y-64573544D01*
X107924500Y-64589350D01*
X107924987Y-64593209D01*
X107924988Y-64593218D01*
X107926481Y-64605035D01*
X107927213Y-64612787D01*
X107930695Y-64668137D01*
X107933220Y-64675908D01*
X107938310Y-64698678D01*
X107939335Y-64706788D01*
X107939336Y-64706792D01*
X107959602Y-64757978D01*
X107959753Y-64758360D01*
X107962390Y-64765684D01*
X107970755Y-64791427D01*
X107979533Y-64818441D01*
X107979534Y-64818442D01*
X107983910Y-64825339D01*
X107994500Y-64846123D01*
X107997513Y-64853732D01*
X108030120Y-64898612D01*
X108034498Y-64905053D01*
X108064214Y-64951877D01*
X108070167Y-64957467D01*
X108085603Y-64974976D01*
X108090406Y-64981587D01*
X108133146Y-65016945D01*
X108138978Y-65022087D01*
X108179418Y-65060062D01*
X108186578Y-65063998D01*
X108205883Y-65077117D01*
X108212178Y-65082325D01*
X108212535Y-65082493D01*
X108247421Y-65107011D01*
X109086177Y-65945767D01*
X109119662Y-66007090D01*
X109118271Y-66065541D01*
X109064936Y-66264592D01*
X109044340Y-66499999D01*
X109064936Y-66735407D01*
X109113928Y-66918248D01*
X109126097Y-66963663D01*
X109225965Y-67177829D01*
X109361505Y-67371401D01*
X109528599Y-67538495D01*
X109637204Y-67614541D01*
X109686032Y-67648730D01*
X109729657Y-67703307D01*
X109736851Y-67772805D01*
X109705328Y-67835160D01*
X109686033Y-67851880D01*
X109528918Y-67961893D01*
X109361893Y-68128918D01*
X109226399Y-68322423D01*
X109126569Y-68536507D01*
X109069364Y-68749999D01*
X109069364Y-68750000D01*
X110121031Y-68750000D01*
X110088481Y-68800649D01*
X110050000Y-68931705D01*
X110050000Y-69068295D01*
X110088481Y-69199351D01*
X110121031Y-69250000D01*
X109069364Y-69250000D01*
X109126569Y-69463492D01*
X109226400Y-69677578D01*
X109361890Y-69871078D01*
X109528921Y-70038109D01*
X109722421Y-70173599D01*
X109936507Y-70273430D01*
X110164682Y-70334569D01*
X110275000Y-70344220D01*
X110275000Y-69408018D01*
X110389801Y-69460446D01*
X110491025Y-69475000D01*
X110558975Y-69475000D01*
X110660199Y-69460446D01*
X110775000Y-69408018D01*
X110775000Y-70344219D01*
X110885317Y-70334569D01*
X111113492Y-70273430D01*
X111327578Y-70173599D01*
X111521078Y-70038109D01*
X111688106Y-69871081D01*
X111823600Y-69677576D01*
X111923430Y-69463492D01*
X111980636Y-69250000D01*
X110928969Y-69250000D01*
X110961519Y-69199351D01*
X111000000Y-69068295D01*
X111000000Y-68931705D01*
X110961519Y-68800649D01*
X110928969Y-68750000D01*
X111980636Y-68750000D01*
X111980635Y-68749999D01*
X111923430Y-68536507D01*
X111823599Y-68322421D01*
X111688109Y-68128921D01*
X111521078Y-67961890D01*
X111363967Y-67851880D01*
X111320342Y-67797303D01*
X111313148Y-67727805D01*
X111344671Y-67665450D01*
X111363960Y-67648735D01*
X111521401Y-67538495D01*
X111688495Y-67371401D01*
X111767775Y-67258176D01*
X111822351Y-67214553D01*
X111891849Y-67207359D01*
X111954204Y-67238882D01*
X111957030Y-67241620D01*
X112438180Y-67722770D01*
X112471665Y-67784093D01*
X112474499Y-67810451D01*
X112474499Y-70239547D01*
X112454814Y-70306586D01*
X112438180Y-70327228D01*
X111127228Y-71638181D01*
X111065905Y-71671666D01*
X111039547Y-71674500D01*
X110132744Y-71674500D01*
X110112237Y-71672235D01*
X110042127Y-71674439D01*
X110038232Y-71674500D01*
X110010650Y-71674500D01*
X110006805Y-71674985D01*
X110006780Y-71674987D01*
X110006653Y-71675004D01*
X109995033Y-71675918D01*
X109951369Y-71677290D01*
X109932129Y-71682880D01*
X109913081Y-71686825D01*
X109893209Y-71689335D01*
X109852599Y-71705413D01*
X109841554Y-71709194D01*
X109799610Y-71721381D01*
X109782365Y-71731579D01*
X109764904Y-71740133D01*
X109746267Y-71747512D01*
X109710931Y-71773185D01*
X109701174Y-71779595D01*
X109663580Y-71801829D01*
X109649413Y-71815996D01*
X109634624Y-71828626D01*
X109618413Y-71840404D01*
X109590572Y-71874058D01*
X109582711Y-71882697D01*
X108116208Y-73349199D01*
X108100110Y-73362096D01*
X108052096Y-73413225D01*
X108049392Y-73416016D01*
X108032628Y-73432780D01*
X108032621Y-73432787D01*
X108029880Y-73435529D01*
X108027499Y-73438597D01*
X108027490Y-73438608D01*
X108027411Y-73438711D01*
X108019842Y-73447572D01*
X107989935Y-73479420D01*
X107980285Y-73496974D01*
X107969609Y-73513228D01*
X107957326Y-73529063D01*
X107939975Y-73569158D01*
X107934838Y-73579644D01*
X107913802Y-73617907D01*
X107908821Y-73637309D01*
X107902520Y-73655711D01*
X107894561Y-73674102D01*
X107887728Y-73717242D01*
X107885360Y-73728674D01*
X107874499Y-73770977D01*
X107874500Y-73791016D01*
X107872973Y-73810414D01*
X107869840Y-73830194D01*
X107873950Y-73873673D01*
X107874500Y-73885343D01*
X107874499Y-75892256D01*
X107872235Y-75912763D01*
X107874439Y-75982872D01*
X107874500Y-75986767D01*
X107874500Y-76014350D01*
X107874988Y-76018219D01*
X107874989Y-76018225D01*
X107875004Y-76018343D01*
X107875918Y-76029967D01*
X107877290Y-76073626D01*
X107882879Y-76092860D01*
X107886825Y-76111916D01*
X107889335Y-76131792D01*
X107905414Y-76172404D01*
X107909197Y-76183451D01*
X107921382Y-76225391D01*
X107931580Y-76242635D01*
X107940136Y-76260100D01*
X107947514Y-76278732D01*
X107947515Y-76278733D01*
X107973180Y-76314059D01*
X107979593Y-76323822D01*
X108001826Y-76361416D01*
X108001829Y-76361419D01*
X108001830Y-76361420D01*
X108015995Y-76375585D01*
X108028627Y-76390375D01*
X108040406Y-76406587D01*
X108074058Y-76434426D01*
X108082699Y-76442289D01*
X109086177Y-77445767D01*
X109119662Y-77507090D01*
X109118271Y-77565541D01*
X109064936Y-77764592D01*
X109044340Y-77999999D01*
X109064936Y-78235407D01*
X109126097Y-78463663D01*
X109225965Y-78677829D01*
X109361505Y-78871401D01*
X109528598Y-79038494D01*
X109686032Y-79148730D01*
X109729657Y-79203307D01*
X109736851Y-79272805D01*
X109705328Y-79335160D01*
X109686033Y-79351880D01*
X109528918Y-79461893D01*
X109361893Y-79628918D01*
X109226399Y-79822423D01*
X109126569Y-80036507D01*
X109069364Y-80249999D01*
X109069364Y-80250000D01*
X110121031Y-80250000D01*
X110088481Y-80300649D01*
X110050000Y-80431705D01*
X110050000Y-80568295D01*
X110088481Y-80699351D01*
X110121031Y-80750000D01*
X109069364Y-80750000D01*
X109126569Y-80963492D01*
X109226400Y-81177578D01*
X109361890Y-81371078D01*
X109528921Y-81538109D01*
X109722421Y-81673599D01*
X109936507Y-81773430D01*
X110164682Y-81834569D01*
X110275000Y-81844220D01*
X110275000Y-80908018D01*
X110389801Y-80960446D01*
X110491025Y-80975000D01*
X110558975Y-80975000D01*
X110660199Y-80960446D01*
X110775000Y-80908018D01*
X110775000Y-81844219D01*
X110885317Y-81834569D01*
X111113492Y-81773430D01*
X111327578Y-81673599D01*
X111521078Y-81538109D01*
X111688106Y-81371081D01*
X111823600Y-81177576D01*
X111923430Y-80963492D01*
X111980636Y-80750000D01*
X110928969Y-80750000D01*
X110961519Y-80699351D01*
X111000000Y-80568295D01*
X111000000Y-80431705D01*
X110961519Y-80300649D01*
X110928969Y-80250000D01*
X111980636Y-80250000D01*
X111980635Y-80249999D01*
X111923430Y-80036507D01*
X111823599Y-79822421D01*
X111688109Y-79628921D01*
X111521078Y-79461890D01*
X111363967Y-79351880D01*
X111320342Y-79297303D01*
X111313148Y-79227805D01*
X111344671Y-79165450D01*
X111363960Y-79148735D01*
X111521401Y-79038495D01*
X111688495Y-78871401D01*
X111824035Y-78677830D01*
X111923903Y-78463663D01*
X111985063Y-78235408D01*
X112005659Y-78000000D01*
X111985063Y-77764592D01*
X111923903Y-77536337D01*
X111824035Y-77322171D01*
X111688495Y-77128599D01*
X111541294Y-76981398D01*
X111507809Y-76920075D01*
X111512793Y-76850383D01*
X111554665Y-76794450D01*
X111563879Y-76788178D01*
X111569331Y-76784814D01*
X111569334Y-76784814D01*
X111718656Y-76692712D01*
X111842712Y-76568656D01*
X111934814Y-76419334D01*
X111989999Y-76252797D01*
X112000500Y-76150009D01*
X112000499Y-74960451D01*
X112020184Y-74893413D01*
X112036813Y-74872776D01*
X115933789Y-70975800D01*
X115949885Y-70962906D01*
X115951873Y-70960787D01*
X115951877Y-70960786D01*
X115997949Y-70911723D01*
X116000534Y-70909055D01*
X116020120Y-70889471D01*
X116022585Y-70886292D01*
X116030167Y-70877416D01*
X116060062Y-70845582D01*
X116069717Y-70828018D01*
X116080394Y-70811764D01*
X116092673Y-70795936D01*
X116110018Y-70755852D01*
X116115160Y-70745356D01*
X116115754Y-70744276D01*
X116136197Y-70707092D01*
X116141179Y-70687684D01*
X116147481Y-70669280D01*
X116155437Y-70650896D01*
X116162269Y-70607752D01*
X116164633Y-70596338D01*
X116175500Y-70554019D01*
X116175500Y-70533982D01*
X116177027Y-70514584D01*
X116180160Y-70494804D01*
X116176050Y-70451324D01*
X116175500Y-70439655D01*
X116175500Y-67732743D01*
X116177764Y-67712239D01*
X116177483Y-67703307D01*
X116175561Y-67642112D01*
X116175500Y-67638218D01*
X116175500Y-67614541D01*
X116175500Y-67610650D01*
X116174998Y-67606683D01*
X116174081Y-67595027D01*
X116173297Y-67570068D01*
X116172710Y-67551373D01*
X116167118Y-67532126D01*
X116163174Y-67513085D01*
X116160664Y-67493208D01*
X116144579Y-67452583D01*
X116140806Y-67441562D01*
X116128618Y-67399610D01*
X116118419Y-67382364D01*
X116109861Y-67364897D01*
X116102486Y-67346268D01*
X116076808Y-67310926D01*
X116070405Y-67301176D01*
X116065324Y-67292585D01*
X116048171Y-67263580D01*
X116034006Y-67249415D01*
X116021369Y-67234620D01*
X116009595Y-67218414D01*
X116009594Y-67218413D01*
X115975935Y-67190568D01*
X115967305Y-67182714D01*
X112400802Y-63616211D01*
X112383791Y-63594980D01*
X112381049Y-63590660D01*
X112361743Y-63523511D01*
X112381805Y-63456583D01*
X112398055Y-63436534D01*
X115833789Y-60000800D01*
X115849885Y-59987906D01*
X115851873Y-59985787D01*
X115851877Y-59985786D01*
X115897949Y-59936723D01*
X115900534Y-59934055D01*
X115920120Y-59914471D01*
X115922585Y-59911292D01*
X115930167Y-59902416D01*
X115960062Y-59870582D01*
X115969712Y-59853027D01*
X115980400Y-59836757D01*
X115992671Y-59820938D01*
X115992673Y-59820936D01*
X116010026Y-59780832D01*
X116015157Y-59770362D01*
X116036197Y-59732092D01*
X116041175Y-59712699D01*
X116047481Y-59694282D01*
X116049018Y-59690728D01*
X116055438Y-59675896D01*
X116062272Y-59632745D01*
X116064635Y-59621331D01*
X116075500Y-59579019D01*
X116075500Y-59558983D01*
X116077027Y-59539584D01*
X116080160Y-59519804D01*
X116076050Y-59476324D01*
X116075500Y-59464655D01*
X116075500Y-57482739D01*
X116077763Y-57462238D01*
X116077261Y-57446268D01*
X116075561Y-57392143D01*
X116075500Y-57388249D01*
X116075500Y-57364544D01*
X116075500Y-57360650D01*
X116074998Y-57356681D01*
X116074080Y-57345024D01*
X116072709Y-57301372D01*
X116067119Y-57282134D01*
X116063174Y-57263082D01*
X116060664Y-57243208D01*
X116060664Y-57243207D01*
X116044578Y-57202581D01*
X116040805Y-57191560D01*
X116028617Y-57149610D01*
X116018421Y-57132369D01*
X116009863Y-57114902D01*
X116002486Y-57096268D01*
X115976798Y-57060912D01*
X115970409Y-57051184D01*
X115948170Y-57013579D01*
X115934006Y-56999415D01*
X115921369Y-56984620D01*
X115909595Y-56968414D01*
X115909594Y-56968413D01*
X115875935Y-56940568D01*
X115867305Y-56932714D01*
X114974591Y-56040000D01*
X144644340Y-56040000D01*
X144664936Y-56275407D01*
X144700966Y-56409873D01*
X144726097Y-56503663D01*
X144825965Y-56717830D01*
X144961505Y-56911401D01*
X145128599Y-57078495D01*
X145322170Y-57214035D01*
X145536337Y-57313903D01*
X145764592Y-57375063D01*
X146000000Y-57395659D01*
X146235408Y-57375063D01*
X146463663Y-57313903D01*
X146677830Y-57214035D01*
X146871401Y-57078495D01*
X147038495Y-56911401D01*
X147174035Y-56717830D01*
X147273903Y-56503663D01*
X147335063Y-56275408D01*
X147355659Y-56040000D01*
X147354992Y-56032382D01*
X147335063Y-55804592D01*
X147335062Y-55804592D01*
X147273903Y-55576337D01*
X147174035Y-55362171D01*
X147095492Y-55249999D01*
X149494340Y-55249999D01*
X149514936Y-55485407D01*
X149576097Y-55713663D01*
X149675965Y-55927829D01*
X149811505Y-56121401D01*
X149958705Y-56268601D01*
X149992190Y-56329924D01*
X149987206Y-56399616D01*
X149945334Y-56455549D01*
X149936121Y-56461821D01*
X149781341Y-56557289D01*
X149657288Y-56681342D01*
X149565186Y-56830665D01*
X149510000Y-56997202D01*
X149499819Y-57096858D01*
X149499817Y-57096878D01*
X149499500Y-57099991D01*
X149499500Y-57103138D01*
X149499500Y-57103139D01*
X149499500Y-58396859D01*
X149499500Y-58396878D01*
X149499501Y-58400008D01*
X149499820Y-58403140D01*
X149499821Y-58403141D01*
X149510000Y-58502796D01*
X149565186Y-58669334D01*
X149657288Y-58818657D01*
X149781342Y-58942711D01*
X149781344Y-58942712D01*
X149930666Y-59034814D01*
X150042016Y-59071712D01*
X150097202Y-59089999D01*
X150196858Y-59100180D01*
X150196859Y-59100180D01*
X150199991Y-59100500D01*
X151750008Y-59100499D01*
X151852797Y-59089999D01*
X152019334Y-59034814D01*
X152168656Y-58942712D01*
X152292712Y-58818656D01*
X152384814Y-58669334D01*
X152439999Y-58502797D01*
X152450500Y-58400009D01*
X152450499Y-57099992D01*
X152439999Y-56997203D01*
X152384814Y-56830666D01*
X152292712Y-56681344D01*
X152292711Y-56681342D01*
X152168657Y-56557288D01*
X152013879Y-56461821D01*
X151967154Y-56409873D01*
X151955931Y-56340911D01*
X151983775Y-56276828D01*
X151991272Y-56268623D01*
X152138495Y-56121401D01*
X152274035Y-55927830D01*
X152373903Y-55713663D01*
X152435063Y-55485408D01*
X152455659Y-55250000D01*
X152435063Y-55014592D01*
X152373903Y-54786337D01*
X152274035Y-54572171D01*
X152138495Y-54378599D01*
X151971401Y-54211505D01*
X151814401Y-54101573D01*
X151770778Y-54046998D01*
X151763584Y-53977500D01*
X151795107Y-53915145D01*
X151814398Y-53898428D01*
X151971401Y-53788495D01*
X152138495Y-53621401D01*
X152274035Y-53427830D01*
X152373903Y-53213663D01*
X152435063Y-52985408D01*
X152455659Y-52750000D01*
X152435063Y-52514592D01*
X152373903Y-52286337D01*
X152274035Y-52072171D01*
X152138495Y-51878599D01*
X151971401Y-51711505D01*
X151813966Y-51601268D01*
X151770343Y-51546692D01*
X151763150Y-51477193D01*
X151794672Y-51414839D01*
X151813968Y-51398119D01*
X151971078Y-51288109D01*
X152138106Y-51121081D01*
X152273600Y-50927576D01*
X152373430Y-50713492D01*
X152430636Y-50500000D01*
X151378969Y-50500000D01*
X151411519Y-50449351D01*
X151450000Y-50318295D01*
X151450000Y-50181705D01*
X151411519Y-50050649D01*
X151378969Y-50000000D01*
X152430636Y-50000000D01*
X152430635Y-49999999D01*
X152373430Y-49786507D01*
X152273599Y-49572421D01*
X152138109Y-49378921D01*
X151971078Y-49211890D01*
X151813967Y-49101880D01*
X151770342Y-49047303D01*
X151763148Y-48977805D01*
X151794671Y-48915450D01*
X151813960Y-48898735D01*
X151971401Y-48788495D01*
X152138495Y-48621401D01*
X152274035Y-48427830D01*
X152373903Y-48213663D01*
X152435063Y-47985408D01*
X152455659Y-47750000D01*
X152453750Y-47728186D01*
X152435063Y-47514592D01*
X152427912Y-47487905D01*
X152373903Y-47286337D01*
X152274035Y-47072171D01*
X152138495Y-46878599D01*
X151971401Y-46711505D01*
X151777829Y-46575965D01*
X151563663Y-46476097D01*
X151516620Y-46463492D01*
X151335407Y-46414936D01*
X151161667Y-46399736D01*
X151161659Y-46399735D01*
X151158966Y-46399500D01*
X150791034Y-46399500D01*
X150788341Y-46399735D01*
X150788332Y-46399736D01*
X150614592Y-46414936D01*
X150386336Y-46476097D01*
X150172170Y-46575965D01*
X149978598Y-46711505D01*
X149811508Y-46878595D01*
X149811505Y-46878598D01*
X149811505Y-46878599D01*
X149705494Y-47029999D01*
X149675964Y-47072172D01*
X149576097Y-47286337D01*
X149514936Y-47514592D01*
X149494340Y-47749999D01*
X149514936Y-47985407D01*
X149576097Y-48213663D01*
X149675965Y-48427829D01*
X149811505Y-48621401D01*
X149978598Y-48788494D01*
X150136032Y-48898730D01*
X150179657Y-48953307D01*
X150186851Y-49022805D01*
X150155328Y-49085160D01*
X150136033Y-49101880D01*
X149978918Y-49211893D01*
X149811893Y-49378918D01*
X149676399Y-49572423D01*
X149576569Y-49786507D01*
X149519364Y-49999999D01*
X149519364Y-50000000D01*
X150571031Y-50000000D01*
X150538481Y-50050649D01*
X150500000Y-50181705D01*
X150500000Y-50318295D01*
X150538481Y-50449351D01*
X150571031Y-50500000D01*
X149519364Y-50500000D01*
X149576569Y-50713492D01*
X149676400Y-50927578D01*
X149811890Y-51121078D01*
X149978921Y-51288109D01*
X150136032Y-51398119D01*
X150179657Y-51452696D01*
X150186851Y-51522194D01*
X150155328Y-51584549D01*
X150136033Y-51601268D01*
X150028278Y-51676720D01*
X149978595Y-51711508D01*
X149811508Y-51878595D01*
X149811505Y-51878598D01*
X149811505Y-51878599D01*
X149689857Y-52052331D01*
X149675964Y-52072172D01*
X149576097Y-52286337D01*
X149514936Y-52514592D01*
X149494340Y-52749999D01*
X149514936Y-52985407D01*
X149543205Y-53090908D01*
X149576097Y-53213663D01*
X149675965Y-53427829D01*
X149811505Y-53621401D01*
X149978599Y-53788495D01*
X150135597Y-53898426D01*
X150179221Y-53953000D01*
X150186415Y-54022499D01*
X150154892Y-54084854D01*
X150135597Y-54101574D01*
X149998418Y-54197628D01*
X149978595Y-54211508D01*
X149811508Y-54378595D01*
X149811505Y-54378598D01*
X149811505Y-54378599D01*
X149699546Y-54538494D01*
X149675964Y-54572172D01*
X149576097Y-54786337D01*
X149514936Y-55014592D01*
X149494340Y-55249999D01*
X147095492Y-55249999D01*
X147038495Y-55168599D01*
X146871401Y-55001505D01*
X146685839Y-54871573D01*
X146642216Y-54816998D01*
X146635022Y-54747500D01*
X146666545Y-54685145D01*
X146685837Y-54668428D01*
X146871401Y-54538495D01*
X147038495Y-54371401D01*
X147174035Y-54177830D01*
X147273903Y-53963663D01*
X147335063Y-53735408D01*
X147355659Y-53500000D01*
X147335063Y-53264592D01*
X147273903Y-53036337D01*
X147174035Y-52822171D01*
X147038495Y-52628599D01*
X146916569Y-52506673D01*
X146883084Y-52445350D01*
X146888068Y-52375658D01*
X146929940Y-52319725D01*
X146960915Y-52302810D01*
X147092331Y-52253796D01*
X147207546Y-52167546D01*
X147293796Y-52052331D01*
X147344091Y-51917483D01*
X147350500Y-51857873D01*
X147350499Y-50062128D01*
X147344091Y-50002517D01*
X147293796Y-49867669D01*
X147207546Y-49752454D01*
X147092331Y-49666204D01*
X146957483Y-49615909D01*
X146897873Y-49609500D01*
X146894550Y-49609500D01*
X145105439Y-49609500D01*
X145105420Y-49609500D01*
X145102128Y-49609501D01*
X145098848Y-49609853D01*
X145098840Y-49609854D01*
X145042515Y-49615909D01*
X144907669Y-49666204D01*
X144792454Y-49752454D01*
X144706204Y-49867668D01*
X144655909Y-50002516D01*
X144655809Y-50003451D01*
X144649500Y-50062127D01*
X144649500Y-50065448D01*
X144649500Y-50065449D01*
X144649500Y-51854560D01*
X144649500Y-51854578D01*
X144649501Y-51857872D01*
X144649853Y-51861152D01*
X144649854Y-51861159D01*
X144655007Y-51909091D01*
X144655909Y-51917483D01*
X144706204Y-52052331D01*
X144792454Y-52167546D01*
X144907669Y-52253796D01*
X145007174Y-52290909D01*
X145039082Y-52302810D01*
X145095016Y-52344681D01*
X145119433Y-52410146D01*
X145104581Y-52478419D01*
X145083431Y-52506673D01*
X144961503Y-52628601D01*
X144825965Y-52822170D01*
X144726097Y-53036336D01*
X144664936Y-53264592D01*
X144644340Y-53500000D01*
X144664936Y-53735407D01*
X144679161Y-53788495D01*
X144726097Y-53963663D01*
X144825965Y-54177830D01*
X144961505Y-54371401D01*
X145128599Y-54538495D01*
X145314160Y-54668426D01*
X145357783Y-54723002D01*
X145364976Y-54792501D01*
X145333454Y-54854855D01*
X145314158Y-54871575D01*
X145130749Y-55000000D01*
X145128595Y-55001508D01*
X144961505Y-55168598D01*
X144825965Y-55362170D01*
X144726097Y-55576336D01*
X144664936Y-55804592D01*
X144644340Y-56040000D01*
X114974591Y-56040000D01*
X112061818Y-53127227D01*
X112028333Y-53065904D01*
X112025499Y-53039546D01*
X112025499Y-51960452D01*
X112045184Y-51893413D01*
X112061813Y-51872776D01*
X115933789Y-48000800D01*
X115949885Y-47987906D01*
X115951873Y-47985787D01*
X115951877Y-47985786D01*
X115997949Y-47936723D01*
X116000534Y-47934055D01*
X116020120Y-47914471D01*
X116022585Y-47911292D01*
X116030167Y-47902416D01*
X116060062Y-47870582D01*
X116069712Y-47853027D01*
X116080400Y-47836757D01*
X116092671Y-47820938D01*
X116092673Y-47820936D01*
X116110026Y-47780832D01*
X116115157Y-47770362D01*
X116136197Y-47732092D01*
X116141175Y-47712699D01*
X116147481Y-47694282D01*
X116149018Y-47690728D01*
X116155438Y-47675896D01*
X116162272Y-47632745D01*
X116164635Y-47621331D01*
X116175500Y-47579019D01*
X116175500Y-47558983D01*
X116177027Y-47539584D01*
X116177278Y-47538000D01*
X116180160Y-47519804D01*
X116176050Y-47476324D01*
X116175500Y-47464655D01*
X116175500Y-46929999D01*
X117335036Y-46929999D01*
X117354861Y-47194542D01*
X117413894Y-47453182D01*
X117510813Y-47700126D01*
X117643456Y-47929871D01*
X117693642Y-47992803D01*
X117693643Y-47992803D01*
X118626923Y-47059523D01*
X118650507Y-47139844D01*
X118728239Y-47260798D01*
X118836900Y-47354952D01*
X118967685Y-47414680D01*
X118977466Y-47416086D01*
X118046438Y-48347112D01*
X118222521Y-48467163D01*
X118461533Y-48582265D01*
X118715034Y-48660461D01*
X118977356Y-48700000D01*
X119242644Y-48700000D01*
X119504965Y-48660461D01*
X119758469Y-48582265D01*
X119997481Y-48467163D01*
X120173560Y-48347112D01*
X120071026Y-48244578D01*
X135119500Y-48244578D01*
X135119501Y-48247872D01*
X135119853Y-48251152D01*
X135119854Y-48251159D01*
X135125909Y-48307484D01*
X135147709Y-48365932D01*
X135176204Y-48442331D01*
X135262454Y-48557546D01*
X135377669Y-48643796D01*
X135512517Y-48694091D01*
X135572127Y-48700500D01*
X138207872Y-48700499D01*
X138267483Y-48694091D01*
X138402331Y-48643796D01*
X138517546Y-48557546D01*
X138603796Y-48442331D01*
X138654091Y-48307483D01*
X138660500Y-48247873D01*
X138660499Y-45612128D01*
X138654091Y-45552517D01*
X138603796Y-45417669D01*
X138517546Y-45302454D01*
X138402331Y-45216204D01*
X138267483Y-45165909D01*
X138267483Y-45165908D01*
X138211166Y-45159854D01*
X138211165Y-45159853D01*
X138207873Y-45159500D01*
X138204550Y-45159500D01*
X135575439Y-45159500D01*
X135575420Y-45159500D01*
X135572128Y-45159501D01*
X135568848Y-45159853D01*
X135568840Y-45159854D01*
X135512515Y-45165909D01*
X135377669Y-45216204D01*
X135262454Y-45302454D01*
X135176204Y-45417668D01*
X135125910Y-45552515D01*
X135125909Y-45552517D01*
X135119500Y-45612127D01*
X135119500Y-45615448D01*
X135119500Y-45615449D01*
X135119500Y-48244560D01*
X135119500Y-48244578D01*
X120071026Y-48244578D01*
X119242533Y-47416086D01*
X119252315Y-47414680D01*
X119383100Y-47354952D01*
X119491761Y-47260798D01*
X119569493Y-47139844D01*
X119593076Y-47059524D01*
X120526355Y-47992803D01*
X120576543Y-47929870D01*
X120709186Y-47700126D01*
X120806105Y-47453182D01*
X120865138Y-47194542D01*
X120884963Y-46929999D01*
X120865138Y-46665457D01*
X120806105Y-46406817D01*
X120709186Y-46159873D01*
X120576543Y-45930128D01*
X120526355Y-45867195D01*
X119593076Y-46800474D01*
X119569493Y-46720156D01*
X119491761Y-46599202D01*
X119383100Y-46505048D01*
X119252315Y-46445320D01*
X119242534Y-46443913D01*
X120173560Y-45512886D01*
X119997481Y-45392836D01*
X119758469Y-45277734D01*
X119504965Y-45199538D01*
X119242644Y-45160000D01*
X118977356Y-45160000D01*
X118715034Y-45199538D01*
X118461533Y-45277734D01*
X118222518Y-45392837D01*
X118046438Y-45512886D01*
X118977466Y-46443913D01*
X118967685Y-46445320D01*
X118836900Y-46505048D01*
X118728239Y-46599202D01*
X118650507Y-46720156D01*
X118626923Y-46800476D01*
X117693643Y-45867196D01*
X117643455Y-45930130D01*
X117510813Y-46159873D01*
X117413894Y-46406817D01*
X117354861Y-46665457D01*
X117335036Y-46929999D01*
X116175500Y-46929999D01*
X116175500Y-44732743D01*
X116177764Y-44712239D01*
X116177483Y-44703307D01*
X116175561Y-44642112D01*
X116175500Y-44638218D01*
X116175500Y-44614541D01*
X116175500Y-44610650D01*
X116174998Y-44606683D01*
X116174081Y-44595027D01*
X116172710Y-44551373D01*
X116167118Y-44532126D01*
X116163174Y-44513085D01*
X116160664Y-44493208D01*
X116144579Y-44452583D01*
X116140806Y-44441562D01*
X116128618Y-44399610D01*
X116118419Y-44382364D01*
X116109861Y-44364897D01*
X116102486Y-44346268D01*
X116076808Y-44310926D01*
X116070405Y-44301176D01*
X116048171Y-44263580D01*
X116034006Y-44249415D01*
X116021369Y-44234620D01*
X116009595Y-44218414D01*
X116009594Y-44218413D01*
X115975935Y-44190568D01*
X115967305Y-44182714D01*
X113621772Y-41837181D01*
X113588287Y-41775858D01*
X113593271Y-41706166D01*
X113635143Y-41650233D01*
X113700607Y-41625816D01*
X113709453Y-41625500D01*
X114942256Y-41625500D01*
X114962762Y-41627764D01*
X114965665Y-41627672D01*
X114965667Y-41627673D01*
X115032872Y-41625561D01*
X115036768Y-41625500D01*
X115060448Y-41625500D01*
X115064350Y-41625500D01*
X115068313Y-41624999D01*
X115079962Y-41624080D01*
X115123627Y-41622709D01*
X115142859Y-41617120D01*
X115161918Y-41613174D01*
X115168196Y-41612381D01*
X115181792Y-41610664D01*
X115222407Y-41594582D01*
X115233444Y-41590803D01*
X115275390Y-41578618D01*
X115292629Y-41568422D01*
X115310102Y-41559862D01*
X115328732Y-41552486D01*
X115364064Y-41526814D01*
X115373830Y-41520400D01*
X115411418Y-41498171D01*
X115411417Y-41498171D01*
X115411420Y-41498170D01*
X115425585Y-41484004D01*
X115440373Y-41471373D01*
X115456587Y-41459594D01*
X115484438Y-41425926D01*
X115492279Y-41417309D01*
X116090010Y-40819578D01*
X128644500Y-40819578D01*
X128644501Y-40822872D01*
X128644853Y-40826152D01*
X128644854Y-40826159D01*
X128650909Y-40882484D01*
X128676056Y-40949906D01*
X128701204Y-41017331D01*
X128787454Y-41132546D01*
X128902669Y-41218796D01*
X129037517Y-41269091D01*
X129097127Y-41275500D01*
X131742872Y-41275499D01*
X131802483Y-41269091D01*
X131937331Y-41218796D01*
X132052546Y-41132546D01*
X132138796Y-41017331D01*
X132189091Y-40882483D01*
X132195500Y-40822873D01*
X132195499Y-39500000D01*
X133719520Y-39500000D01*
X133739406Y-39765364D01*
X133798623Y-40024807D01*
X133895844Y-40272522D01*
X134028895Y-40502976D01*
X134152580Y-40658070D01*
X134194817Y-40711033D01*
X134389890Y-40892035D01*
X134609761Y-41041940D01*
X134849518Y-41157401D01*
X135103806Y-41235839D01*
X135366945Y-41275500D01*
X135633055Y-41275500D01*
X135896194Y-41235839D01*
X136150482Y-41157401D01*
X136390240Y-41041940D01*
X136610110Y-40892035D01*
X136805183Y-40711033D01*
X136971101Y-40502980D01*
X136971101Y-40502979D01*
X136971104Y-40502976D01*
X137104155Y-40272522D01*
X137104156Y-40272521D01*
X137201377Y-40024805D01*
X137260593Y-39765367D01*
X137280479Y-39500000D01*
X137274557Y-39420981D01*
X137265919Y-39305711D01*
X137260593Y-39234633D01*
X137201377Y-38975195D01*
X137194482Y-38957628D01*
X137104155Y-38727477D01*
X136971104Y-38497023D01*
X136805182Y-38288966D01*
X136610112Y-38107966D01*
X136436420Y-37989545D01*
X136390240Y-37958060D01*
X136390237Y-37958059D01*
X136390235Y-37958057D01*
X136150484Y-37842599D01*
X135896193Y-37764160D01*
X135633055Y-37724500D01*
X135366945Y-37724500D01*
X135103806Y-37764160D01*
X134849518Y-37842599D01*
X134609760Y-37958060D01*
X134389890Y-38107964D01*
X134194817Y-38288966D01*
X134028895Y-38497023D01*
X133895844Y-38727477D01*
X133798623Y-38975192D01*
X133739406Y-39234635D01*
X133719520Y-39500000D01*
X132195499Y-39500000D01*
X132195499Y-38177128D01*
X132189091Y-38117517D01*
X132138796Y-37982669D01*
X132052546Y-37867454D01*
X131937331Y-37781204D01*
X131802483Y-37730909D01*
X131742873Y-37724500D01*
X131739550Y-37724500D01*
X129100439Y-37724500D01*
X129100420Y-37724500D01*
X129097128Y-37724501D01*
X129093848Y-37724853D01*
X129093840Y-37724854D01*
X129037515Y-37730909D01*
X128902669Y-37781204D01*
X128787454Y-37867454D01*
X128701204Y-37982668D01*
X128650909Y-38117516D01*
X128645090Y-38171644D01*
X128644500Y-38177127D01*
X128644500Y-38180448D01*
X128644500Y-38180449D01*
X128644500Y-40819560D01*
X128644500Y-40819578D01*
X116090010Y-40819578D01*
X122372771Y-34536818D01*
X122434094Y-34503333D01*
X122460452Y-34500499D01*
X123646859Y-34500499D01*
X123650008Y-34500499D01*
X123752797Y-34489999D01*
X123919334Y-34434814D01*
X124068656Y-34342712D01*
X124192712Y-34218656D01*
X124284814Y-34069334D01*
X124339999Y-33902797D01*
X124350500Y-33800009D01*
X124350500Y-33774499D01*
X124370185Y-33707461D01*
X124422989Y-33661706D01*
X124474500Y-33650500D01*
X148264548Y-33650500D01*
X148331587Y-33670185D01*
X148352229Y-33686819D01*
X156231613Y-41566204D01*
X156265098Y-41627527D01*
X156263707Y-41685978D01*
X156251929Y-41729933D01*
X156232676Y-41950000D01*
X156251929Y-42170065D01*
X156309106Y-42383451D01*
X156394816Y-42567256D01*
X156402466Y-42583662D01*
X156529174Y-42764620D01*
X156685380Y-42920826D01*
X156866338Y-43047534D01*
X156985748Y-43103215D01*
X156995189Y-43107618D01*
X157047628Y-43153790D01*
X157066780Y-43220984D01*
X157046564Y-43287865D01*
X156995189Y-43332382D01*
X156866338Y-43392466D01*
X156685379Y-43519174D01*
X156529174Y-43675379D01*
X156402466Y-43856338D01*
X156309106Y-44056548D01*
X156251929Y-44269934D01*
X156232676Y-44489999D01*
X156251929Y-44710065D01*
X156309106Y-44923451D01*
X156326360Y-44960452D01*
X156402466Y-45123662D01*
X156529174Y-45304620D01*
X156685380Y-45460826D01*
X156866338Y-45587534D01*
X156926181Y-45615439D01*
X156995780Y-45647894D01*
X157048219Y-45694066D01*
X157067371Y-45761260D01*
X157047155Y-45828141D01*
X156995780Y-45872658D01*
X156866589Y-45932900D01*
X156801812Y-45978258D01*
X156801811Y-45978258D01*
X157360400Y-46536847D01*
X157355408Y-46537565D01*
X157222530Y-46598248D01*
X157112131Y-46693910D01*
X157033155Y-46816799D01*
X157010477Y-46894030D01*
X156448258Y-46331811D01*
X156448258Y-46331812D01*
X156402900Y-46396589D01*
X156309578Y-46596719D01*
X156252424Y-46810021D01*
X156233178Y-47029999D01*
X156252424Y-47249978D01*
X156309579Y-47463281D01*
X156402898Y-47663406D01*
X156448258Y-47728187D01*
X157010477Y-47165968D01*
X157033155Y-47243201D01*
X157112131Y-47366090D01*
X157222530Y-47461752D01*
X157355408Y-47522435D01*
X157360400Y-47523152D01*
X156801812Y-48081740D01*
X156866592Y-48127100D01*
X156995780Y-48187341D01*
X157048220Y-48233513D01*
X157067372Y-48300706D01*
X157047157Y-48367587D01*
X156995782Y-48412105D01*
X156866336Y-48472467D01*
X156685379Y-48599174D01*
X156529174Y-48755379D01*
X156402466Y-48936338D01*
X156309106Y-49136548D01*
X156251929Y-49349934D01*
X156232676Y-49569999D01*
X156251929Y-49790065D01*
X156309106Y-50003451D01*
X156359768Y-50112096D01*
X156402466Y-50203662D01*
X156529174Y-50384620D01*
X156685380Y-50540826D01*
X156866338Y-50667534D01*
X156964896Y-50713492D01*
X156995189Y-50727618D01*
X157047628Y-50773790D01*
X157066780Y-50840984D01*
X157046564Y-50907865D01*
X156995189Y-50952382D01*
X156866338Y-51012466D01*
X156685379Y-51139174D01*
X156529174Y-51295379D01*
X156402466Y-51476338D01*
X156309106Y-51676548D01*
X156251929Y-51889934D01*
X156232676Y-52110000D01*
X156251929Y-52330065D01*
X156309106Y-52543451D01*
X156367119Y-52667860D01*
X156402466Y-52743662D01*
X156529174Y-52924620D01*
X156685380Y-53080826D01*
X156866338Y-53207534D01*
X156985748Y-53263215D01*
X156995189Y-53267618D01*
X157047628Y-53313790D01*
X157066780Y-53380984D01*
X157046564Y-53447865D01*
X156995189Y-53492382D01*
X156866338Y-53552466D01*
X156685379Y-53679174D01*
X156529174Y-53835379D01*
X156402466Y-54016338D01*
X156309106Y-54216548D01*
X156251929Y-54429934D01*
X156232676Y-54650000D01*
X156251929Y-54870065D01*
X156309106Y-55083451D01*
X156335940Y-55140996D01*
X156402466Y-55283662D01*
X156529174Y-55464620D01*
X156685380Y-55620826D01*
X156866338Y-55747534D01*
X156985748Y-55803215D01*
X156995189Y-55807618D01*
X157047628Y-55853790D01*
X157066780Y-55920984D01*
X157046564Y-55987865D01*
X156995189Y-56032382D01*
X156866338Y-56092466D01*
X156685379Y-56219174D01*
X156529174Y-56375379D01*
X156402466Y-56556338D01*
X156309106Y-56756548D01*
X156251929Y-56969934D01*
X156232676Y-57190000D01*
X156251929Y-57410065D01*
X156309106Y-57623451D01*
X156364454Y-57742144D01*
X156402466Y-57823662D01*
X156529174Y-58004620D01*
X156685380Y-58160826D01*
X156866338Y-58287534D01*
X156949524Y-58326324D01*
X156995189Y-58347618D01*
X157047628Y-58393790D01*
X157066780Y-58460984D01*
X157046564Y-58527865D01*
X156995189Y-58572382D01*
X156866338Y-58632466D01*
X156685379Y-58759174D01*
X156529174Y-58915379D01*
X156402466Y-59096338D01*
X156309106Y-59296548D01*
X156251929Y-59509934D01*
X156232676Y-59730000D01*
X156251929Y-59950065D01*
X156309106Y-60163451D01*
X156336611Y-60222435D01*
X156402466Y-60363662D01*
X156529174Y-60544620D01*
X156685380Y-60700826D01*
X156866338Y-60827534D01*
X156985748Y-60883215D01*
X156995189Y-60887618D01*
X157047628Y-60933790D01*
X157066780Y-61000984D01*
X157046564Y-61067865D01*
X156995189Y-61112382D01*
X156866338Y-61172466D01*
X156685379Y-61299174D01*
X156529174Y-61455379D01*
X156402466Y-61636338D01*
X156309106Y-61836548D01*
X156251929Y-62049934D01*
X156232676Y-62269999D01*
X156251929Y-62490065D01*
X156309106Y-62703451D01*
X156402466Y-62903662D01*
X156529174Y-63084620D01*
X156685380Y-63240826D01*
X156866338Y-63367534D01*
X156985748Y-63423215D01*
X156995189Y-63427618D01*
X157047628Y-63473790D01*
X157066780Y-63540984D01*
X157046564Y-63607865D01*
X156995189Y-63652382D01*
X156866338Y-63712466D01*
X156685379Y-63839174D01*
X156529174Y-63995379D01*
X156402466Y-64176338D01*
X156309106Y-64376548D01*
X156251929Y-64589934D01*
X156232676Y-64809999D01*
X156251929Y-65030065D01*
X156309106Y-65243451D01*
X156342382Y-65314811D01*
X156402466Y-65443662D01*
X156529174Y-65624620D01*
X156685380Y-65780826D01*
X156866338Y-65907534D01*
X156924898Y-65934841D01*
X156995780Y-65967894D01*
X157048219Y-66014066D01*
X157067371Y-66081260D01*
X157047155Y-66148141D01*
X156995780Y-66192658D01*
X156866589Y-66252900D01*
X156801812Y-66298258D01*
X156801811Y-66298258D01*
X157360400Y-66856847D01*
X157355408Y-66857565D01*
X157222530Y-66918248D01*
X157112131Y-67013910D01*
X157033155Y-67136799D01*
X157010477Y-67214030D01*
X156448258Y-66651811D01*
X156448258Y-66651812D01*
X156402900Y-66716589D01*
X156309578Y-66916719D01*
X156252424Y-67130021D01*
X156233178Y-67350000D01*
X156252424Y-67569978D01*
X156309579Y-67783281D01*
X156402898Y-67983406D01*
X156448258Y-68048187D01*
X157010477Y-67485968D01*
X157033155Y-67563201D01*
X157112131Y-67686090D01*
X157222530Y-67781752D01*
X157355408Y-67842435D01*
X157360400Y-67843152D01*
X156801812Y-68401740D01*
X156866592Y-68447100D01*
X156995780Y-68507341D01*
X157048220Y-68553513D01*
X157067372Y-68620706D01*
X157047157Y-68687587D01*
X156995782Y-68732105D01*
X156866336Y-68792467D01*
X156685379Y-68919174D01*
X156529174Y-69075379D01*
X156402466Y-69256338D01*
X156309106Y-69456548D01*
X156251929Y-69669934D01*
X156232676Y-69889999D01*
X156251929Y-70110065D01*
X156309106Y-70323451D01*
X156318791Y-70344220D01*
X156402466Y-70523662D01*
X156529174Y-70704620D01*
X156685380Y-70860826D01*
X156866338Y-70987534D01*
X156985748Y-71043215D01*
X156995189Y-71047618D01*
X157047628Y-71093790D01*
X157066780Y-71160984D01*
X157046564Y-71227865D01*
X156995189Y-71272382D01*
X156866338Y-71332466D01*
X156685379Y-71459174D01*
X156529174Y-71615379D01*
X156402466Y-71796338D01*
X156309106Y-71996548D01*
X156251929Y-72209934D01*
X156232676Y-72429999D01*
X156251929Y-72650064D01*
X156263707Y-72694019D01*
X156262044Y-72763869D01*
X156231613Y-72813794D01*
X147576208Y-81469199D01*
X147560110Y-81482096D01*
X147512096Y-81533225D01*
X147509392Y-81536016D01*
X147492628Y-81552780D01*
X147492621Y-81552787D01*
X147489880Y-81555529D01*
X147487499Y-81558597D01*
X147487490Y-81558608D01*
X147487411Y-81558711D01*
X147479842Y-81567572D01*
X147449935Y-81599420D01*
X147440285Y-81616974D01*
X147429609Y-81633228D01*
X147417326Y-81649063D01*
X147399975Y-81689158D01*
X147394838Y-81699644D01*
X147373802Y-81737907D01*
X147368821Y-81757309D01*
X147362520Y-81775711D01*
X147354561Y-81794102D01*
X147347728Y-81837242D01*
X147345360Y-81848674D01*
X147334500Y-81890977D01*
X147334500Y-81911016D01*
X147332973Y-81930414D01*
X147329840Y-81950194D01*
X147333950Y-81993673D01*
X147334500Y-82005343D01*
X147334500Y-87525500D01*
X147314815Y-87592539D01*
X147262011Y-87638294D01*
X147210501Y-87649500D01*
X147065439Y-87649500D01*
X147065420Y-87649500D01*
X147062128Y-87649501D01*
X147058848Y-87649853D01*
X147058840Y-87649854D01*
X147002515Y-87655909D01*
X146867669Y-87706204D01*
X146752454Y-87792454D01*
X146666204Y-87907668D01*
X146615909Y-88042516D01*
X146611455Y-88083947D01*
X146609500Y-88102127D01*
X146609500Y-88105448D01*
X146609500Y-88105449D01*
X146609500Y-89894560D01*
X146609500Y-89894578D01*
X146609501Y-89897872D01*
X146609853Y-89901152D01*
X146609854Y-89901159D01*
X146615909Y-89957483D01*
X146666204Y-90092331D01*
X146752454Y-90207546D01*
X146867669Y-90293796D01*
X147002517Y-90344091D01*
X147062127Y-90350500D01*
X148857872Y-90350499D01*
X148917483Y-90344091D01*
X149052331Y-90293796D01*
X149167546Y-90207546D01*
X149253796Y-90092331D01*
X149303003Y-89960399D01*
X149344873Y-89904467D01*
X149410337Y-89880050D01*
X149478610Y-89894901D01*
X149506865Y-89916053D01*
X149628918Y-90038106D01*
X149822423Y-90173600D01*
X150036509Y-90273430D01*
X150250000Y-90330634D01*
X150250000Y-89435501D01*
X150357685Y-89484680D01*
X150464237Y-89500000D01*
X150535763Y-89500000D01*
X150642315Y-89484680D01*
X150750000Y-89435501D01*
X150750000Y-90330633D01*
X150963490Y-90273430D01*
X151177576Y-90173600D01*
X151371081Y-90038106D01*
X151538106Y-89871081D01*
X151673600Y-89677576D01*
X151773430Y-89463492D01*
X151830636Y-89250000D01*
X150933686Y-89250000D01*
X150959493Y-89209844D01*
X151000000Y-89071889D01*
X151000000Y-88928111D01*
X150959493Y-88790156D01*
X150933686Y-88750000D01*
X151830636Y-88750000D01*
X151830635Y-88749999D01*
X151773430Y-88536507D01*
X151673599Y-88322421D01*
X151538109Y-88128921D01*
X151371081Y-87961893D01*
X151177576Y-87826399D01*
X150963492Y-87726569D01*
X150750000Y-87669364D01*
X150750000Y-88564498D01*
X150642315Y-88515320D01*
X150535763Y-88500000D01*
X150464237Y-88500000D01*
X150357685Y-88515320D01*
X150250000Y-88564498D01*
X150250000Y-87669364D01*
X150249999Y-87669364D01*
X150036507Y-87726569D01*
X149822421Y-87826400D01*
X149628924Y-87961888D01*
X149506865Y-88083947D01*
X149445542Y-88117431D01*
X149375850Y-88112447D01*
X149319917Y-88070575D01*
X149303002Y-88039598D01*
X149274018Y-87961888D01*
X149253796Y-87907669D01*
X149167546Y-87792454D01*
X149052331Y-87706204D01*
X148917483Y-87655909D01*
X148857873Y-87649500D01*
X148854551Y-87649500D01*
X148709500Y-87649500D01*
X148642461Y-87629815D01*
X148596706Y-87577011D01*
X148585500Y-87525500D01*
X148585500Y-82280451D01*
X148605185Y-82213412D01*
X148621814Y-82192775D01*
X156028985Y-74785603D01*
X156090306Y-74752120D01*
X156159998Y-74757104D01*
X156215931Y-74798976D01*
X156240348Y-74864440D01*
X156240192Y-74884093D01*
X156232676Y-74969999D01*
X156251929Y-75190065D01*
X156309106Y-75403451D01*
X156342382Y-75474811D01*
X156402466Y-75603662D01*
X156529174Y-75784620D01*
X156685380Y-75940826D01*
X156866338Y-76067534D01*
X156940751Y-76102233D01*
X156995189Y-76127618D01*
X157047628Y-76173790D01*
X157066780Y-76240984D01*
X157046564Y-76307865D01*
X156995189Y-76352382D01*
X156866338Y-76412466D01*
X156685379Y-76539174D01*
X156529174Y-76695379D01*
X156402466Y-76876338D01*
X156309106Y-77076548D01*
X156251929Y-77289934D01*
X156232676Y-77510000D01*
X156251929Y-77730065D01*
X156309106Y-77943451D01*
X156336611Y-78002435D01*
X156402466Y-78143662D01*
X156529174Y-78324620D01*
X156685380Y-78480826D01*
X156866338Y-78607534D01*
X156985748Y-78663215D01*
X156995189Y-78667618D01*
X157047628Y-78713790D01*
X157066780Y-78780984D01*
X157046564Y-78847865D01*
X156995189Y-78892382D01*
X156866338Y-78952466D01*
X156685379Y-79079174D01*
X156529174Y-79235379D01*
X156402466Y-79416338D01*
X156309106Y-79616548D01*
X156251929Y-79829934D01*
X156232676Y-80050000D01*
X156251929Y-80270065D01*
X156309106Y-80483451D01*
X156402466Y-80683662D01*
X156529174Y-80864620D01*
X156685380Y-81020826D01*
X156866338Y-81147534D01*
X156930764Y-81177576D01*
X156995189Y-81207618D01*
X157047628Y-81253790D01*
X157066780Y-81320984D01*
X157046564Y-81387865D01*
X156995189Y-81432382D01*
X156866338Y-81492466D01*
X156685379Y-81619174D01*
X156529174Y-81775379D01*
X156402466Y-81956338D01*
X156309106Y-82156548D01*
X156251929Y-82369934D01*
X156232676Y-82589999D01*
X156251929Y-82810065D01*
X156309106Y-83023451D01*
X156342382Y-83094811D01*
X156402466Y-83223662D01*
X156529174Y-83404620D01*
X156685380Y-83560826D01*
X156866338Y-83687534D01*
X156936173Y-83720098D01*
X156995780Y-83747894D01*
X157048219Y-83794066D01*
X157067371Y-83861260D01*
X157047155Y-83928141D01*
X156995780Y-83972658D01*
X156866589Y-84032900D01*
X156801812Y-84078258D01*
X156801811Y-84078258D01*
X157360400Y-84636847D01*
X157355408Y-84637565D01*
X157222530Y-84698248D01*
X157112131Y-84793910D01*
X157033155Y-84916799D01*
X157010477Y-84994030D01*
X156448258Y-84431811D01*
X156448258Y-84431812D01*
X156402900Y-84496589D01*
X156309578Y-84696719D01*
X156252424Y-84910021D01*
X156233178Y-85129999D01*
X156252424Y-85349978D01*
X156309579Y-85563281D01*
X156402898Y-85763406D01*
X156448258Y-85828187D01*
X157010477Y-85265968D01*
X157033155Y-85343201D01*
X157112131Y-85466090D01*
X157222530Y-85561752D01*
X157355408Y-85622435D01*
X157360400Y-85623152D01*
X156801812Y-86181740D01*
X156866593Y-86227101D01*
X157066718Y-86320420D01*
X157280021Y-86377575D01*
X157462580Y-86393547D01*
X157527649Y-86418999D01*
X157568628Y-86475590D01*
X157572506Y-86545352D01*
X157538052Y-86606136D01*
X157496211Y-86632839D01*
X157306770Y-86705559D01*
X157300846Y-86708196D01*
X156970423Y-86876555D01*
X156964802Y-86879801D01*
X156653797Y-87081770D01*
X156648543Y-87085587D01*
X156405750Y-87282197D01*
X157990677Y-88867124D01*
X157903075Y-88926333D01*
X157734094Y-89088288D01*
X157636581Y-89220133D01*
X156052197Y-87635750D01*
X155855587Y-87878543D01*
X155851770Y-87883797D01*
X155649801Y-88194802D01*
X155646555Y-88200423D01*
X155478196Y-88530846D01*
X155475559Y-88536770D01*
X155342658Y-88882988D01*
X155340659Y-88889140D01*
X155244676Y-89247356D01*
X155243328Y-89253699D01*
X155185315Y-89619975D01*
X155184638Y-89626418D01*
X155165230Y-89996756D01*
X155165230Y-90003243D01*
X155184638Y-90373581D01*
X155185315Y-90380024D01*
X155243328Y-90746300D01*
X155244676Y-90752643D01*
X155340659Y-91110859D01*
X155342658Y-91117011D01*
X155475559Y-91463229D01*
X155478196Y-91469153D01*
X155646555Y-91799576D01*
X155649801Y-91805197D01*
X155851770Y-92116202D01*
X155855587Y-92121456D01*
X156052197Y-92364248D01*
X157635874Y-90780571D01*
X157660507Y-90820577D01*
X157815144Y-90996278D01*
X157987835Y-91135716D01*
X156405750Y-92717801D01*
X156648543Y-92914412D01*
X156653797Y-92918229D01*
X156964802Y-93120198D01*
X156970423Y-93123444D01*
X157042828Y-93160336D01*
X157093624Y-93208310D01*
X157110419Y-93276131D01*
X157087882Y-93342266D01*
X157033167Y-93385718D01*
X156986545Y-93394821D01*
X111544777Y-93399254D01*
X111477736Y-93379576D01*
X111431976Y-93326776D01*
X111422025Y-93257619D01*
X111451044Y-93194060D01*
X111488471Y-93164769D01*
X111569569Y-93123448D01*
X111575197Y-93120198D01*
X111886202Y-92918229D01*
X111891456Y-92914412D01*
X112134249Y-92717802D01*
X110549322Y-91132875D01*
X110636925Y-91073667D01*
X110805906Y-90911712D01*
X110903419Y-90779866D01*
X112487802Y-92364249D01*
X112684412Y-92121456D01*
X112688229Y-92116202D01*
X112890198Y-91805197D01*
X112893444Y-91799576D01*
X113061803Y-91469153D01*
X113064440Y-91463229D01*
X113197341Y-91117011D01*
X113199340Y-91110859D01*
X113295323Y-90752643D01*
X113296671Y-90746300D01*
X113354684Y-90380024D01*
X113355361Y-90373581D01*
X113374770Y-90003243D01*
X113374770Y-89996756D01*
X113355361Y-89626418D01*
X113354684Y-89619975D01*
X113296671Y-89253699D01*
X113295323Y-89247356D01*
X113199340Y-88889140D01*
X113197341Y-88882988D01*
X113064440Y-88536770D01*
X113061803Y-88530846D01*
X112893444Y-88200423D01*
X112890198Y-88194802D01*
X112688229Y-87883797D01*
X112684412Y-87878543D01*
X112487801Y-87635750D01*
X110904124Y-89219427D01*
X110879493Y-89179423D01*
X110724856Y-89003722D01*
X110552164Y-88864283D01*
X111846447Y-87569999D01*
X117335036Y-87569999D01*
X117354861Y-87834542D01*
X117413894Y-88093182D01*
X117510813Y-88340126D01*
X117643456Y-88569871D01*
X117693642Y-88632803D01*
X117693643Y-88632803D01*
X118626923Y-87699523D01*
X118650507Y-87779844D01*
X118728239Y-87900798D01*
X118836900Y-87994952D01*
X118967685Y-88054680D01*
X118977466Y-88056086D01*
X118046438Y-88987112D01*
X118222521Y-89107163D01*
X118461533Y-89222265D01*
X118715034Y-89300461D01*
X118977356Y-89340000D01*
X119242644Y-89340000D01*
X119504965Y-89300461D01*
X119758469Y-89222265D01*
X119997481Y-89107163D01*
X120173560Y-88987112D01*
X119242533Y-88056086D01*
X119252315Y-88054680D01*
X119383100Y-87994952D01*
X119491761Y-87900798D01*
X119569493Y-87779844D01*
X119593076Y-87699524D01*
X120526355Y-88632803D01*
X120576543Y-88569870D01*
X120709186Y-88340126D01*
X120806105Y-88093182D01*
X120865138Y-87834542D01*
X120884963Y-87570000D01*
X135114534Y-87570000D01*
X135134364Y-87834616D01*
X135193414Y-88093329D01*
X135283326Y-88322421D01*
X135290361Y-88340345D01*
X135298040Y-88353645D01*
X135330659Y-88410144D01*
X135423042Y-88570155D01*
X135588492Y-88777623D01*
X135748764Y-88926333D01*
X135783018Y-88958116D01*
X136001630Y-89107163D01*
X136002268Y-89107598D01*
X136241350Y-89222734D01*
X136494922Y-89300950D01*
X136710748Y-89333480D01*
X136757318Y-89340500D01*
X136757319Y-89340500D01*
X137022682Y-89340500D01*
X137062232Y-89334538D01*
X137285078Y-89300950D01*
X137538650Y-89222734D01*
X137777733Y-89107598D01*
X137954452Y-88987112D01*
X137996986Y-88958113D01*
X138172493Y-88795266D01*
X138191508Y-88777623D01*
X138356958Y-88570155D01*
X138489639Y-88340345D01*
X138586586Y-88093327D01*
X138645635Y-87834619D01*
X138665465Y-87570000D01*
X138645635Y-87305381D01*
X138586586Y-87046673D01*
X138489639Y-86799655D01*
X138356958Y-86569845D01*
X138191508Y-86362377D01*
X138191504Y-86362373D01*
X137996986Y-86181886D01*
X137777732Y-86032401D01*
X137538650Y-85917266D01*
X137285079Y-85839050D01*
X137022682Y-85799500D01*
X137022681Y-85799500D01*
X136757319Y-85799500D01*
X136757318Y-85799500D01*
X136494920Y-85839050D01*
X136241351Y-85917265D01*
X136002265Y-86032403D01*
X135783018Y-86181883D01*
X135588492Y-86362377D01*
X135423041Y-86569845D01*
X135290360Y-86799656D01*
X135193414Y-87046670D01*
X135134364Y-87305383D01*
X135114534Y-87570000D01*
X120884963Y-87570000D01*
X120884963Y-87569999D01*
X120865138Y-87305457D01*
X120806105Y-87046817D01*
X120709186Y-86799873D01*
X120576543Y-86570128D01*
X120526355Y-86507195D01*
X119593076Y-87440474D01*
X119569493Y-87360156D01*
X119491761Y-87239202D01*
X119383100Y-87145048D01*
X119252315Y-87085320D01*
X119242534Y-87083913D01*
X120173560Y-86152886D01*
X119997481Y-86032836D01*
X119758469Y-85917734D01*
X119504965Y-85839538D01*
X119242644Y-85800000D01*
X118977356Y-85800000D01*
X118715034Y-85839538D01*
X118461533Y-85917734D01*
X118222518Y-86032837D01*
X118046438Y-86152886D01*
X118977466Y-87083913D01*
X118967685Y-87085320D01*
X118836900Y-87145048D01*
X118728239Y-87239202D01*
X118650507Y-87360156D01*
X118626923Y-87440476D01*
X117693643Y-86507196D01*
X117643455Y-86570130D01*
X117510813Y-86799873D01*
X117413894Y-87046817D01*
X117354861Y-87305457D01*
X117335036Y-87569999D01*
X111846447Y-87569999D01*
X112134249Y-87282197D01*
X111891456Y-87085587D01*
X111886202Y-87081770D01*
X111575197Y-86879801D01*
X111569576Y-86876555D01*
X111239153Y-86708196D01*
X111233229Y-86705559D01*
X110887011Y-86572658D01*
X110880859Y-86570659D01*
X110522643Y-86474676D01*
X110516300Y-86473328D01*
X110150024Y-86415315D01*
X110143581Y-86414638D01*
X109773244Y-86395230D01*
X109766756Y-86395230D01*
X109396418Y-86414638D01*
X109389975Y-86415315D01*
X109023699Y-86473328D01*
X109017356Y-86474676D01*
X108659140Y-86570659D01*
X108652988Y-86572658D01*
X108306770Y-86705559D01*
X108300846Y-86708196D01*
X107970423Y-86876555D01*
X107964802Y-86879801D01*
X107653797Y-87081770D01*
X107648543Y-87085587D01*
X107405750Y-87282197D01*
X108990677Y-88867124D01*
X108903075Y-88926333D01*
X108734094Y-89088288D01*
X108636580Y-89220133D01*
X107052197Y-87635750D01*
X106855587Y-87878543D01*
X106851770Y-87883797D01*
X106649801Y-88194802D01*
X106646555Y-88200423D01*
X106568485Y-88353645D01*
X106520510Y-88404441D01*
X106452689Y-88421236D01*
X106386554Y-88398698D01*
X106343103Y-88343983D01*
X106334000Y-88297350D01*
X106334000Y-33702649D01*
X106353685Y-33635610D01*
X106406489Y-33589855D01*
X106475647Y-33579911D01*
X106539203Y-33608936D01*
X106568485Y-33646354D01*
X106646555Y-33799576D01*
X106649801Y-33805197D01*
X106851770Y-34116202D01*
X106855587Y-34121456D01*
X107052197Y-34364248D01*
X108635874Y-32780571D01*
X108660507Y-32820577D01*
X108815144Y-32996278D01*
X108987835Y-33135716D01*
X107405750Y-34717801D01*
X107648543Y-34914412D01*
X107653797Y-34918229D01*
X107964802Y-35120198D01*
X107970423Y-35123444D01*
X108300846Y-35291803D01*
X108306770Y-35294440D01*
X108652988Y-35427341D01*
X108659140Y-35429340D01*
X109017356Y-35525323D01*
X109023699Y-35526671D01*
X109389975Y-35584684D01*
X109396418Y-35585361D01*
X109766756Y-35604770D01*
X109773244Y-35604770D01*
X110143581Y-35585361D01*
X110150024Y-35584684D01*
X110516300Y-35526671D01*
X110522643Y-35525323D01*
X110880859Y-35429340D01*
X110887011Y-35427341D01*
X111233229Y-35294440D01*
X111239153Y-35291803D01*
X111569576Y-35123444D01*
X111575197Y-35120198D01*
X111886202Y-34918229D01*
X111891456Y-34914412D01*
X112134249Y-34717802D01*
X110549322Y-33132875D01*
X110636925Y-33073667D01*
X110805906Y-32911712D01*
X110903419Y-32779866D01*
X112487802Y-34364249D01*
X112684412Y-34121456D01*
X112688229Y-34116202D01*
X112890198Y-33805197D01*
X112893444Y-33799576D01*
X113061803Y-33469153D01*
X113064440Y-33463229D01*
X113197341Y-33117011D01*
X113199340Y-33110859D01*
X113295323Y-32752643D01*
X113296671Y-32746300D01*
X113354684Y-32380024D01*
X113355361Y-32373581D01*
X113374770Y-32003243D01*
X113374770Y-31996756D01*
X113355361Y-31626418D01*
X113354684Y-31619975D01*
X113296671Y-31253699D01*
X113295323Y-31247356D01*
X113199340Y-30889140D01*
X113197341Y-30882988D01*
X113064440Y-30536770D01*
X113061803Y-30530846D01*
X112893444Y-30200423D01*
X112890198Y-30194802D01*
X112688229Y-29883797D01*
X112684412Y-29878543D01*
X112487801Y-29635750D01*
X110904124Y-31219427D01*
X110879493Y-31179423D01*
X110724856Y-31003722D01*
X110552163Y-30864282D01*
X112134248Y-29282197D01*
X111891456Y-29085587D01*
X111886202Y-29081770D01*
X111575197Y-28879801D01*
X111569576Y-28876555D01*
X111416354Y-28798485D01*
X111365558Y-28750510D01*
X111348763Y-28682690D01*
X111371300Y-28616555D01*
X111426015Y-28573103D01*
X111472649Y-28564000D01*
X157067351Y-28564000D01*
X157134390Y-28583685D01*
G37*
%TD.AperFunction*%
%TA.AperFunction,Conductor*%
G36*
X161487802Y-34364249D02*
G01*
X161684412Y-34121456D01*
X161688229Y-34116202D01*
X161890198Y-33805197D01*
X161893444Y-33799576D01*
X161971515Y-33646354D01*
X162019490Y-33595558D01*
X162087310Y-33578763D01*
X162153445Y-33601300D01*
X162196897Y-33656015D01*
X162206000Y-33702649D01*
X162206000Y-88297350D01*
X162186315Y-88364389D01*
X162133511Y-88410144D01*
X162064353Y-88420088D01*
X162000797Y-88391063D01*
X161971515Y-88353645D01*
X161893444Y-88200423D01*
X161890198Y-88194802D01*
X161688229Y-87883797D01*
X161684412Y-87878543D01*
X161487801Y-87635750D01*
X159904124Y-89219427D01*
X159879493Y-89179423D01*
X159724856Y-89003722D01*
X159552164Y-88864283D01*
X161134249Y-87282197D01*
X160891456Y-87085587D01*
X160886202Y-87081770D01*
X160575197Y-86879801D01*
X160569576Y-86876555D01*
X160239153Y-86708196D01*
X160233229Y-86705559D01*
X160044853Y-86633248D01*
X159989321Y-86590846D01*
X159965528Y-86525152D01*
X159981030Y-86457024D01*
X160030903Y-86408091D01*
X160078483Y-86393956D01*
X160260068Y-86378070D01*
X160473450Y-86320894D01*
X160673662Y-86227534D01*
X160854620Y-86100826D01*
X161010826Y-85944620D01*
X161137534Y-85763662D01*
X161230894Y-85563450D01*
X161288070Y-85350068D01*
X161307323Y-85130000D01*
X161288070Y-84909932D01*
X161230894Y-84696550D01*
X161137534Y-84496339D01*
X161010826Y-84315380D01*
X160854620Y-84159174D01*
X160673662Y-84032466D01*
X160544811Y-83972382D01*
X160492372Y-83926210D01*
X160473220Y-83859016D01*
X160493436Y-83792135D01*
X160544811Y-83747618D01*
X160550027Y-83745185D01*
X160673662Y-83687534D01*
X160854620Y-83560826D01*
X161010826Y-83404620D01*
X161137534Y-83223662D01*
X161230894Y-83023450D01*
X161288070Y-82810068D01*
X161307323Y-82590000D01*
X161288070Y-82369932D01*
X161230894Y-82156550D01*
X161137534Y-81956339D01*
X161010826Y-81775380D01*
X160854620Y-81619174D01*
X160673662Y-81492466D01*
X160544811Y-81432382D01*
X160492372Y-81386210D01*
X160473220Y-81319016D01*
X160493436Y-81252135D01*
X160544811Y-81207618D01*
X160550027Y-81205185D01*
X160673662Y-81147534D01*
X160854620Y-81020826D01*
X161010826Y-80864620D01*
X161137534Y-80683662D01*
X161230894Y-80483450D01*
X161288070Y-80270068D01*
X161307323Y-80050000D01*
X161288070Y-79829932D01*
X161230894Y-79616550D01*
X161137534Y-79416339D01*
X161010826Y-79235380D01*
X160854620Y-79079174D01*
X160673662Y-78952466D01*
X160544218Y-78892105D01*
X160491779Y-78845932D01*
X160472627Y-78778739D01*
X160492843Y-78711858D01*
X160544220Y-78667340D01*
X160673411Y-78607098D01*
X160738187Y-78561740D01*
X160179600Y-78003152D01*
X160184592Y-78002435D01*
X160317470Y-77941752D01*
X160427869Y-77846090D01*
X160506845Y-77723201D01*
X160529522Y-77645969D01*
X161091740Y-78208186D01*
X161137100Y-78143408D01*
X161230420Y-77943281D01*
X161287575Y-77729978D01*
X161306821Y-77510000D01*
X161287575Y-77290021D01*
X161230421Y-77076720D01*
X161137098Y-76876589D01*
X161091740Y-76811811D01*
X160529521Y-77374029D01*
X160506845Y-77296799D01*
X160427869Y-77173910D01*
X160317470Y-77078248D01*
X160184592Y-77017565D01*
X160179599Y-77016847D01*
X160738187Y-76458258D01*
X160673406Y-76412898D01*
X160544219Y-76352658D01*
X160491779Y-76306486D01*
X160472627Y-76239293D01*
X160492843Y-76172411D01*
X160544219Y-76127894D01*
X160599249Y-76102233D01*
X160673662Y-76067534D01*
X160854620Y-75940826D01*
X161010826Y-75784620D01*
X161137534Y-75603662D01*
X161230894Y-75403450D01*
X161288070Y-75190068D01*
X161307323Y-74970000D01*
X161288070Y-74749932D01*
X161230894Y-74536550D01*
X161137534Y-74336339D01*
X161010826Y-74155380D01*
X160854620Y-73999174D01*
X160673662Y-73872466D01*
X160544218Y-73812105D01*
X160491779Y-73765932D01*
X160472627Y-73698739D01*
X160492843Y-73631858D01*
X160544220Y-73587340D01*
X160673411Y-73527098D01*
X160738187Y-73481740D01*
X160179600Y-72923152D01*
X160184592Y-72922435D01*
X160317470Y-72861752D01*
X160427869Y-72766090D01*
X160506845Y-72643201D01*
X160529522Y-72565969D01*
X161091740Y-73128186D01*
X161137100Y-73063408D01*
X161230420Y-72863281D01*
X161287575Y-72649978D01*
X161306821Y-72430000D01*
X161287575Y-72210021D01*
X161230421Y-71996720D01*
X161137098Y-71796589D01*
X161091740Y-71731811D01*
X160529521Y-72294029D01*
X160506845Y-72216799D01*
X160427869Y-72093910D01*
X160317470Y-71998248D01*
X160184592Y-71937565D01*
X160179599Y-71936847D01*
X160738187Y-71378258D01*
X160673406Y-71332898D01*
X160544219Y-71272658D01*
X160491779Y-71226486D01*
X160472627Y-71159293D01*
X160492843Y-71092411D01*
X160544219Y-71047894D01*
X160544811Y-71047618D01*
X160673662Y-70987534D01*
X160854620Y-70860826D01*
X161010826Y-70704620D01*
X161137534Y-70523662D01*
X161230894Y-70323450D01*
X161288070Y-70110068D01*
X161307323Y-69890000D01*
X161288070Y-69669932D01*
X161230894Y-69456550D01*
X161137534Y-69256339D01*
X161010826Y-69075380D01*
X160854620Y-68919174D01*
X160673662Y-68792466D01*
X160544811Y-68732382D01*
X160492372Y-68686210D01*
X160473220Y-68619016D01*
X160493436Y-68552135D01*
X160544811Y-68507618D01*
X160550027Y-68505185D01*
X160673662Y-68447534D01*
X160854620Y-68320826D01*
X161010826Y-68164620D01*
X161137534Y-67983662D01*
X161230894Y-67783450D01*
X161288070Y-67570068D01*
X161307323Y-67350000D01*
X161288070Y-67129932D01*
X161230894Y-66916550D01*
X161137534Y-66716339D01*
X161010826Y-66535380D01*
X160854620Y-66379174D01*
X160673662Y-66252466D01*
X160544811Y-66192382D01*
X160492372Y-66146210D01*
X160473220Y-66079016D01*
X160493436Y-66012135D01*
X160544811Y-65967618D01*
X160566880Y-65957327D01*
X160673662Y-65907534D01*
X160854620Y-65780826D01*
X161010826Y-65624620D01*
X161137534Y-65443662D01*
X161230894Y-65243450D01*
X161288070Y-65030068D01*
X161307323Y-64810000D01*
X161288070Y-64589932D01*
X161230894Y-64376550D01*
X161137534Y-64176339D01*
X161010826Y-63995380D01*
X160854620Y-63839174D01*
X160673662Y-63712466D01*
X160544811Y-63652382D01*
X160492372Y-63606210D01*
X160473220Y-63539016D01*
X160493436Y-63472135D01*
X160544811Y-63427618D01*
X160550027Y-63425185D01*
X160673662Y-63367534D01*
X160854620Y-63240826D01*
X161010826Y-63084620D01*
X161137534Y-62903662D01*
X161230894Y-62703450D01*
X161288070Y-62490068D01*
X161307323Y-62270000D01*
X161288070Y-62049932D01*
X161230894Y-61836550D01*
X161137534Y-61636339D01*
X161010826Y-61455380D01*
X160854620Y-61299174D01*
X160673662Y-61172466D01*
X160673661Y-61172465D01*
X160544218Y-61112105D01*
X160491779Y-61065932D01*
X160472627Y-60998739D01*
X160492843Y-60931858D01*
X160544220Y-60887340D01*
X160673411Y-60827098D01*
X160738187Y-60781740D01*
X160179600Y-60223152D01*
X160184592Y-60222435D01*
X160317470Y-60161752D01*
X160427869Y-60066090D01*
X160506845Y-59943201D01*
X160529522Y-59865968D01*
X161091740Y-60428186D01*
X161137100Y-60363408D01*
X161230420Y-60163281D01*
X161287575Y-59949978D01*
X161306821Y-59729999D01*
X161287575Y-59510021D01*
X161230421Y-59296720D01*
X161137098Y-59096589D01*
X161091740Y-59031811D01*
X160529521Y-59594029D01*
X160506845Y-59516799D01*
X160427869Y-59393910D01*
X160317470Y-59298248D01*
X160184592Y-59237565D01*
X160179599Y-59236847D01*
X160738187Y-58678258D01*
X160673406Y-58632898D01*
X160544219Y-58572658D01*
X160491779Y-58526486D01*
X160472627Y-58459293D01*
X160492843Y-58392411D01*
X160544219Y-58347894D01*
X160590476Y-58326324D01*
X160673662Y-58287534D01*
X160854620Y-58160826D01*
X161010826Y-58004620D01*
X161137534Y-57823662D01*
X161230894Y-57623450D01*
X161288070Y-57410068D01*
X161307323Y-57190000D01*
X161288070Y-56969932D01*
X161230894Y-56756550D01*
X161137534Y-56556339D01*
X161010826Y-56375380D01*
X160854620Y-56219174D01*
X160673662Y-56092466D01*
X160544811Y-56032382D01*
X160492372Y-55986210D01*
X160473220Y-55919016D01*
X160493436Y-55852135D01*
X160544811Y-55807618D01*
X160551300Y-55804592D01*
X160673662Y-55747534D01*
X160854620Y-55620826D01*
X161010826Y-55464620D01*
X161137534Y-55283662D01*
X161230894Y-55083450D01*
X161288070Y-54870068D01*
X161307323Y-54650000D01*
X161288070Y-54429932D01*
X161230894Y-54216550D01*
X161137534Y-54016339D01*
X161010826Y-53835380D01*
X160854620Y-53679174D01*
X160673662Y-53552466D01*
X160673661Y-53552465D01*
X160544218Y-53492105D01*
X160491779Y-53445932D01*
X160472627Y-53378739D01*
X160492843Y-53311858D01*
X160544220Y-53267340D01*
X160673411Y-53207098D01*
X160738187Y-53161740D01*
X160179600Y-52603152D01*
X160184592Y-52602435D01*
X160317470Y-52541752D01*
X160427869Y-52446090D01*
X160506845Y-52323201D01*
X160529522Y-52245968D01*
X161091740Y-52808186D01*
X161137100Y-52743408D01*
X161230420Y-52543281D01*
X161287575Y-52329978D01*
X161306821Y-52109999D01*
X161287575Y-51890021D01*
X161230421Y-51676720D01*
X161137098Y-51476589D01*
X161091740Y-51411811D01*
X160529521Y-51974029D01*
X160506845Y-51896799D01*
X160427869Y-51773910D01*
X160317470Y-51678248D01*
X160184592Y-51617565D01*
X160179599Y-51616847D01*
X160738187Y-51058258D01*
X160673406Y-51012898D01*
X160544219Y-50952658D01*
X160491779Y-50906486D01*
X160472627Y-50839293D01*
X160492843Y-50772411D01*
X160544219Y-50727894D01*
X160575104Y-50713492D01*
X160673662Y-50667534D01*
X160854620Y-50540826D01*
X161010826Y-50384620D01*
X161137534Y-50203662D01*
X161230894Y-50003450D01*
X161288070Y-49790068D01*
X161307323Y-49570000D01*
X161288070Y-49349932D01*
X161230894Y-49136550D01*
X161137534Y-48936339D01*
X161010826Y-48755380D01*
X160854620Y-48599174D01*
X160673662Y-48472466D01*
X160544811Y-48412382D01*
X160492372Y-48366210D01*
X160473220Y-48299016D01*
X160493436Y-48232135D01*
X160544811Y-48187618D01*
X160550027Y-48185185D01*
X160673662Y-48127534D01*
X160854620Y-48000826D01*
X161010826Y-47844620D01*
X161137534Y-47663662D01*
X161230894Y-47463450D01*
X161288070Y-47250068D01*
X161307323Y-47030000D01*
X161288070Y-46809932D01*
X161230894Y-46596550D01*
X161137534Y-46396339D01*
X161010826Y-46215380D01*
X160854620Y-46059174D01*
X160673662Y-45932466D01*
X160635981Y-45914895D01*
X160544811Y-45872381D01*
X160492372Y-45826208D01*
X160473220Y-45759015D01*
X160493436Y-45692133D01*
X160544810Y-45647618D01*
X160673662Y-45587534D01*
X160854620Y-45460826D01*
X161010826Y-45304620D01*
X161137534Y-45123662D01*
X161230894Y-44923450D01*
X161288070Y-44710068D01*
X161307323Y-44490000D01*
X161288070Y-44269932D01*
X161230894Y-44056550D01*
X161137534Y-43856339D01*
X161010826Y-43675380D01*
X160854620Y-43519174D01*
X160673662Y-43392466D01*
X160673661Y-43392465D01*
X160544218Y-43332105D01*
X160491779Y-43285932D01*
X160472627Y-43218739D01*
X160492843Y-43151858D01*
X160544220Y-43107340D01*
X160673411Y-43047098D01*
X160738187Y-43001740D01*
X160179600Y-42443152D01*
X160184592Y-42442435D01*
X160317470Y-42381752D01*
X160427869Y-42286090D01*
X160506845Y-42163201D01*
X160529522Y-42085969D01*
X161091740Y-42648186D01*
X161137100Y-42583408D01*
X161230420Y-42383281D01*
X161287575Y-42169978D01*
X161306821Y-41950000D01*
X161287575Y-41730021D01*
X161230421Y-41516720D01*
X161137098Y-41316589D01*
X161091740Y-41251811D01*
X160529521Y-41814029D01*
X160506845Y-41736799D01*
X160427869Y-41613910D01*
X160317470Y-41518248D01*
X160184592Y-41457565D01*
X160179599Y-41456847D01*
X160738187Y-40898258D01*
X160673406Y-40852898D01*
X160544219Y-40792658D01*
X160491779Y-40746486D01*
X160472627Y-40679293D01*
X160492843Y-40612411D01*
X160544219Y-40567894D01*
X160544811Y-40567618D01*
X160673662Y-40507534D01*
X160854620Y-40380826D01*
X161010826Y-40224620D01*
X161137534Y-40043662D01*
X161230894Y-39843450D01*
X161288070Y-39630068D01*
X161307323Y-39410000D01*
X161288070Y-39189932D01*
X161230894Y-38976550D01*
X161137534Y-38776339D01*
X161010826Y-38595380D01*
X160854620Y-38439174D01*
X160673662Y-38312466D01*
X160544811Y-38252382D01*
X160492372Y-38206210D01*
X160473220Y-38139016D01*
X160493436Y-38072135D01*
X160544811Y-38027618D01*
X160550027Y-38025185D01*
X160673662Y-37967534D01*
X160854620Y-37840826D01*
X161010826Y-37684620D01*
X161137534Y-37503662D01*
X161230894Y-37303450D01*
X161288070Y-37090068D01*
X161307323Y-36870000D01*
X161288070Y-36649932D01*
X161230894Y-36436550D01*
X161137534Y-36236339D01*
X161010826Y-36055380D01*
X160854620Y-35899174D01*
X160673662Y-35772466D01*
X160598306Y-35737327D01*
X160473451Y-35679106D01*
X160260065Y-35621929D01*
X160078484Y-35606043D01*
X160013415Y-35580591D01*
X159972436Y-35524000D01*
X159968558Y-35454238D01*
X160003012Y-35393454D01*
X160044854Y-35366751D01*
X160233223Y-35294443D01*
X160239153Y-35291803D01*
X160569576Y-35123444D01*
X160575197Y-35120198D01*
X160886202Y-34918229D01*
X160891456Y-34914412D01*
X161134249Y-34717802D01*
X161134249Y-34717801D01*
X159549323Y-33132875D01*
X159636925Y-33073667D01*
X159805906Y-32911712D01*
X159903419Y-32779866D01*
X161487802Y-34364249D01*
G37*
%TD.AperFunction*%
%TA.AperFunction,Conductor*%
G36*
X158551740Y-85828186D02*
G01*
X158597098Y-85763411D01*
X158657340Y-85634220D01*
X158703512Y-85581780D01*
X158770705Y-85562627D01*
X158837587Y-85582842D01*
X158882105Y-85634218D01*
X158882106Y-85634220D01*
X158942466Y-85763662D01*
X159069174Y-85944620D01*
X159225380Y-86100826D01*
X159341142Y-86181883D01*
X159387868Y-86214601D01*
X159431493Y-86269178D01*
X159438687Y-86338676D01*
X159407164Y-86401031D01*
X159346934Y-86436445D01*
X159297347Y-86438649D01*
X159150024Y-86415315D01*
X159143581Y-86414638D01*
X158773244Y-86395230D01*
X158766756Y-86395230D01*
X158396418Y-86414638D01*
X158389975Y-86415315D01*
X158241525Y-86438828D01*
X158172231Y-86429873D01*
X158118780Y-86384877D01*
X158098140Y-86318126D01*
X158116865Y-86250812D01*
X158151002Y-86214781D01*
X158198187Y-86181740D01*
X157639600Y-85623152D01*
X157644592Y-85622435D01*
X157777470Y-85561752D01*
X157887869Y-85466090D01*
X157966845Y-85343201D01*
X157989522Y-85265969D01*
X158551740Y-85828186D01*
G37*
%TD.AperFunction*%
%TA.AperFunction,Conductor*%
G36*
X158837865Y-83043436D02*
G01*
X158882382Y-83094811D01*
X158942466Y-83223662D01*
X159069174Y-83404620D01*
X159225380Y-83560826D01*
X159406338Y-83687534D01*
X159525748Y-83743215D01*
X159535189Y-83747618D01*
X159587628Y-83793790D01*
X159606780Y-83860984D01*
X159586564Y-83927865D01*
X159535189Y-83972382D01*
X159406338Y-84032466D01*
X159225379Y-84159174D01*
X159069174Y-84315379D01*
X158942467Y-84496336D01*
X158882105Y-84625782D01*
X158835932Y-84678221D01*
X158768738Y-84697372D01*
X158701857Y-84677156D01*
X158657341Y-84625780D01*
X158597099Y-84496590D01*
X158551740Y-84431811D01*
X157989521Y-84994029D01*
X157966845Y-84916799D01*
X157887869Y-84793910D01*
X157777470Y-84698248D01*
X157644592Y-84637565D01*
X157639599Y-84636847D01*
X158198187Y-84078258D01*
X158133406Y-84032898D01*
X158004219Y-83972658D01*
X157951779Y-83926486D01*
X157932627Y-83859293D01*
X157952843Y-83792411D01*
X158004219Y-83747894D01*
X158004811Y-83747618D01*
X158133662Y-83687534D01*
X158314620Y-83560826D01*
X158470826Y-83404620D01*
X158597534Y-83223662D01*
X158657617Y-83094811D01*
X158703790Y-83042372D01*
X158770984Y-83023220D01*
X158837865Y-83043436D01*
G37*
%TD.AperFunction*%
%TA.AperFunction,Conductor*%
G36*
X159573155Y-77723201D02*
G01*
X159652131Y-77846090D01*
X159762530Y-77941752D01*
X159895408Y-78002435D01*
X159900400Y-78003152D01*
X159341812Y-78561740D01*
X159406592Y-78607100D01*
X159535780Y-78667341D01*
X159588220Y-78713513D01*
X159607372Y-78780706D01*
X159587157Y-78847587D01*
X159535782Y-78892105D01*
X159406336Y-78952467D01*
X159225379Y-79079174D01*
X159069174Y-79235379D01*
X158942466Y-79416338D01*
X158882382Y-79545189D01*
X158836209Y-79597628D01*
X158769016Y-79616780D01*
X158702135Y-79596564D01*
X158657618Y-79545189D01*
X158618775Y-79461890D01*
X158597534Y-79416339D01*
X158470826Y-79235380D01*
X158314620Y-79079174D01*
X158133662Y-78952466D01*
X158004811Y-78892382D01*
X157952372Y-78846210D01*
X157933220Y-78779016D01*
X157953436Y-78712135D01*
X158004811Y-78667618D01*
X158010027Y-78665185D01*
X158133662Y-78607534D01*
X158314620Y-78480826D01*
X158470826Y-78324620D01*
X158597534Y-78143662D01*
X158657894Y-78014218D01*
X158704066Y-77961779D01*
X158771259Y-77942627D01*
X158838141Y-77962842D01*
X158882658Y-78014219D01*
X158942898Y-78143406D01*
X158988258Y-78208187D01*
X159550477Y-77645968D01*
X159573155Y-77723201D01*
G37*
%TD.AperFunction*%
%TA.AperFunction,Conductor*%
G36*
X158837865Y-75423436D02*
G01*
X158882382Y-75474811D01*
X158942466Y-75603662D01*
X159069174Y-75784620D01*
X159225380Y-75940826D01*
X159406338Y-76067534D01*
X159419405Y-76073627D01*
X159535780Y-76127894D01*
X159588219Y-76174066D01*
X159607371Y-76241260D01*
X159587155Y-76308141D01*
X159535780Y-76352658D01*
X159406589Y-76412900D01*
X159341812Y-76458258D01*
X159341811Y-76458258D01*
X159900400Y-77016847D01*
X159895408Y-77017565D01*
X159762530Y-77078248D01*
X159652131Y-77173910D01*
X159573155Y-77296799D01*
X159550477Y-77374030D01*
X158988258Y-76811812D01*
X158942900Y-76876590D01*
X158882657Y-77005781D01*
X158836484Y-77058220D01*
X158769291Y-77077372D01*
X158702409Y-77057156D01*
X158657893Y-77005780D01*
X158656130Y-77002000D01*
X158597534Y-76876339D01*
X158470826Y-76695380D01*
X158314620Y-76539174D01*
X158133662Y-76412466D01*
X158024193Y-76361420D01*
X158004811Y-76352382D01*
X157952372Y-76306210D01*
X157933220Y-76239016D01*
X157953436Y-76172135D01*
X158004811Y-76127618D01*
X158059249Y-76102233D01*
X158133662Y-76067534D01*
X158314620Y-75940826D01*
X158470826Y-75784620D01*
X158597534Y-75603662D01*
X158657617Y-75474811D01*
X158703790Y-75422372D01*
X158770984Y-75403220D01*
X158837865Y-75423436D01*
G37*
%TD.AperFunction*%
%TA.AperFunction,Conductor*%
G36*
X159573155Y-72643201D02*
G01*
X159652131Y-72766090D01*
X159762530Y-72861752D01*
X159895408Y-72922435D01*
X159900400Y-72923152D01*
X159341812Y-73481740D01*
X159406592Y-73527100D01*
X159535780Y-73587341D01*
X159588220Y-73633513D01*
X159607372Y-73700706D01*
X159587157Y-73767587D01*
X159535782Y-73812105D01*
X159406336Y-73872467D01*
X159225379Y-73999174D01*
X159069174Y-74155379D01*
X158942466Y-74336338D01*
X158882382Y-74465189D01*
X158836209Y-74517628D01*
X158769016Y-74536780D01*
X158702135Y-74516564D01*
X158657618Y-74465189D01*
X158640744Y-74429004D01*
X158597534Y-74336339D01*
X158470826Y-74155380D01*
X158314620Y-73999174D01*
X158133662Y-73872466D01*
X158004811Y-73812382D01*
X157952372Y-73766210D01*
X157933220Y-73699016D01*
X157953436Y-73632135D01*
X158004811Y-73587618D01*
X158021911Y-73579644D01*
X158133662Y-73527534D01*
X158314620Y-73400826D01*
X158470826Y-73244620D01*
X158597534Y-73063662D01*
X158657894Y-72934218D01*
X158704066Y-72881779D01*
X158771259Y-72862627D01*
X158838141Y-72882842D01*
X158882658Y-72934219D01*
X158942898Y-73063406D01*
X158988258Y-73128187D01*
X159550477Y-72565968D01*
X159573155Y-72643201D01*
G37*
%TD.AperFunction*%
%TA.AperFunction,Conductor*%
G36*
X158837865Y-70343436D02*
G01*
X158882382Y-70394811D01*
X158942466Y-70523662D01*
X159069174Y-70704620D01*
X159225380Y-70860826D01*
X159406338Y-70987534D01*
X159476173Y-71020098D01*
X159535780Y-71047894D01*
X159588219Y-71094066D01*
X159607371Y-71161260D01*
X159587155Y-71228141D01*
X159535780Y-71272658D01*
X159406589Y-71332900D01*
X159341812Y-71378258D01*
X159341811Y-71378258D01*
X159900400Y-71936847D01*
X159895408Y-71937565D01*
X159762530Y-71998248D01*
X159652131Y-72093910D01*
X159573155Y-72216799D01*
X159550477Y-72294030D01*
X158988258Y-71731811D01*
X158988258Y-71731812D01*
X158942900Y-71796590D01*
X158882657Y-71925781D01*
X158836484Y-71978220D01*
X158769291Y-71997372D01*
X158702409Y-71977156D01*
X158657893Y-71925780D01*
X158656130Y-71922000D01*
X158597534Y-71796339D01*
X158470826Y-71615380D01*
X158314620Y-71459174D01*
X158133662Y-71332466D01*
X158004811Y-71272382D01*
X157952372Y-71226210D01*
X157933220Y-71159016D01*
X157953436Y-71092135D01*
X158004811Y-71047618D01*
X158010027Y-71045185D01*
X158133662Y-70987534D01*
X158314620Y-70860826D01*
X158470826Y-70704620D01*
X158597534Y-70523662D01*
X158657617Y-70394811D01*
X158703790Y-70342372D01*
X158770984Y-70323220D01*
X158837865Y-70343436D01*
G37*
%TD.AperFunction*%
%TA.AperFunction,Conductor*%
G36*
X158551740Y-68048186D02*
G01*
X158597098Y-67983411D01*
X158657340Y-67854220D01*
X158703512Y-67801780D01*
X158770705Y-67782627D01*
X158837587Y-67802842D01*
X158882105Y-67854218D01*
X158932314Y-67961890D01*
X158942466Y-67983662D01*
X159069174Y-68164620D01*
X159225380Y-68320826D01*
X159406338Y-68447534D01*
X159525748Y-68503215D01*
X159535189Y-68507618D01*
X159587628Y-68553790D01*
X159606780Y-68620984D01*
X159586564Y-68687865D01*
X159535189Y-68732382D01*
X159406338Y-68792466D01*
X159225379Y-68919174D01*
X159069174Y-69075379D01*
X158942466Y-69256338D01*
X158882382Y-69385189D01*
X158836209Y-69437628D01*
X158769016Y-69456780D01*
X158702135Y-69436564D01*
X158657618Y-69385189D01*
X158624542Y-69314258D01*
X158597534Y-69256339D01*
X158470826Y-69075380D01*
X158314620Y-68919174D01*
X158133662Y-68792466D01*
X158004218Y-68732105D01*
X157951779Y-68685932D01*
X157932627Y-68618739D01*
X157952843Y-68551858D01*
X158004220Y-68507340D01*
X158133411Y-68447098D01*
X158198187Y-68401740D01*
X157639600Y-67843152D01*
X157644592Y-67842435D01*
X157777470Y-67781752D01*
X157887869Y-67686090D01*
X157966845Y-67563201D01*
X157989522Y-67485969D01*
X158551740Y-68048186D01*
G37*
%TD.AperFunction*%
%TA.AperFunction,Conductor*%
G36*
X158837865Y-65263436D02*
G01*
X158882382Y-65314811D01*
X158942466Y-65443662D01*
X159069174Y-65624620D01*
X159225380Y-65780826D01*
X159406338Y-65907534D01*
X159513120Y-65957327D01*
X159535189Y-65967618D01*
X159587628Y-66013790D01*
X159606780Y-66080984D01*
X159586564Y-66147865D01*
X159535189Y-66192382D01*
X159406338Y-66252466D01*
X159225379Y-66379174D01*
X159069174Y-66535379D01*
X158942467Y-66716336D01*
X158882105Y-66845782D01*
X158835932Y-66898221D01*
X158768738Y-66917372D01*
X158701857Y-66897156D01*
X158657341Y-66845780D01*
X158597099Y-66716590D01*
X158551740Y-66651811D01*
X157989521Y-67214029D01*
X157966845Y-67136799D01*
X157887869Y-67013910D01*
X157777470Y-66918248D01*
X157644592Y-66857565D01*
X157639599Y-66856847D01*
X158198187Y-66298258D01*
X158133406Y-66252898D01*
X158004219Y-66192658D01*
X157951779Y-66146486D01*
X157932627Y-66079293D01*
X157952843Y-66012411D01*
X158004219Y-65967894D01*
X158026880Y-65957327D01*
X158133662Y-65907534D01*
X158314620Y-65780826D01*
X158470826Y-65624620D01*
X158597534Y-65443662D01*
X158657617Y-65314811D01*
X158703790Y-65262372D01*
X158770984Y-65243220D01*
X158837865Y-65263436D01*
G37*
%TD.AperFunction*%
%TA.AperFunction,Conductor*%
G36*
X159573155Y-59943201D02*
G01*
X159652131Y-60066090D01*
X159762530Y-60161752D01*
X159895408Y-60222435D01*
X159900400Y-60223152D01*
X159341812Y-60781740D01*
X159406592Y-60827100D01*
X159535780Y-60887341D01*
X159588220Y-60933513D01*
X159607372Y-61000706D01*
X159587157Y-61067587D01*
X159535782Y-61112105D01*
X159406336Y-61172467D01*
X159225379Y-61299174D01*
X159069174Y-61455379D01*
X158942466Y-61636338D01*
X158882382Y-61765189D01*
X158836209Y-61817628D01*
X158769016Y-61836780D01*
X158702135Y-61816564D01*
X158657618Y-61765189D01*
X158603051Y-61648171D01*
X158597534Y-61636339D01*
X158470826Y-61455380D01*
X158314620Y-61299174D01*
X158133662Y-61172466D01*
X158004811Y-61112382D01*
X157952372Y-61066210D01*
X157933220Y-60999016D01*
X157953436Y-60932135D01*
X158004811Y-60887618D01*
X158010027Y-60885185D01*
X158133662Y-60827534D01*
X158314620Y-60700826D01*
X158470826Y-60544620D01*
X158597534Y-60363662D01*
X158657894Y-60234218D01*
X158704066Y-60181779D01*
X158771259Y-60162627D01*
X158838141Y-60182842D01*
X158882658Y-60234219D01*
X158942898Y-60363406D01*
X158988258Y-60428187D01*
X159550477Y-59865968D01*
X159573155Y-59943201D01*
G37*
%TD.AperFunction*%
%TA.AperFunction,Conductor*%
G36*
X158837865Y-57643436D02*
G01*
X158882382Y-57694811D01*
X158889675Y-57710451D01*
X158942466Y-57823662D01*
X159069174Y-58004620D01*
X159225380Y-58160826D01*
X159406338Y-58287534D01*
X159476173Y-58320098D01*
X159535780Y-58347894D01*
X159588219Y-58394066D01*
X159607371Y-58461260D01*
X159587155Y-58528141D01*
X159535780Y-58572658D01*
X159406589Y-58632900D01*
X159341812Y-58678258D01*
X159341811Y-58678258D01*
X159900400Y-59236847D01*
X159895408Y-59237565D01*
X159762530Y-59298248D01*
X159652131Y-59393910D01*
X159573155Y-59516799D01*
X159550477Y-59594030D01*
X158988258Y-59031811D01*
X158988258Y-59031812D01*
X158942900Y-59096590D01*
X158882657Y-59225781D01*
X158836484Y-59278220D01*
X158769291Y-59297372D01*
X158702409Y-59277156D01*
X158657893Y-59225780D01*
X158656130Y-59222000D01*
X158597534Y-59096339D01*
X158470826Y-58915380D01*
X158314620Y-58759174D01*
X158133662Y-58632466D01*
X158004811Y-58572382D01*
X157952372Y-58526210D01*
X157933220Y-58459016D01*
X157953436Y-58392135D01*
X158004811Y-58347618D01*
X158050476Y-58326324D01*
X158133662Y-58287534D01*
X158314620Y-58160826D01*
X158470826Y-58004620D01*
X158597534Y-57823662D01*
X158657617Y-57694811D01*
X158703790Y-57642372D01*
X158770984Y-57623220D01*
X158837865Y-57643436D01*
G37*
%TD.AperFunction*%
%TA.AperFunction,Conductor*%
G36*
X159573155Y-52323201D02*
G01*
X159652131Y-52446090D01*
X159762530Y-52541752D01*
X159895408Y-52602435D01*
X159900400Y-52603152D01*
X159341812Y-53161740D01*
X159406592Y-53207100D01*
X159535780Y-53267341D01*
X159588220Y-53313513D01*
X159607372Y-53380706D01*
X159587157Y-53447587D01*
X159535782Y-53492105D01*
X159406336Y-53552467D01*
X159225379Y-53679174D01*
X159069174Y-53835379D01*
X158942466Y-54016338D01*
X158882382Y-54145189D01*
X158836209Y-54197628D01*
X158769016Y-54216780D01*
X158702135Y-54196564D01*
X158657618Y-54145189D01*
X158625338Y-54075965D01*
X158597534Y-54016339D01*
X158470826Y-53835380D01*
X158314620Y-53679174D01*
X158133662Y-53552466D01*
X158004811Y-53492382D01*
X157952372Y-53446210D01*
X157933220Y-53379016D01*
X157953436Y-53312135D01*
X158004811Y-53267618D01*
X158011300Y-53264592D01*
X158133662Y-53207534D01*
X158314620Y-53080826D01*
X158470826Y-52924620D01*
X158597534Y-52743662D01*
X158657894Y-52614218D01*
X158704066Y-52561779D01*
X158771259Y-52542627D01*
X158838141Y-52562842D01*
X158882658Y-52614219D01*
X158942898Y-52743406D01*
X158988258Y-52808187D01*
X159550477Y-52245968D01*
X159573155Y-52323201D01*
G37*
%TD.AperFunction*%
%TA.AperFunction,Conductor*%
G36*
X158837865Y-50023436D02*
G01*
X158882382Y-50074811D01*
X158942466Y-50203662D01*
X159069174Y-50384620D01*
X159225380Y-50540826D01*
X159406338Y-50667534D01*
X159476173Y-50700098D01*
X159535780Y-50727894D01*
X159588219Y-50774066D01*
X159607371Y-50841260D01*
X159587155Y-50908141D01*
X159535780Y-50952658D01*
X159406589Y-51012900D01*
X159341812Y-51058258D01*
X159341811Y-51058258D01*
X159900400Y-51616847D01*
X159895408Y-51617565D01*
X159762530Y-51678248D01*
X159652131Y-51773910D01*
X159573155Y-51896799D01*
X159550477Y-51974030D01*
X158988258Y-51411811D01*
X158988258Y-51411812D01*
X158942900Y-51476590D01*
X158882657Y-51605781D01*
X158836484Y-51658220D01*
X158769291Y-51677372D01*
X158702409Y-51657156D01*
X158657893Y-51605780D01*
X158656130Y-51602000D01*
X158597534Y-51476339D01*
X158470826Y-51295380D01*
X158314620Y-51139174D01*
X158133662Y-51012466D01*
X158004811Y-50952382D01*
X157952372Y-50906210D01*
X157933220Y-50839016D01*
X157953436Y-50772135D01*
X158004811Y-50727618D01*
X158035104Y-50713492D01*
X158133662Y-50667534D01*
X158314620Y-50540826D01*
X158470826Y-50384620D01*
X158597534Y-50203662D01*
X158657617Y-50074811D01*
X158703790Y-50022372D01*
X158770984Y-50003220D01*
X158837865Y-50023436D01*
G37*
%TD.AperFunction*%
%TA.AperFunction,Conductor*%
G36*
X158551740Y-47728186D02*
G01*
X158597098Y-47663411D01*
X158657340Y-47534220D01*
X158703512Y-47481780D01*
X158770705Y-47462627D01*
X158837587Y-47482842D01*
X158882105Y-47534218D01*
X158942347Y-47663406D01*
X158942466Y-47663662D01*
X159069174Y-47844620D01*
X159225380Y-48000826D01*
X159406338Y-48127534D01*
X159525748Y-48183215D01*
X159535189Y-48187618D01*
X159587628Y-48233790D01*
X159606780Y-48300984D01*
X159586564Y-48367865D01*
X159535189Y-48412382D01*
X159406338Y-48472466D01*
X159225379Y-48599174D01*
X159069174Y-48755379D01*
X158942466Y-48936338D01*
X158882382Y-49065189D01*
X158836209Y-49117628D01*
X158769016Y-49136780D01*
X158702135Y-49116564D01*
X158657618Y-49065189D01*
X158605446Y-48953307D01*
X158597534Y-48936339D01*
X158470826Y-48755380D01*
X158314620Y-48599174D01*
X158133662Y-48472466D01*
X158122290Y-48467163D01*
X158004218Y-48412105D01*
X157951779Y-48365932D01*
X157932627Y-48298739D01*
X157952843Y-48231858D01*
X158004220Y-48187340D01*
X158133411Y-48127098D01*
X158198187Y-48081740D01*
X157639600Y-47523152D01*
X157644592Y-47522435D01*
X157777470Y-47461752D01*
X157887869Y-47366090D01*
X157966845Y-47243201D01*
X157989522Y-47165969D01*
X158551740Y-47728186D01*
G37*
%TD.AperFunction*%
%TA.AperFunction,Conductor*%
G36*
X158837865Y-44943436D02*
G01*
X158882382Y-44994811D01*
X158942466Y-45123662D01*
X159069174Y-45304620D01*
X159225380Y-45460826D01*
X159406338Y-45587534D01*
X159525748Y-45643215D01*
X159535189Y-45647618D01*
X159587628Y-45693790D01*
X159606780Y-45760984D01*
X159586564Y-45827865D01*
X159535189Y-45872382D01*
X159406338Y-45932466D01*
X159225379Y-46059174D01*
X159069174Y-46215379D01*
X158942467Y-46396336D01*
X158882105Y-46525782D01*
X158835932Y-46578221D01*
X158768738Y-46597372D01*
X158701857Y-46577156D01*
X158657341Y-46525780D01*
X158597099Y-46396590D01*
X158551740Y-46331811D01*
X157989521Y-46894029D01*
X157966845Y-46816799D01*
X157887869Y-46693910D01*
X157777470Y-46598248D01*
X157644592Y-46537565D01*
X157639599Y-46536847D01*
X158198187Y-45978258D01*
X158133406Y-45932898D01*
X158004219Y-45872658D01*
X157951779Y-45826486D01*
X157932627Y-45759293D01*
X157952843Y-45692411D01*
X158004219Y-45647894D01*
X158004813Y-45647617D01*
X158133662Y-45587534D01*
X158314620Y-45460826D01*
X158470826Y-45304620D01*
X158597534Y-45123662D01*
X158657617Y-44994811D01*
X158703790Y-44942372D01*
X158770984Y-44923220D01*
X158837865Y-44943436D01*
G37*
%TD.AperFunction*%
%TA.AperFunction,Conductor*%
G36*
X159573155Y-42163201D02*
G01*
X159652131Y-42286090D01*
X159762530Y-42381752D01*
X159895408Y-42442435D01*
X159900400Y-42443152D01*
X159341812Y-43001740D01*
X159406592Y-43047100D01*
X159535780Y-43107341D01*
X159588220Y-43153513D01*
X159607372Y-43220706D01*
X159587157Y-43287587D01*
X159535782Y-43332105D01*
X159406336Y-43392467D01*
X159225379Y-43519174D01*
X159069174Y-43675379D01*
X158942466Y-43856338D01*
X158882382Y-43985189D01*
X158836209Y-44037628D01*
X158769016Y-44056780D01*
X158702135Y-44036564D01*
X158657618Y-43985189D01*
X158633961Y-43934457D01*
X158597534Y-43856339D01*
X158470826Y-43675380D01*
X158314620Y-43519174D01*
X158133662Y-43392466D01*
X158004811Y-43332382D01*
X157952372Y-43286210D01*
X157933220Y-43219016D01*
X157953436Y-43152135D01*
X158004811Y-43107618D01*
X158010027Y-43105185D01*
X158133662Y-43047534D01*
X158314620Y-42920826D01*
X158470826Y-42764620D01*
X158597534Y-42583662D01*
X158657894Y-42454218D01*
X158704066Y-42401779D01*
X158771259Y-42382627D01*
X158838141Y-42402842D01*
X158882658Y-42454219D01*
X158942898Y-42583406D01*
X158988258Y-42648187D01*
X159550477Y-42085968D01*
X159573155Y-42163201D01*
G37*
%TD.AperFunction*%
%TA.AperFunction,Conductor*%
G36*
X158837865Y-39863436D02*
G01*
X158882382Y-39914811D01*
X158942466Y-40043662D01*
X159069174Y-40224620D01*
X159225380Y-40380826D01*
X159406338Y-40507534D01*
X159476173Y-40540098D01*
X159535780Y-40567894D01*
X159588219Y-40614066D01*
X159607371Y-40681260D01*
X159587155Y-40748141D01*
X159535780Y-40792658D01*
X159406589Y-40852900D01*
X159341812Y-40898258D01*
X159341811Y-40898258D01*
X159900400Y-41456847D01*
X159895408Y-41457565D01*
X159762530Y-41518248D01*
X159652131Y-41613910D01*
X159573155Y-41736799D01*
X159550477Y-41814030D01*
X158988258Y-41251811D01*
X158988258Y-41251812D01*
X158942900Y-41316590D01*
X158882657Y-41445781D01*
X158836484Y-41498220D01*
X158769291Y-41517372D01*
X158702409Y-41497156D01*
X158657893Y-41445780D01*
X158656130Y-41442000D01*
X158597534Y-41316339D01*
X158470826Y-41135380D01*
X158314620Y-40979174D01*
X158133662Y-40852466D01*
X158004811Y-40792382D01*
X157952372Y-40746210D01*
X157933220Y-40679016D01*
X157953436Y-40612135D01*
X158004811Y-40567618D01*
X158010027Y-40565185D01*
X158133662Y-40507534D01*
X158314620Y-40380826D01*
X158470826Y-40224620D01*
X158597534Y-40043662D01*
X158657617Y-39914811D01*
X158703790Y-39862372D01*
X158770984Y-39843220D01*
X158837865Y-39863436D01*
G37*
%TD.AperFunction*%
%TD*%
M02*
