M48
; DRILL file {KiCad 7.0.2} date Wed Feb 14 23:55:21 2024
; FORMAT={-:-/ absolute / inch / decimal}
; #@! TF.CreationDate,2024-02-14T23:55:21+01:00
; #@! TF.GenerationSoftware,Kicad,Pcbnew,7.0.2
; #@! TF.FileFunction,Plated,1,2,PTH
FMAT,2
INCH
; #@! TA.AperFunction,Plated,PTH,ComponentDrill
T1C0.0374
; #@! TA.AperFunction,Plated,PTH,ComponentDrill
T2C0.0394
; #@! TA.AperFunction,Plated,PTH,ComponentDrill
T3C0.0400
; #@! TA.AperFunction,Plated,PTH,ComponentDrill
T4C0.0669
; #@! TA.AperFunction,Plated,PTH,ComponentDrill
T5C0.1083
%
G90
G05
T1
X4.3514Y-2.5197
X4.3514Y-2.6181
X4.3514Y-2.7165
X4.3514Y-2.9724
X4.3514Y-3.0709
X4.3514Y-3.1693
X4.3524Y-1.6142
X4.3524Y-1.7126
X4.3524Y-1.811
X4.3524Y-2.0669
X4.3524Y-2.1654
X4.3524Y-2.2638
X4.6457Y-1.3002
X4.7441Y-1.3002
X4.8425Y-1.3002
X5.9439Y-1.8799
X5.9439Y-1.9783
X5.9439Y-2.0768
X5.9439Y-2.1752
X5.9439Y-2.2736
T2
X4.6894Y-1.8476
X4.6894Y-3.4476
X5.3894Y-1.8476
X5.3894Y-3.4476
X5.748Y-2.0063
X5.748Y-2.1063
X5.748Y-2.2063
X5.8252Y-3.5039
X5.9252Y-3.5039
T3
X6.2008Y-1.4516
X6.2008Y-1.5516
X6.2008Y-1.6516
X6.2008Y-1.7516
X6.2008Y-1.8516
X6.2008Y-1.9516
X6.2008Y-2.0516
X6.2008Y-2.1516
X6.2008Y-2.2516
X6.2008Y-2.3516
X6.2008Y-2.4516
X6.2008Y-2.5516
X6.2008Y-2.6516
X6.2008Y-2.7516
X6.2008Y-2.8516
X6.2008Y-2.9516
X6.2008Y-3.0516
X6.2008Y-3.1516
X6.2008Y-3.2516
X6.2008Y-3.3516
X6.3008Y-1.4516
X6.3008Y-1.5516
X6.3008Y-1.6516
X6.3008Y-1.7516
X6.3008Y-1.8516
X6.3008Y-1.9516
X6.3008Y-2.0516
X6.3008Y-2.1516
X6.3008Y-2.2516
X6.3008Y-2.3516
X6.3008Y-2.4516
X6.3008Y-2.5516
X6.3008Y-2.6516
X6.3008Y-2.7516
X6.3008Y-2.8516
X6.3008Y-2.9516
X6.3008Y-3.0516
X6.3008Y-3.1516
X6.3008Y-3.2516
X6.3008Y-3.3516
T4
X5.1346Y-1.5551
X5.3346Y-1.5551
T5
X4.3217Y-1.2598
X4.3217Y-3.5433
X6.2508Y-1.2598
X6.2508Y-3.5433
T0
M30
