%TF.GenerationSoftware,KiCad,Pcbnew,7.0.2*%
%TF.CreationDate,2024-02-29T19:29:45+01:00*%
%TF.ProjectId,CDFR,43444652-2e6b-4696-9361-645f70636258,rev?*%
%TF.SameCoordinates,Original*%
%TF.FileFunction,Copper,L1,Top*%
%TF.FilePolarity,Positive*%
%FSLAX46Y46*%
G04 Gerber Fmt 4.6, Leading zero omitted, Abs format (unit mm)*
G04 Created by KiCad (PCBNEW 7.0.2) date 2024-02-29 19:29:45*
%MOMM*%
%LPD*%
G01*
G04 APERTURE LIST*
G04 Aperture macros list*
%AMRoundRect*
0 Rectangle with rounded corners*
0 $1 Rounding radius*
0 $2 $3 $4 $5 $6 $7 $8 $9 X,Y pos of 4 corners*
0 Add a 4 corners polygon primitive as box body*
4,1,4,$2,$3,$4,$5,$6,$7,$8,$9,$2,$3,0*
0 Add four circle primitives for the rounded corners*
1,1,$1+$1,$2,$3*
1,1,$1+$1,$4,$5*
1,1,$1+$1,$6,$7*
1,1,$1+$1,$8,$9*
0 Add four rect primitives between the rounded corners*
20,1,$1+$1,$2,$3,$4,$5,0*
20,1,$1+$1,$4,$5,$6,$7,0*
20,1,$1+$1,$6,$7,$8,$9,0*
20,1,$1+$1,$8,$9,$2,$3,0*%
G04 Aperture macros list end*
%TA.AperFunction,ComponentPad*%
%ADD10RoundRect,0.250000X-0.725000X0.600000X-0.725000X-0.600000X0.725000X-0.600000X0.725000X0.600000X0*%
%TD*%
%TA.AperFunction,ComponentPad*%
%ADD11O,1.950000X1.700000*%
%TD*%
%TA.AperFunction,ComponentPad*%
%ADD12RoundRect,0.250000X0.725000X-0.600000X0.725000X0.600000X-0.725000X0.600000X-0.725000X-0.600000X0*%
%TD*%
%TA.AperFunction,ComponentPad*%
%ADD13RoundRect,0.250000X0.600000X0.725000X-0.600000X0.725000X-0.600000X-0.725000X0.600000X-0.725000X0*%
%TD*%
%TA.AperFunction,ComponentPad*%
%ADD14O,1.700000X1.950000*%
%TD*%
%TA.AperFunction,SMDPad,CuDef*%
%ADD15RoundRect,0.250000X0.350000X-0.850000X0.350000X0.850000X-0.350000X0.850000X-0.350000X-0.850000X0*%
%TD*%
%TA.AperFunction,SMDPad,CuDef*%
%ADD16RoundRect,0.250000X1.125000X-1.275000X1.125000X1.275000X-1.125000X1.275000X-1.125000X-1.275000X0*%
%TD*%
%TA.AperFunction,SMDPad,CuDef*%
%ADD17RoundRect,0.249997X2.650003X-2.950003X2.650003X2.950003X-2.650003X2.950003X-2.650003X-2.950003X0*%
%TD*%
%TA.AperFunction,SMDPad,CuDef*%
%ADD18RoundRect,0.250000X0.450000X-0.350000X0.450000X0.350000X-0.450000X0.350000X-0.450000X-0.350000X0*%
%TD*%
%TA.AperFunction,SMDPad,CuDef*%
%ADD19RoundRect,0.250000X-0.262500X-0.450000X0.262500X-0.450000X0.262500X0.450000X-0.262500X0.450000X0*%
%TD*%
%TA.AperFunction,ComponentPad*%
%ADD20R,1.700000X1.700000*%
%TD*%
%TA.AperFunction,ComponentPad*%
%ADD21O,1.700000X1.700000*%
%TD*%
%TA.AperFunction,ComponentPad*%
%ADD22R,1.524000X1.524000*%
%TD*%
%TA.AperFunction,ComponentPad*%
%ADD23C,1.524000*%
%TD*%
%TA.AperFunction,ComponentPad*%
%ADD24C,6.200000*%
%TD*%
%TA.AperFunction,ComponentPad*%
%ADD25R,2.540000X2.540000*%
%TD*%
%TA.AperFunction,ComponentPad*%
%ADD26C,2.540000*%
%TD*%
%TA.AperFunction,SMDPad,CuDef*%
%ADD27RoundRect,0.225000X-0.375000X0.225000X-0.375000X-0.225000X0.375000X-0.225000X0.375000X0.225000X0*%
%TD*%
%TA.AperFunction,ComponentPad*%
%ADD28R,2.550000X2.550000*%
%TD*%
%TA.AperFunction,ComponentPad*%
%ADD29C,2.550000*%
%TD*%
%TA.AperFunction,Conductor*%
%ADD30C,0.250000*%
%TD*%
%TA.AperFunction,Conductor*%
%ADD31C,1.000000*%
%TD*%
%TA.AperFunction,Conductor*%
%ADD32C,0.500000*%
%TD*%
G04 APERTURE END LIST*
D10*
%TO.P,J10,1,Pin_1*%
%TO.N,/I2C_CLK*%
X110500000Y-75500000D03*
D11*
%TO.P,J10,2,Pin_2*%
%TO.N,/I2C_SDA*%
X110500000Y-78000000D03*
%TO.P,J10,3,Pin_3*%
%TO.N,GND*%
X110500000Y-80500000D03*
%TO.P,J10,4,Pin_4*%
%TO.N,+5V*%
X110500000Y-83000000D03*
%TD*%
D12*
%TO.P,J9,1,Pin_1*%
%TO.N,/I2C_CLK*%
X142600000Y-72400000D03*
D11*
%TO.P,J9,2,Pin_2*%
%TO.N,/I2C_SDA*%
X142600000Y-69900000D03*
%TO.P,J9,3,Pin_3*%
%TO.N,GND*%
X142600000Y-67400000D03*
%TO.P,J9,4,Pin_4*%
%TO.N,+5V*%
X142600000Y-64900000D03*
%TD*%
D13*
%TO.P,J5,1,Pin_1*%
%TO.N,/I2C_CLK*%
X123800000Y-33200000D03*
D14*
%TO.P,J5,2,Pin_2*%
%TO.N,/I2C_SDA*%
X121300000Y-33200000D03*
%TO.P,J5,3,Pin_3*%
%TO.N,GND*%
X118800000Y-33200000D03*
%TO.P,J5,4,Pin_4*%
%TO.N,+5V*%
X116300000Y-33200000D03*
%TD*%
D15*
%TO.P,Q1,1,G*%
%TO.N,Net-(D1-K)*%
X142470000Y-40290000D03*
D16*
%TO.P,Q1,2,D*%
%TO.N,Net-(J7-Pin_2)*%
X143225000Y-35665000D03*
X146275000Y-35665000D03*
D17*
X144750000Y-33990000D03*
D16*
X143225000Y-32315000D03*
X146275000Y-32315000D03*
D15*
%TO.P,Q1,3,S*%
%TO.N,GND*%
X147030000Y-40290000D03*
%TD*%
D18*
%TO.P,R1,1*%
%TO.N,/I2C_CLK*%
X153000000Y-38750000D03*
%TO.P,R1,2*%
%TO.N,+3.3V*%
X153000000Y-36750000D03*
%TD*%
D10*
%TO.P,J2,1,Pin_1*%
%TO.N,/I2C_CLK*%
X110550000Y-52500000D03*
D11*
%TO.P,J2,2,Pin_2*%
%TO.N,/I2C_SDA*%
X110550000Y-55000000D03*
%TO.P,J2,3,Pin_3*%
%TO.N,GND*%
X110550000Y-57500000D03*
%TD*%
D12*
%TO.P,J8,1,Pin_1*%
%TO.N,+5V*%
X150975000Y-57750000D03*
D11*
%TO.P,J8,2,Pin_2*%
%TO.N,Net-(J8-Pin_2)*%
X150975000Y-55250000D03*
%TO.P,J8,3,Pin_3*%
%TO.N,Net-(J8-Pin_3)*%
X150975000Y-52750000D03*
%TO.P,J8,4,Pin_4*%
%TO.N,GND*%
X150975000Y-50250000D03*
%TO.P,J8,5,Pin_5*%
%TO.N,Net-(J8-Pin_5)*%
X150975000Y-47750000D03*
%TD*%
D18*
%TO.P,R2,1*%
%TO.N,/I2C_SDA*%
X155250000Y-38750000D03*
%TO.P,R2,2*%
%TO.N,+3.3V*%
X155250000Y-36750000D03*
%TD*%
D19*
%TO.P,R3,1*%
%TO.N,GND*%
X152087500Y-62250000D03*
%TO.P,R3,2*%
%TO.N,MotorControl*%
X153912500Y-62250000D03*
%TD*%
D20*
%TO.P,JP1,1,A*%
%TO.N,+5V*%
X146000000Y-50960000D03*
D21*
%TO.P,JP1,2,C*%
%TO.N,Net-(J8-Pin_5)*%
X146000000Y-53500000D03*
%TO.P,JP1,3,B*%
%TO.N,MotorControl*%
X146000000Y-56040000D03*
%TD*%
D12*
%TO.P,J4,1,Pin_1*%
%TO.N,/I2C_CLK*%
X151900000Y-72400000D03*
D11*
%TO.P,J4,2,Pin_2*%
%TO.N,/I2C_SDA*%
X151900000Y-69900000D03*
%TO.P,J4,3,Pin_3*%
%TO.N,GND*%
X151900000Y-67400000D03*
%TD*%
D10*
%TO.P,J1,1,Pin_1*%
%TO.N,/I2C_CLK*%
X110550000Y-41000000D03*
D11*
%TO.P,J1,2,Pin_2*%
%TO.N,/I2C_SDA*%
X110550000Y-43500000D03*
%TO.P,J1,3,Pin_3*%
%TO.N,GND*%
X110550000Y-46000000D03*
%TD*%
D22*
%TO.P,U1,1,3V3*%
%TO.N,+3.3V*%
X157500000Y-36870000D03*
D23*
%TO.P,U1,2,5V*%
%TO.N,+5V*%
X160040000Y-36870000D03*
%TO.P,U1,3,GPIO2/SDA1*%
%TO.N,/I2C_SDA*%
X157500000Y-39410000D03*
%TO.P,U1,4,5V*%
%TO.N,+5V*%
X160040000Y-39410000D03*
%TO.P,U1,5,GPIO3/SCL1*%
%TO.N,/I2C_CLK*%
X157500000Y-41950000D03*
%TO.P,U1,6,GND*%
%TO.N,GND*%
X160040000Y-41950000D03*
%TO.P,U1,7,GPIO4/GPIO_GCKL*%
%TO.N,unconnected-(U1-GPIO4{slash}GPIO_GCKL-Pad7)*%
X157500000Y-44490000D03*
%TO.P,U1,8,GPIO14/TXD0*%
%TO.N,Net-(J8-Pin_3)*%
X160040000Y-44490000D03*
%TO.P,U1,9,GND*%
%TO.N,GND*%
X157500000Y-47030000D03*
%TO.P,U1,10,GPIO15/RXD0*%
%TO.N,Net-(J8-Pin_2)*%
X160040000Y-47030000D03*
%TO.P,U1,11,GPIO17/GPIO_GEN0*%
%TO.N,unconnected-(U1-GPIO17{slash}GPIO_GEN0-Pad11)*%
X157500000Y-49570000D03*
%TO.P,U1,12,GPIO18/GPIO_GEN1*%
%TO.N,MotorControl*%
X160040000Y-49570000D03*
%TO.P,U1,13,GPIO27/GPIO_GEN2*%
%TO.N,unconnected-(U1-GPIO27{slash}GPIO_GEN2-Pad13)*%
X157500000Y-52110000D03*
%TO.P,U1,14,GND*%
%TO.N,GND*%
X160040000Y-52110000D03*
%TO.P,U1,15,GPIO22/GPIO_GEN3*%
%TO.N,unconnected-(U1-GPIO22{slash}GPIO_GEN3-Pad15)*%
X157500000Y-54650000D03*
%TO.P,U1,16,GPIO23/GPIO_GEN4*%
%TO.N,unconnected-(U1-GPIO23{slash}GPIO_GEN4-Pad16)*%
X160040000Y-54650000D03*
%TO.P,U1,17,3V3*%
%TO.N,unconnected-(U1-3V3-Pad17)*%
X157500000Y-57190000D03*
%TO.P,U1,18,GPIO24/GPIO_GEN5*%
%TO.N,unconnected-(U1-GPIO24{slash}GPIO_GEN5-Pad18)*%
X160040000Y-57190000D03*
%TO.P,U1,19,GPIO10/SPI_MOSI*%
%TO.N,unconnected-(U1-GPIO10{slash}SPI_MOSI-Pad19)*%
X157500000Y-59730000D03*
%TO.P,U1,20,GND*%
%TO.N,GND*%
X160040000Y-59730000D03*
%TO.P,U1,21,GPIO9/SPI_MISO*%
%TO.N,unconnected-(U1-GPIO9{slash}SPI_MISO-Pad21)*%
X157500000Y-62270000D03*
%TO.P,U1,22,GPIO25/GPIO_GEN6*%
%TO.N,unconnected-(U1-GPIO25{slash}GPIO_GEN6-Pad22)*%
X160040000Y-62270000D03*
%TO.P,U1,23,GPIO11/SPI_SCLK*%
%TO.N,unconnected-(U1-GPIO11{slash}SPI_SCLK-Pad23)*%
X157500000Y-64810000D03*
%TO.P,U1,24,GPIO8/~{SPI_CE0}*%
%TO.N,unconnected-(U1-GPIO8{slash}~{SPI_CE0}-Pad24)*%
X160040000Y-64810000D03*
%TO.P,U1,25,GND*%
%TO.N,GND*%
X157500000Y-67350000D03*
%TO.P,U1,26,GPIO7/~{SPI_CE1}*%
%TO.N,unconnected-(U1-GPIO7{slash}~{SPI_CE1}-Pad26)*%
X160040000Y-67350000D03*
%TO.P,U1,27,ID_SD*%
%TO.N,unconnected-(U1-ID_SD-Pad27)*%
X157500000Y-69890000D03*
%TO.P,U1,28,ID_SC*%
%TO.N,unconnected-(U1-ID_SC-Pad28)*%
X160040000Y-69890000D03*
%TO.P,U1,29,GPIO5*%
%TO.N,Net-(J6-Pin_1)*%
X157500000Y-72430000D03*
%TO.P,U1,30,GND*%
%TO.N,GND*%
X160040000Y-72430000D03*
%TO.P,U1,31,GPIO6*%
%TO.N,unconnected-(U1-GPIO6-Pad31)*%
X157500000Y-74970000D03*
%TO.P,U1,32,GPIO12*%
%TO.N,unconnected-(U1-GPIO12-Pad32)*%
X160040000Y-74970000D03*
%TO.P,U1,33,GPIO13*%
%TO.N,unconnected-(U1-GPIO13-Pad33)*%
X157500000Y-77510000D03*
%TO.P,U1,34,GND*%
%TO.N,GND*%
X160040000Y-77510000D03*
%TO.P,U1,35,GPIO19*%
%TO.N,unconnected-(U1-GPIO19-Pad35)*%
X157500000Y-80050000D03*
%TO.P,U1,36,GPIO16*%
%TO.N,unconnected-(U1-GPIO16-Pad36)*%
X160040000Y-80050000D03*
%TO.P,U1,37,GPIO26*%
%TO.N,unconnected-(U1-GPIO26-Pad37)*%
X157500000Y-82590000D03*
%TO.P,U1,38,GPIO20*%
%TO.N,unconnected-(U1-GPIO20-Pad38)*%
X160040000Y-82590000D03*
%TO.P,U1,39,GND*%
%TO.N,GND*%
X157500000Y-85130000D03*
%TO.P,U1,40,GPIO21*%
%TO.N,unconnected-(U1-GPIO21-Pad40)*%
X160040000Y-85130000D03*
D24*
%TO.P,U1,S1,SHIELD*%
%TO.N,GND*%
X158770000Y-32000000D03*
%TO.P,U1,S2,SHIELD*%
X158770000Y-90000000D03*
%TO.P,U1,S3,SHIELD*%
X109770000Y-90000000D03*
%TO.P,U1,S4,SHIELD*%
X109770000Y-32000000D03*
%TD*%
D10*
%TO.P,J3,1,Pin_1*%
%TO.N,/I2C_CLK*%
X110525000Y-64000000D03*
D11*
%TO.P,J3,2,Pin_2*%
%TO.N,/I2C_SDA*%
X110525000Y-66500000D03*
%TO.P,J3,3,Pin_3*%
%TO.N,GND*%
X110525000Y-69000000D03*
%TD*%
D25*
%TO.P,U3,1,Vin*%
%TO.N,Net-(J7-Pin_1)*%
X136890000Y-46930000D03*
D26*
%TO.P,U3,2,GND*%
%TO.N,GND*%
X119110000Y-46930000D03*
%TO.P,U3,3,GND*%
X119110000Y-87570000D03*
%TO.P,U3,4,Vout*%
%TO.N,+5V*%
X136890000Y-87570000D03*
%TD*%
D20*
%TO.P,J6,1,Pin_1*%
%TO.N,Net-(J6-Pin_1)*%
X147960000Y-89000000D03*
D21*
%TO.P,J6,2,Pin_2*%
%TO.N,GND*%
X150500000Y-89000000D03*
%TD*%
D27*
%TO.P,D1,1,K*%
%TO.N,Net-(D1-K)*%
X144250000Y-43600000D03*
%TO.P,D1,2,A*%
%TO.N,GND*%
X144250000Y-46900000D03*
%TD*%
D28*
%TO.P,J7,1,Pin_1*%
%TO.N,Net-(J7-Pin_1)*%
X130420000Y-39500000D03*
D29*
%TO.P,J7,2,Pin_2*%
%TO.N,Net-(J7-Pin_2)*%
X135500000Y-39500000D03*
%TD*%
D18*
%TO.P,R4,1*%
%TO.N,Net-(J7-Pin_1)*%
X141750000Y-46250000D03*
%TO.P,R4,2*%
%TO.N,Net-(D1-K)*%
X141750000Y-44250000D03*
%TD*%
D30*
%TO.N,+5V*%
X116300000Y-37000000D02*
X132600000Y-53300000D01*
X132600000Y-53300000D02*
X144450000Y-53300000D01*
X116300000Y-33200000D02*
X116300000Y-37000000D01*
X132320000Y-83000000D02*
X136890000Y-87570000D01*
X110500000Y-83000000D02*
X132320000Y-83000000D01*
D31*
X144450000Y-53300000D02*
X144450000Y-52510000D01*
X144450000Y-58175000D02*
X144450000Y-53300000D01*
D30*
X142600000Y-64900000D02*
X145700000Y-64900000D01*
D31*
X147500000Y-63100000D02*
X147500000Y-61500000D01*
D30*
X145700000Y-64900000D02*
X147500000Y-63100000D01*
D31*
X147500000Y-76960000D02*
X147500000Y-63100000D01*
D30*
%TO.N,/I2C_CLK*%
X156200000Y-41950000D02*
X153000000Y-38750000D01*
X157500000Y-41950000D02*
X156200000Y-41950000D01*
%TO.N,/I2C_SDA*%
X155910000Y-39410000D02*
X155250000Y-38750000D01*
X157500000Y-39410000D02*
X155910000Y-39410000D01*
D31*
%TO.N,Net-(J7-Pin_1)*%
X130420000Y-39500000D02*
X130420000Y-40460000D01*
D30*
X141070000Y-46930000D02*
X136890000Y-46930000D01*
X141750000Y-46250000D02*
X141070000Y-46930000D01*
D31*
X130420000Y-40460000D02*
X136890000Y-46930000D01*
D30*
%TO.N,Net-(D1-K)*%
X142470000Y-40290000D02*
X142470000Y-41820000D01*
X141750000Y-44250000D02*
X143600000Y-44250000D01*
X142470000Y-41820000D02*
X144250000Y-43600000D01*
X143600000Y-44250000D02*
X144250000Y-43600000D01*
D31*
%TO.N,Net-(J7-Pin_2)*%
X135500000Y-39500000D02*
X141010000Y-33990000D01*
X141010000Y-33990000D02*
X144750000Y-33990000D01*
%TO.N,+5V*%
X144450000Y-52510000D02*
X146000000Y-50960000D01*
X147500000Y-61500000D02*
X147500000Y-61225000D01*
X144450000Y-52510000D02*
X144450000Y-50050000D01*
D32*
X157914027Y-43250000D02*
X155750000Y-43250000D01*
X158750000Y-40725000D02*
X158750000Y-42414027D01*
D31*
X151250000Y-43250000D02*
X155750000Y-43250000D01*
D32*
X158750000Y-42414027D02*
X157914027Y-43250000D01*
D31*
X147500000Y-61225000D02*
X150975000Y-57750000D01*
D32*
X160040000Y-39410000D02*
X160040000Y-36870000D01*
D31*
X146500000Y-48000000D02*
X151250000Y-43250000D01*
X144450000Y-50050000D02*
X146500000Y-48000000D01*
D32*
X160040000Y-39435000D02*
X158750000Y-40725000D01*
D31*
X136890000Y-87570000D02*
X147500000Y-76960000D01*
D32*
X160040000Y-39410000D02*
X160040000Y-39435000D01*
D31*
X147500000Y-61225000D02*
X144450000Y-58175000D01*
D30*
%TO.N,Net-(J8-Pin_2)*%
X158953000Y-48117000D02*
X160040000Y-47030000D01*
X157383000Y-48117000D02*
X158953000Y-48117000D01*
X156058000Y-49442000D02*
X157383000Y-48117000D01*
X150975000Y-55250000D02*
X156058000Y-50167000D01*
X156058000Y-50167000D02*
X156058000Y-49442000D01*
%TO.N,+3.3V*%
X153120000Y-36870000D02*
X157500000Y-36870000D01*
X153000000Y-36750000D02*
X153120000Y-36870000D01*
%TO.N,Net-(J8-Pin_3)*%
X155608000Y-47384749D02*
X157242749Y-45750000D01*
X157242749Y-45750000D02*
X158780000Y-45750000D01*
X158780000Y-45750000D02*
X160040000Y-44490000D01*
X150975000Y-52750000D02*
X150975000Y-52637500D01*
X155608000Y-48004500D02*
X155608000Y-47384749D01*
X150975000Y-52637500D02*
X155608000Y-48004500D01*
%TO.N,Net-(J8-Pin_5)*%
X146000000Y-53500000D02*
X146000000Y-53438299D01*
X150975000Y-48463299D02*
X150975000Y-47750000D01*
X146000000Y-53438299D02*
X150975000Y-48463299D01*
%TO.N,MotorControl*%
X151250000Y-56425000D02*
X151788173Y-56425000D01*
X157415749Y-50657000D02*
X158953000Y-50657000D01*
X153912500Y-58549327D02*
X153912500Y-62250000D01*
X146000000Y-56040000D02*
X146385000Y-56425000D01*
X151647749Y-56425000D02*
X157415749Y-50657000D01*
X158953000Y-50657000D02*
X160040000Y-49570000D01*
X151250000Y-56425000D02*
X151647749Y-56425000D01*
X146385000Y-56425000D02*
X151250000Y-56425000D01*
X151788173Y-56425000D02*
X153912500Y-58549327D01*
%TD*%
%TA.AperFunction,Conductor*%
%TO.N,GND*%
G36*
X157134390Y-28583685D02*
G01*
X157180145Y-28636489D01*
X157190089Y-28705647D01*
X157161064Y-28769203D01*
X157123646Y-28798485D01*
X156970423Y-28876555D01*
X156964802Y-28879801D01*
X156653797Y-29081770D01*
X156648543Y-29085587D01*
X156405750Y-29282197D01*
X157990677Y-30867124D01*
X157903075Y-30926333D01*
X157734094Y-31088288D01*
X157636580Y-31220133D01*
X156052197Y-29635750D01*
X155855587Y-29878543D01*
X155851770Y-29883797D01*
X155649801Y-30194802D01*
X155646555Y-30200423D01*
X155478196Y-30530846D01*
X155475559Y-30536770D01*
X155342658Y-30882988D01*
X155340659Y-30889140D01*
X155244676Y-31247356D01*
X155243328Y-31253699D01*
X155185315Y-31619975D01*
X155184638Y-31626418D01*
X155165230Y-31996756D01*
X155165230Y-32003243D01*
X155184638Y-32373581D01*
X155185315Y-32380024D01*
X155243328Y-32746300D01*
X155244676Y-32752643D01*
X155340659Y-33110859D01*
X155342658Y-33117011D01*
X155475559Y-33463229D01*
X155478196Y-33469153D01*
X155646555Y-33799576D01*
X155649801Y-33805197D01*
X155851770Y-34116202D01*
X155855587Y-34121456D01*
X156052197Y-34364248D01*
X157635874Y-32780571D01*
X157660507Y-32820577D01*
X157815144Y-32996278D01*
X157987835Y-33135716D01*
X156405750Y-34717801D01*
X156648543Y-34914412D01*
X156653797Y-34918229D01*
X156964802Y-35120198D01*
X156970423Y-35123444D01*
X157300846Y-35291803D01*
X157306776Y-35294443D01*
X157497711Y-35367736D01*
X157553244Y-35410138D01*
X157577037Y-35475832D01*
X157561536Y-35543960D01*
X157511662Y-35592893D01*
X157453274Y-35607500D01*
X156693439Y-35607500D01*
X156693420Y-35607500D01*
X156690128Y-35607501D01*
X156686848Y-35607853D01*
X156686840Y-35607854D01*
X156630515Y-35613909D01*
X156495669Y-35664204D01*
X156380453Y-35750454D01*
X156351207Y-35789522D01*
X156295273Y-35831392D01*
X156225582Y-35836376D01*
X156182316Y-35812750D01*
X156180993Y-35814897D01*
X156019334Y-35715186D01*
X155852797Y-35660000D01*
X155753141Y-35649819D01*
X155753122Y-35649818D01*
X155750009Y-35649500D01*
X155746860Y-35649500D01*
X154753140Y-35649500D01*
X154753120Y-35649500D01*
X154749992Y-35649501D01*
X154746860Y-35649820D01*
X154746858Y-35649821D01*
X154647203Y-35660000D01*
X154480665Y-35715186D01*
X154331344Y-35807287D01*
X154212680Y-35925951D01*
X154151357Y-35959435D01*
X154081665Y-35954451D01*
X154037319Y-35925951D01*
X153918656Y-35807288D01*
X153918655Y-35807287D01*
X153918654Y-35807286D01*
X153769334Y-35715186D01*
X153602797Y-35660000D01*
X153503141Y-35649819D01*
X153503122Y-35649818D01*
X153500009Y-35649500D01*
X153496860Y-35649500D01*
X152503140Y-35649500D01*
X152503120Y-35649500D01*
X152499992Y-35649501D01*
X152496860Y-35649820D01*
X152496858Y-35649821D01*
X152397203Y-35660000D01*
X152230665Y-35715186D01*
X152081342Y-35807288D01*
X151957288Y-35931342D01*
X151865186Y-36080665D01*
X151810000Y-36247202D01*
X151799819Y-36346858D01*
X151799817Y-36346878D01*
X151799500Y-36349991D01*
X151799500Y-36353138D01*
X151799500Y-36353139D01*
X151799500Y-37146858D01*
X151799500Y-37146877D01*
X151799501Y-37150008D01*
X151799820Y-37153140D01*
X151799821Y-37153141D01*
X151810000Y-37252796D01*
X151865186Y-37419334D01*
X151957288Y-37568657D01*
X152050950Y-37662319D01*
X152084435Y-37723642D01*
X152079451Y-37793334D01*
X152050950Y-37837681D01*
X151957288Y-37931342D01*
X151865186Y-38080665D01*
X151810000Y-38247202D01*
X151799819Y-38346858D01*
X151799817Y-38346878D01*
X151799500Y-38349991D01*
X151799500Y-38353138D01*
X151799500Y-38353139D01*
X151799500Y-39146858D01*
X151799500Y-39146877D01*
X151799501Y-39150008D01*
X151799820Y-39153140D01*
X151799821Y-39153141D01*
X151810000Y-39252796D01*
X151865186Y-39419334D01*
X151957288Y-39568657D01*
X152081342Y-39692711D01*
X152081344Y-39692712D01*
X152230666Y-39784814D01*
X152342016Y-39821712D01*
X152397202Y-39839999D01*
X152496858Y-39850180D01*
X152496859Y-39850180D01*
X152499991Y-39850500D01*
X153164547Y-39850499D01*
X153231586Y-39870183D01*
X153252228Y-39886818D01*
X155403228Y-42037819D01*
X155436713Y-42099142D01*
X155431729Y-42168834D01*
X155389857Y-42224767D01*
X155324393Y-42249184D01*
X155315547Y-42249500D01*
X151264238Y-42249500D01*
X151261096Y-42249460D01*
X151173635Y-42247243D01*
X151115581Y-42257648D01*
X151106253Y-42258957D01*
X151047561Y-42264926D01*
X151018527Y-42274035D01*
X151003288Y-42277775D01*
X150973345Y-42283142D01*
X150918568Y-42305021D01*
X150909698Y-42308179D01*
X150853410Y-42325841D01*
X150826809Y-42340605D01*
X150812639Y-42347335D01*
X150784385Y-42358622D01*
X150735121Y-42391087D01*
X150727070Y-42395964D01*
X150675498Y-42424590D01*
X150652414Y-42444407D01*
X150639887Y-42453853D01*
X150614481Y-42470598D01*
X150572775Y-42512303D01*
X150565868Y-42518704D01*
X150521103Y-42557135D01*
X150502480Y-42581193D01*
X150492108Y-42592969D01*
X145805894Y-47279185D01*
X145449100Y-47635979D01*
X145387777Y-47669464D01*
X145318085Y-47664480D01*
X145262152Y-47622608D01*
X145237735Y-47557144D01*
X145252587Y-47488871D01*
X145255881Y-47483200D01*
X145286546Y-47433483D01*
X145339856Y-47272606D01*
X145349680Y-47176445D01*
X145350000Y-47170167D01*
X145350000Y-47150000D01*
X144500000Y-47150000D01*
X144500000Y-47849999D01*
X144670165Y-47849999D01*
X144676447Y-47849678D01*
X144772605Y-47839856D01*
X144933484Y-47786546D01*
X144983198Y-47755882D01*
X145050590Y-47737440D01*
X145117254Y-47758361D01*
X145162025Y-47812002D01*
X145170688Y-47881333D01*
X145140492Y-47944341D01*
X145135978Y-47949100D01*
X143752646Y-49332432D01*
X143750399Y-49334623D01*
X143686948Y-49394939D01*
X143653244Y-49443362D01*
X143647573Y-49450882D01*
X143610301Y-49496593D01*
X143596210Y-49523566D01*
X143588082Y-49536983D01*
X143570705Y-49561950D01*
X143547439Y-49616165D01*
X143543399Y-49624671D01*
X143516090Y-49676952D01*
X143507720Y-49706201D01*
X143502459Y-49720978D01*
X143490460Y-49748942D01*
X143478587Y-49806713D01*
X143476342Y-49815860D01*
X143460113Y-49872580D01*
X143457802Y-49902925D01*
X143455622Y-49918466D01*
X143449500Y-49948258D01*
X143449500Y-50007241D01*
X143449142Y-50016655D01*
X143444663Y-50075477D01*
X143448506Y-50105651D01*
X143449500Y-50121317D01*
X143449500Y-52467241D01*
X143449142Y-52476655D01*
X143443706Y-52548048D01*
X143442479Y-52547954D01*
X143433523Y-52603825D01*
X143386922Y-52655884D01*
X143321575Y-52674500D01*
X132910452Y-52674500D01*
X132843413Y-52654815D01*
X132822771Y-52638181D01*
X121004169Y-40819578D01*
X128644500Y-40819578D01*
X128644501Y-40822872D01*
X128644853Y-40826152D01*
X128644854Y-40826159D01*
X128650909Y-40882484D01*
X128676056Y-40949906D01*
X128701204Y-41017331D01*
X128787454Y-41132546D01*
X128902669Y-41218796D01*
X129037517Y-41269091D01*
X129097127Y-41275500D01*
X129769216Y-41275499D01*
X129836255Y-41295183D01*
X129856897Y-41311818D01*
X135083181Y-46538102D01*
X135116666Y-46599425D01*
X135119500Y-46625783D01*
X135119500Y-48244560D01*
X135119500Y-48244578D01*
X135119501Y-48247872D01*
X135119853Y-48251152D01*
X135119854Y-48251159D01*
X135125909Y-48307484D01*
X135141384Y-48348974D01*
X135176204Y-48442331D01*
X135262454Y-48557546D01*
X135377669Y-48643796D01*
X135512517Y-48694091D01*
X135572127Y-48700500D01*
X138207872Y-48700499D01*
X138267483Y-48694091D01*
X138402331Y-48643796D01*
X138517546Y-48557546D01*
X138603796Y-48442331D01*
X138654091Y-48307483D01*
X138660500Y-48247873D01*
X138660500Y-47679500D01*
X138680185Y-47612461D01*
X138732989Y-47566706D01*
X138784500Y-47555500D01*
X140987256Y-47555500D01*
X141007762Y-47557764D01*
X141010665Y-47557672D01*
X141010667Y-47557673D01*
X141077872Y-47555561D01*
X141081768Y-47555500D01*
X141105448Y-47555500D01*
X141109350Y-47555500D01*
X141113313Y-47554999D01*
X141124962Y-47554080D01*
X141168627Y-47552709D01*
X141187859Y-47547120D01*
X141206918Y-47543174D01*
X141213196Y-47542381D01*
X141226792Y-47540664D01*
X141267407Y-47524582D01*
X141278444Y-47520803D01*
X141320390Y-47508618D01*
X141337629Y-47498422D01*
X141355102Y-47489862D01*
X141357605Y-47488871D01*
X141373732Y-47482486D01*
X141409064Y-47456814D01*
X141418830Y-47450400D01*
X141447436Y-47433483D01*
X141456420Y-47428170D01*
X141470585Y-47414004D01*
X141485373Y-47401373D01*
X141501587Y-47389594D01*
X141501587Y-47389593D01*
X141514266Y-47380383D01*
X141515842Y-47382553D01*
X141554636Y-47356351D01*
X141592280Y-47350499D01*
X142246859Y-47350499D01*
X142250008Y-47350499D01*
X142352797Y-47339999D01*
X142519334Y-47284814D01*
X142668656Y-47192712D01*
X142711368Y-47150000D01*
X143150001Y-47150000D01*
X143150001Y-47170165D01*
X143150321Y-47176447D01*
X143160143Y-47272605D01*
X143213453Y-47433486D01*
X143302426Y-47577732D01*
X143422267Y-47697573D01*
X143566513Y-47786546D01*
X143727393Y-47839856D01*
X143823554Y-47849680D01*
X143829832Y-47849999D01*
X143999999Y-47849999D01*
X144000000Y-47849998D01*
X144000000Y-47150000D01*
X143150001Y-47150000D01*
X142711368Y-47150000D01*
X142792712Y-47068656D01*
X142884814Y-46919334D01*
X142939999Y-46752797D01*
X142942471Y-46728591D01*
X142968867Y-46663899D01*
X143026048Y-46623747D01*
X143095859Y-46620883D01*
X143147307Y-46650000D01*
X144000000Y-46650000D01*
X144000000Y-45950000D01*
X144500000Y-45950000D01*
X144500000Y-46650000D01*
X145349999Y-46650000D01*
X145349999Y-46629834D01*
X145349678Y-46623552D01*
X145339856Y-46527394D01*
X145286546Y-46366513D01*
X145197573Y-46222267D01*
X145077732Y-46102426D01*
X144933486Y-46013453D01*
X144772606Y-45960143D01*
X144676445Y-45950319D01*
X144670168Y-45950000D01*
X144500000Y-45950000D01*
X144000000Y-45950000D01*
X143829835Y-45950000D01*
X143823551Y-45950321D01*
X143727394Y-45960143D01*
X143566513Y-46013453D01*
X143422267Y-46102426D01*
X143302426Y-46222267D01*
X143213454Y-46366512D01*
X143192205Y-46430637D01*
X143152432Y-46488082D01*
X143087916Y-46514904D01*
X143019140Y-46502589D01*
X142967940Y-46455045D01*
X142950499Y-46391634D01*
X142950499Y-45849992D01*
X142939999Y-45747203D01*
X142884814Y-45580666D01*
X142792712Y-45431344D01*
X142699047Y-45337679D01*
X142665564Y-45276359D01*
X142670548Y-45206667D01*
X142699047Y-45162320D01*
X142792712Y-45068656D01*
X142858564Y-44961893D01*
X142875519Y-44934404D01*
X142927467Y-44887679D01*
X142981058Y-44875500D01*
X143517256Y-44875500D01*
X143537762Y-44877764D01*
X143540665Y-44877672D01*
X143540667Y-44877673D01*
X143607872Y-44875561D01*
X143611768Y-44875500D01*
X143635448Y-44875500D01*
X143639350Y-44875500D01*
X143643313Y-44874999D01*
X143654962Y-44874080D01*
X143698627Y-44872709D01*
X143717859Y-44867120D01*
X143736918Y-44863174D01*
X143743196Y-44862381D01*
X143756792Y-44860664D01*
X143797407Y-44844582D01*
X143808444Y-44840803D01*
X143850390Y-44828618D01*
X143867629Y-44818422D01*
X143885102Y-44809862D01*
X143903732Y-44802486D01*
X143939064Y-44776814D01*
X143948830Y-44770400D01*
X143978596Y-44752797D01*
X143986420Y-44748170D01*
X144000585Y-44734004D01*
X144015373Y-44721373D01*
X144031587Y-44709594D01*
X144059438Y-44675926D01*
X144067269Y-44667319D01*
X144147773Y-44586815D01*
X144209095Y-44553333D01*
X144235452Y-44550499D01*
X144670195Y-44550499D01*
X144673344Y-44550499D01*
X144772708Y-44540349D01*
X144933697Y-44487003D01*
X145078044Y-44397968D01*
X145197968Y-44278044D01*
X145213209Y-44253334D01*
X145287002Y-44133699D01*
X145312491Y-44056780D01*
X145340349Y-43972708D01*
X145350500Y-43873345D01*
X145350499Y-43326656D01*
X145340349Y-43227292D01*
X145287003Y-43066303D01*
X145287002Y-43066302D01*
X145287002Y-43066300D01*
X145197968Y-42921955D01*
X145078044Y-42802031D01*
X144933699Y-42712997D01*
X144772707Y-42659650D01*
X144676477Y-42649819D01*
X144676458Y-42649818D01*
X144673345Y-42649500D01*
X144670196Y-42649500D01*
X144235453Y-42649500D01*
X144168414Y-42629815D01*
X144147772Y-42613181D01*
X143365660Y-41831069D01*
X143332175Y-41769746D01*
X143337159Y-41700054D01*
X143365657Y-41655710D01*
X143412712Y-41608656D01*
X143504814Y-41459334D01*
X143559999Y-41292797D01*
X143570500Y-41190009D01*
X143570499Y-40540000D01*
X145930001Y-40540000D01*
X145930001Y-41186829D01*
X145930321Y-41193111D01*
X145940493Y-41292695D01*
X145995642Y-41459122D01*
X146087683Y-41608345D01*
X146211654Y-41732316D01*
X146360877Y-41824357D01*
X146527303Y-41879506D01*
X146626890Y-41889680D01*
X146633168Y-41889999D01*
X146779999Y-41889999D01*
X146780000Y-41889998D01*
X146780000Y-40540000D01*
X147280000Y-40540000D01*
X147280000Y-41889999D01*
X147426829Y-41889999D01*
X147433111Y-41889678D01*
X147532695Y-41879506D01*
X147699122Y-41824357D01*
X147848345Y-41732316D01*
X147972316Y-41608345D01*
X148064357Y-41459122D01*
X148119506Y-41292696D01*
X148129680Y-41193109D01*
X148130000Y-41186831D01*
X148130000Y-40540000D01*
X147280000Y-40540000D01*
X146780000Y-40540000D01*
X145930001Y-40540000D01*
X143570499Y-40540000D01*
X143570499Y-40040000D01*
X145930000Y-40040000D01*
X146780000Y-40040000D01*
X146780000Y-38690000D01*
X147280000Y-38690000D01*
X147280000Y-40040000D01*
X148129999Y-40040000D01*
X148129999Y-39393170D01*
X148129678Y-39386888D01*
X148119506Y-39287304D01*
X148064357Y-39120877D01*
X147972316Y-38971654D01*
X147848345Y-38847683D01*
X147699122Y-38755642D01*
X147532696Y-38700493D01*
X147433109Y-38690319D01*
X147426832Y-38690000D01*
X147280000Y-38690000D01*
X146780000Y-38690000D01*
X146633171Y-38690000D01*
X146626888Y-38690321D01*
X146527304Y-38700493D01*
X146360877Y-38755642D01*
X146211654Y-38847683D01*
X146087683Y-38971654D01*
X145995642Y-39120877D01*
X145940493Y-39287303D01*
X145930319Y-39386890D01*
X145930000Y-39393168D01*
X145930000Y-40040000D01*
X143570499Y-40040000D01*
X143570499Y-39389992D01*
X143559999Y-39287203D01*
X143504814Y-39120666D01*
X143415922Y-38976548D01*
X143412711Y-38971342D01*
X143288657Y-38847288D01*
X143139334Y-38755186D01*
X142972797Y-38700000D01*
X142873141Y-38689819D01*
X142873122Y-38689818D01*
X142870009Y-38689500D01*
X142866860Y-38689500D01*
X142073141Y-38689500D01*
X142073121Y-38689500D01*
X142069992Y-38689501D01*
X142066860Y-38689820D01*
X142066858Y-38689821D01*
X141967203Y-38700000D01*
X141800665Y-38755186D01*
X141651342Y-38847288D01*
X141527288Y-38971342D01*
X141435186Y-39120665D01*
X141380000Y-39287202D01*
X141369819Y-39386858D01*
X141369817Y-39386878D01*
X141369500Y-39389991D01*
X141369500Y-39393138D01*
X141369500Y-39393139D01*
X141369500Y-41186859D01*
X141369500Y-41186878D01*
X141369501Y-41190008D01*
X141369820Y-41193140D01*
X141369821Y-41193141D01*
X141380000Y-41292796D01*
X141435186Y-41459334D01*
X141527288Y-41608657D01*
X141651342Y-41732711D01*
X141683907Y-41752797D01*
X141788457Y-41817284D01*
X141835182Y-41869230D01*
X141846896Y-41917269D01*
X141852879Y-41937860D01*
X141856825Y-41956916D01*
X141859335Y-41976792D01*
X141875414Y-42017404D01*
X141879197Y-42028451D01*
X141891382Y-42070391D01*
X141901580Y-42087635D01*
X141910136Y-42105100D01*
X141917514Y-42123732D01*
X141917515Y-42123733D01*
X141943180Y-42159059D01*
X141949593Y-42168822D01*
X141971826Y-42206416D01*
X141971829Y-42206419D01*
X141971830Y-42206420D01*
X141985995Y-42220585D01*
X141998627Y-42235375D01*
X142010406Y-42251587D01*
X142044058Y-42279426D01*
X142052699Y-42287289D01*
X143113181Y-43347771D01*
X143146666Y-43409094D01*
X143149500Y-43435452D01*
X143149500Y-43500500D01*
X143129815Y-43567539D01*
X143077011Y-43613294D01*
X143025500Y-43624500D01*
X142981058Y-43624500D01*
X142914019Y-43604815D01*
X142875519Y-43565596D01*
X142792711Y-43431342D01*
X142668657Y-43307288D01*
X142519334Y-43215186D01*
X142352797Y-43160000D01*
X142253141Y-43149819D01*
X142253122Y-43149818D01*
X142250009Y-43149500D01*
X142246860Y-43149500D01*
X141253140Y-43149500D01*
X141253120Y-43149500D01*
X141249992Y-43149501D01*
X141246860Y-43149820D01*
X141246858Y-43149821D01*
X141147203Y-43160000D01*
X140980665Y-43215186D01*
X140831342Y-43307288D01*
X140707288Y-43431342D01*
X140615186Y-43580665D01*
X140560000Y-43747202D01*
X140549819Y-43846858D01*
X140549817Y-43846878D01*
X140549500Y-43849991D01*
X140549500Y-43853138D01*
X140549500Y-43853139D01*
X140549500Y-44646858D01*
X140549500Y-44646877D01*
X140549501Y-44650008D01*
X140549820Y-44653140D01*
X140549821Y-44653141D01*
X140560000Y-44752796D01*
X140615186Y-44919334D01*
X140707286Y-45068654D01*
X140707287Y-45068655D01*
X140707288Y-45068656D01*
X140800951Y-45162319D01*
X140834435Y-45223640D01*
X140829451Y-45293332D01*
X140800951Y-45337680D01*
X140707287Y-45431344D01*
X140615186Y-45580665D01*
X140560000Y-45747202D01*
X140549819Y-45846858D01*
X140549817Y-45846878D01*
X140549500Y-45849991D01*
X140549500Y-46068295D01*
X140549501Y-46180500D01*
X140529817Y-46247539D01*
X140477013Y-46293294D01*
X140425501Y-46304500D01*
X138784499Y-46304500D01*
X138717460Y-46284815D01*
X138671705Y-46232011D01*
X138660499Y-46180500D01*
X138660499Y-45615439D01*
X138660499Y-45612128D01*
X138654091Y-45552517D01*
X138603796Y-45417669D01*
X138517546Y-45302454D01*
X138402331Y-45216204D01*
X138267483Y-45165909D01*
X138234074Y-45162317D01*
X138211166Y-45159854D01*
X138211165Y-45159853D01*
X138207873Y-45159500D01*
X138204551Y-45159500D01*
X136585782Y-45159500D01*
X136518743Y-45139815D01*
X136498101Y-45123181D01*
X132231817Y-40856897D01*
X132198332Y-40795574D01*
X132195499Y-40769225D01*
X132195499Y-39500000D01*
X133719520Y-39500000D01*
X133739406Y-39765364D01*
X133798623Y-40024807D01*
X133895844Y-40272522D01*
X134028895Y-40502976D01*
X134172204Y-40682677D01*
X134194817Y-40711033D01*
X134389890Y-40892035D01*
X134609761Y-41041940D01*
X134849518Y-41157401D01*
X135103806Y-41235839D01*
X135366945Y-41275500D01*
X135633055Y-41275500D01*
X135896194Y-41235839D01*
X136150482Y-41157401D01*
X136390240Y-41041940D01*
X136610110Y-40892035D01*
X136805183Y-40711033D01*
X136971101Y-40502980D01*
X136971101Y-40502979D01*
X136971104Y-40502976D01*
X137104155Y-40272522D01*
X137104156Y-40272521D01*
X137201377Y-40024805D01*
X137260593Y-39765367D01*
X137280479Y-39500000D01*
X137273735Y-39409999D01*
X137259899Y-39225365D01*
X137261584Y-39225238D01*
X137265187Y-39166339D01*
X137294127Y-39120792D01*
X141137820Y-35277099D01*
X141199141Y-35243616D01*
X141268833Y-35248600D01*
X141324766Y-35290472D01*
X141349183Y-35355936D01*
X141349499Y-35364782D01*
X141349499Y-36986863D01*
X141349499Y-36986882D01*
X141349500Y-36990012D01*
X141349818Y-36993125D01*
X141349819Y-36993144D01*
X141360000Y-37092799D01*
X141415185Y-37259338D01*
X141507287Y-37408657D01*
X141631342Y-37532712D01*
X141780661Y-37624814D01*
X141947200Y-37679999D01*
X142046855Y-37690180D01*
X142046856Y-37690180D01*
X142049988Y-37690500D01*
X142049991Y-37690500D01*
X142053137Y-37690500D01*
X147446863Y-37690500D01*
X147450012Y-37690500D01*
X147552800Y-37679999D01*
X147719336Y-37624815D01*
X147801642Y-37574048D01*
X147868657Y-37532712D01*
X147992712Y-37408657D01*
X148084814Y-37259338D01*
X148086982Y-37252797D01*
X148139999Y-37092800D01*
X148150500Y-36990012D01*
X148150500Y-30989988D01*
X148139999Y-30887200D01*
X148084815Y-30720664D01*
X148084814Y-30720663D01*
X148084814Y-30720661D01*
X147992712Y-30571342D01*
X147868657Y-30447287D01*
X147719338Y-30355185D01*
X147552799Y-30300000D01*
X147453144Y-30289819D01*
X147453125Y-30289818D01*
X147450012Y-30289500D01*
X142049988Y-30289500D01*
X142046875Y-30289817D01*
X142046855Y-30289819D01*
X141947200Y-30300000D01*
X141780661Y-30355185D01*
X141631342Y-30447287D01*
X141507287Y-30571342D01*
X141415185Y-30720661D01*
X141360000Y-30887200D01*
X141349819Y-30986855D01*
X141349817Y-30986875D01*
X141349500Y-30989988D01*
X141349500Y-30993135D01*
X141349500Y-30993136D01*
X141349500Y-32865500D01*
X141329815Y-32932539D01*
X141277011Y-32978294D01*
X141225500Y-32989500D01*
X141024279Y-32989500D01*
X141021137Y-32989460D01*
X140933637Y-32987242D01*
X140875580Y-32997648D01*
X140866251Y-32998957D01*
X140807562Y-33004926D01*
X140778527Y-33014035D01*
X140763290Y-33017774D01*
X140733346Y-33023141D01*
X140678568Y-33045021D01*
X140669698Y-33048179D01*
X140613414Y-33065839D01*
X140586819Y-33080601D01*
X140572641Y-33087334D01*
X140544385Y-33098620D01*
X140495122Y-33131087D01*
X140487066Y-33135967D01*
X140435495Y-33164591D01*
X140412406Y-33184412D01*
X140399883Y-33193855D01*
X140374484Y-33210596D01*
X140332782Y-33252297D01*
X140325875Y-33258698D01*
X140281104Y-33297134D01*
X140262480Y-33321194D01*
X140252107Y-33332971D01*
X135875041Y-37710037D01*
X135813718Y-37743522D01*
X135768880Y-37744971D01*
X135633056Y-37724500D01*
X135633055Y-37724500D01*
X135366945Y-37724500D01*
X135103806Y-37764160D01*
X134849518Y-37842599D01*
X134609760Y-37958060D01*
X134389890Y-38107964D01*
X134194817Y-38288966D01*
X134028895Y-38497023D01*
X133895844Y-38727477D01*
X133798623Y-38975192D01*
X133739406Y-39234635D01*
X133719520Y-39500000D01*
X132195499Y-39500000D01*
X132195499Y-38177128D01*
X132189091Y-38117517D01*
X132138796Y-37982669D01*
X132052546Y-37867454D01*
X131937331Y-37781204D01*
X131802483Y-37730909D01*
X131742873Y-37724500D01*
X131739550Y-37724500D01*
X129100439Y-37724500D01*
X129100420Y-37724500D01*
X129097128Y-37724501D01*
X129093848Y-37724853D01*
X129093840Y-37724854D01*
X129037515Y-37730909D01*
X128902669Y-37781204D01*
X128787454Y-37867454D01*
X128701204Y-37982668D01*
X128650909Y-38117516D01*
X128645090Y-38171644D01*
X128644500Y-38177127D01*
X128644500Y-38180448D01*
X128644500Y-38180449D01*
X128644500Y-40819560D01*
X128644500Y-40819578D01*
X121004169Y-40819578D01*
X116961819Y-36777228D01*
X116928334Y-36715905D01*
X116925500Y-36689547D01*
X116925500Y-34600226D01*
X116945185Y-34533187D01*
X116978377Y-34498651D01*
X116978450Y-34498600D01*
X117171401Y-34363495D01*
X117338495Y-34196401D01*
X117448732Y-34038965D01*
X117503306Y-33995342D01*
X117572805Y-33988148D01*
X117635160Y-34019671D01*
X117651880Y-34038967D01*
X117761890Y-34196078D01*
X117928918Y-34363106D01*
X118122423Y-34498600D01*
X118336509Y-34598430D01*
X118550000Y-34655634D01*
X118549999Y-33608018D01*
X118664801Y-33660446D01*
X118766025Y-33675000D01*
X118833975Y-33675000D01*
X118935199Y-33660446D01*
X119050000Y-33608018D01*
X119050000Y-34655633D01*
X119263490Y-34598430D01*
X119477578Y-34498599D01*
X119671078Y-34363109D01*
X119838109Y-34196078D01*
X119948119Y-34038968D01*
X120002696Y-33995343D01*
X120072194Y-33988149D01*
X120134549Y-34019672D01*
X120151268Y-34038966D01*
X120261505Y-34196401D01*
X120428599Y-34363495D01*
X120622170Y-34499035D01*
X120836337Y-34598903D01*
X121064592Y-34660063D01*
X121300000Y-34680659D01*
X121535408Y-34660063D01*
X121763663Y-34598903D01*
X121977829Y-34499035D01*
X122171401Y-34363495D01*
X122318602Y-34216294D01*
X122379925Y-34182809D01*
X122449617Y-34187793D01*
X122505550Y-34229665D01*
X122511822Y-34238879D01*
X122515185Y-34244331D01*
X122515186Y-34244334D01*
X122560840Y-34318352D01*
X122607288Y-34393657D01*
X122731342Y-34517711D01*
X122731344Y-34517712D01*
X122880666Y-34609814D01*
X122992016Y-34646712D01*
X123047202Y-34664999D01*
X123146858Y-34675180D01*
X123146859Y-34675180D01*
X123149991Y-34675500D01*
X124450008Y-34675499D01*
X124552797Y-34664999D01*
X124719334Y-34609814D01*
X124868656Y-34517712D01*
X124992712Y-34393656D01*
X125084814Y-34244334D01*
X125139999Y-34077797D01*
X125150500Y-33975009D01*
X125150499Y-32424992D01*
X125139999Y-32322203D01*
X125084814Y-32155666D01*
X124992712Y-32006344D01*
X124992711Y-32006342D01*
X124868657Y-31882288D01*
X124719334Y-31790186D01*
X124552797Y-31735000D01*
X124453141Y-31724819D01*
X124453122Y-31724818D01*
X124450009Y-31724500D01*
X124446860Y-31724500D01*
X123153140Y-31724500D01*
X123153120Y-31724500D01*
X123149992Y-31724501D01*
X123146860Y-31724820D01*
X123146858Y-31724821D01*
X123047203Y-31735000D01*
X122880665Y-31790186D01*
X122731342Y-31882288D01*
X122607289Y-32006341D01*
X122511821Y-32161121D01*
X122459873Y-32207845D01*
X122390910Y-32219068D01*
X122326828Y-32191224D01*
X122318601Y-32183705D01*
X122171404Y-32036508D01*
X122171403Y-32036507D01*
X122171401Y-32036505D01*
X121977830Y-31900965D01*
X121763663Y-31801097D01*
X121702501Y-31784709D01*
X121535407Y-31739936D01*
X121300000Y-31719340D01*
X121064592Y-31739936D01*
X120836336Y-31801097D01*
X120622170Y-31900965D01*
X120428598Y-32036505D01*
X120261508Y-32203595D01*
X120151269Y-32361033D01*
X120096692Y-32404657D01*
X120027193Y-32411850D01*
X119964839Y-32380328D01*
X119948119Y-32361032D01*
X119838109Y-32203921D01*
X119671081Y-32036893D01*
X119477576Y-31901399D01*
X119263492Y-31801569D01*
X119050000Y-31744364D01*
X119050000Y-32791981D01*
X118935199Y-32739554D01*
X118833975Y-32725000D01*
X118766025Y-32725000D01*
X118664801Y-32739554D01*
X118549999Y-32791981D01*
X118550000Y-31744364D01*
X118549999Y-31744364D01*
X118336507Y-31801569D01*
X118122421Y-31901400D01*
X117928921Y-32036890D01*
X117761893Y-32203918D01*
X117651880Y-32361033D01*
X117597303Y-32404658D01*
X117527804Y-32411850D01*
X117465450Y-32380328D01*
X117448730Y-32361032D01*
X117443492Y-32353552D01*
X117338495Y-32203599D01*
X117171401Y-32036505D01*
X116977830Y-31900965D01*
X116763663Y-31801097D01*
X116702501Y-31784709D01*
X116535407Y-31739936D01*
X116299999Y-31719340D01*
X116064592Y-31739936D01*
X115836336Y-31801097D01*
X115622170Y-31900965D01*
X115428598Y-32036505D01*
X115261505Y-32203598D01*
X115125965Y-32397170D01*
X115026097Y-32611336D01*
X114964936Y-32839592D01*
X114949736Y-33013332D01*
X114949500Y-33016034D01*
X114949500Y-33383966D01*
X114949735Y-33386659D01*
X114949736Y-33386667D01*
X114964936Y-33560407D01*
X114995641Y-33675000D01*
X115026097Y-33788663D01*
X115125965Y-34002829D01*
X115261505Y-34196401D01*
X115428599Y-34363495D01*
X115621625Y-34498653D01*
X115665248Y-34553229D01*
X115674500Y-34600227D01*
X115674500Y-36917256D01*
X115672235Y-36937766D01*
X115674439Y-37007872D01*
X115674500Y-37011767D01*
X115674500Y-37039350D01*
X115674988Y-37043219D01*
X115674989Y-37043225D01*
X115675004Y-37043343D01*
X115675918Y-37054967D01*
X115677290Y-37098626D01*
X115682879Y-37117860D01*
X115686825Y-37136916D01*
X115689335Y-37156792D01*
X115705414Y-37197404D01*
X115709197Y-37208451D01*
X115721382Y-37250391D01*
X115731580Y-37267635D01*
X115740136Y-37285100D01*
X115747514Y-37303732D01*
X115747515Y-37303733D01*
X115773180Y-37339059D01*
X115779593Y-37348822D01*
X115801826Y-37386416D01*
X115801829Y-37386419D01*
X115801830Y-37386420D01*
X115815995Y-37400585D01*
X115828627Y-37415375D01*
X115840406Y-37431587D01*
X115874058Y-37459426D01*
X115882699Y-37467289D01*
X132099196Y-53683787D01*
X132112096Y-53699888D01*
X132114213Y-53701876D01*
X132114214Y-53701877D01*
X132163223Y-53747900D01*
X132166020Y-53750611D01*
X132185529Y-53770120D01*
X132188709Y-53772587D01*
X132197571Y-53780155D01*
X132229418Y-53810062D01*
X132246972Y-53819712D01*
X132263236Y-53830396D01*
X132269662Y-53835380D01*
X132279064Y-53842673D01*
X132296881Y-53850383D01*
X132319152Y-53860021D01*
X132329631Y-53865154D01*
X132367908Y-53886197D01*
X132387306Y-53891177D01*
X132405708Y-53897477D01*
X132424104Y-53905438D01*
X132467261Y-53912273D01*
X132478664Y-53914634D01*
X132520981Y-53925500D01*
X132541016Y-53925500D01*
X132560413Y-53927026D01*
X132580196Y-53930160D01*
X132623674Y-53926050D01*
X132635344Y-53925500D01*
X143325500Y-53925500D01*
X143392539Y-53945185D01*
X143438294Y-53997989D01*
X143449500Y-54049500D01*
X143449500Y-58160721D01*
X143449460Y-58163863D01*
X143447242Y-58251362D01*
X143457648Y-58309420D01*
X143458957Y-58318749D01*
X143464926Y-58377438D01*
X143474033Y-58406467D01*
X143477772Y-58421702D01*
X143483141Y-58451652D01*
X143505020Y-58506425D01*
X143508180Y-58515300D01*
X143515336Y-58538109D01*
X143525841Y-58571588D01*
X143540607Y-58598191D01*
X143547337Y-58612364D01*
X143558622Y-58640617D01*
X143591080Y-58689867D01*
X143595961Y-58697923D01*
X143624590Y-58749501D01*
X143644404Y-58772581D01*
X143653856Y-58785116D01*
X143670599Y-58810520D01*
X143712300Y-58852221D01*
X143718705Y-58859132D01*
X143757130Y-58903891D01*
X143757131Y-58903892D01*
X143757134Y-58903895D01*
X143781198Y-58922522D01*
X143792968Y-58932889D01*
X146463181Y-61603101D01*
X146496666Y-61664424D01*
X146499500Y-61690782D01*
X146499500Y-63164547D01*
X146479815Y-63231586D01*
X146463181Y-63252228D01*
X145477228Y-64238181D01*
X145415905Y-64271666D01*
X145389547Y-64274500D01*
X144000226Y-64274500D01*
X143933187Y-64254815D01*
X143898651Y-64221623D01*
X143866943Y-64176339D01*
X143763495Y-64028599D01*
X143596401Y-63861505D01*
X143402829Y-63725965D01*
X143188663Y-63626097D01*
X143162572Y-63619106D01*
X142960407Y-63564936D01*
X142786667Y-63549736D01*
X142786659Y-63549735D01*
X142783966Y-63549500D01*
X142416034Y-63549500D01*
X142413341Y-63549735D01*
X142413332Y-63549736D01*
X142239592Y-63564936D01*
X142011336Y-63626097D01*
X141797170Y-63725965D01*
X141603598Y-63861505D01*
X141436508Y-64028595D01*
X141436505Y-64028598D01*
X141436505Y-64028599D01*
X141333057Y-64176339D01*
X141300964Y-64222172D01*
X141201097Y-64436337D01*
X141139936Y-64664592D01*
X141119340Y-64899999D01*
X141139936Y-65135407D01*
X141188007Y-65314811D01*
X141201097Y-65363663D01*
X141300965Y-65577829D01*
X141436505Y-65771401D01*
X141603599Y-65938495D01*
X141743332Y-66036337D01*
X141761032Y-66048730D01*
X141804657Y-66103307D01*
X141811851Y-66172805D01*
X141780328Y-66235160D01*
X141761033Y-66251880D01*
X141603918Y-66361893D01*
X141436893Y-66528918D01*
X141301399Y-66722423D01*
X141201569Y-66936507D01*
X141144364Y-67149999D01*
X141144364Y-67150000D01*
X142196031Y-67150000D01*
X142163481Y-67200649D01*
X142125000Y-67331705D01*
X142125000Y-67468295D01*
X142163481Y-67599351D01*
X142196031Y-67650000D01*
X141144364Y-67650000D01*
X141201569Y-67863492D01*
X141301400Y-68077578D01*
X141436890Y-68271078D01*
X141603921Y-68438109D01*
X141761032Y-68548119D01*
X141804657Y-68602696D01*
X141811851Y-68672194D01*
X141780328Y-68734549D01*
X141761033Y-68751269D01*
X141603595Y-68861508D01*
X141436508Y-69028595D01*
X141436505Y-69028598D01*
X141436505Y-69028599D01*
X141403750Y-69075379D01*
X141300964Y-69222172D01*
X141201097Y-69436337D01*
X141139936Y-69664592D01*
X141119340Y-69900000D01*
X141139936Y-70135407D01*
X141201097Y-70363663D01*
X141300965Y-70577829D01*
X141436505Y-70771401D01*
X141583705Y-70918601D01*
X141617190Y-70979924D01*
X141612206Y-71049616D01*
X141570334Y-71105549D01*
X141561121Y-71111821D01*
X141406341Y-71207289D01*
X141282288Y-71331342D01*
X141190186Y-71480665D01*
X141135000Y-71647202D01*
X141124819Y-71746858D01*
X141124817Y-71746878D01*
X141124500Y-71749991D01*
X141124500Y-71753138D01*
X141124500Y-71753139D01*
X141124500Y-73046859D01*
X141124500Y-73046878D01*
X141124501Y-73050008D01*
X141124820Y-73053140D01*
X141124821Y-73053141D01*
X141135000Y-73152796D01*
X141190186Y-73319334D01*
X141282288Y-73468657D01*
X141406342Y-73592711D01*
X141462895Y-73627593D01*
X141555666Y-73684814D01*
X141667016Y-73721712D01*
X141722202Y-73739999D01*
X141821858Y-73750180D01*
X141821859Y-73750180D01*
X141824991Y-73750500D01*
X143375008Y-73750499D01*
X143477797Y-73739999D01*
X143644334Y-73684814D01*
X143793656Y-73592712D01*
X143917712Y-73468656D01*
X144009814Y-73319334D01*
X144064999Y-73152797D01*
X144075500Y-73050009D01*
X144075499Y-71749992D01*
X144064999Y-71647203D01*
X144009814Y-71480666D01*
X143917712Y-71331344D01*
X143917711Y-71331342D01*
X143793657Y-71207288D01*
X143638879Y-71111821D01*
X143592154Y-71059873D01*
X143580931Y-70990911D01*
X143608775Y-70926828D01*
X143616272Y-70918623D01*
X143763495Y-70771401D01*
X143899035Y-70577830D01*
X143998903Y-70363663D01*
X144060063Y-70135408D01*
X144080659Y-69900000D01*
X144060063Y-69664592D01*
X143998903Y-69436337D01*
X143899035Y-69222171D01*
X143763495Y-69028599D01*
X143596401Y-68861505D01*
X143438966Y-68751268D01*
X143395343Y-68696692D01*
X143388150Y-68627193D01*
X143419672Y-68564839D01*
X143438968Y-68548119D01*
X143596078Y-68438109D01*
X143763106Y-68271081D01*
X143898600Y-68077576D01*
X143998430Y-67863492D01*
X144055636Y-67650000D01*
X143003969Y-67650000D01*
X143036519Y-67599351D01*
X143075000Y-67468295D01*
X143075000Y-67331705D01*
X143036519Y-67200649D01*
X143003969Y-67150000D01*
X144055636Y-67150000D01*
X144055635Y-67149999D01*
X143998430Y-66936507D01*
X143898599Y-66722421D01*
X143763109Y-66528921D01*
X143596078Y-66361890D01*
X143438967Y-66251880D01*
X143395342Y-66197303D01*
X143388148Y-66127805D01*
X143419671Y-66065450D01*
X143438960Y-66048735D01*
X143596401Y-65938495D01*
X143763495Y-65771401D01*
X143898653Y-65578374D01*
X143953229Y-65534752D01*
X144000227Y-65525500D01*
X145617256Y-65525500D01*
X145637762Y-65527764D01*
X145640665Y-65527672D01*
X145640667Y-65527673D01*
X145707872Y-65525561D01*
X145711768Y-65525500D01*
X145735448Y-65525500D01*
X145739350Y-65525500D01*
X145743313Y-65524999D01*
X145754962Y-65524080D01*
X145798627Y-65522709D01*
X145817859Y-65517120D01*
X145836918Y-65513174D01*
X145843196Y-65512381D01*
X145856792Y-65510664D01*
X145897407Y-65494582D01*
X145908444Y-65490803D01*
X145950390Y-65478618D01*
X145967629Y-65468422D01*
X145985102Y-65459862D01*
X146003732Y-65452486D01*
X146039064Y-65426814D01*
X146048830Y-65420400D01*
X146086418Y-65398171D01*
X146086417Y-65398171D01*
X146086420Y-65398170D01*
X146100585Y-65384004D01*
X146115373Y-65371373D01*
X146131587Y-65359594D01*
X146159438Y-65325926D01*
X146167269Y-65317319D01*
X146287822Y-65196767D01*
X146349142Y-65163285D01*
X146418834Y-65168269D01*
X146474767Y-65210141D01*
X146499184Y-65275605D01*
X146499500Y-65284451D01*
X146499500Y-76494217D01*
X146479815Y-76561256D01*
X146463181Y-76581898D01*
X137260646Y-85784432D01*
X137199323Y-85817917D01*
X137154484Y-85819366D01*
X137022682Y-85799500D01*
X137022681Y-85799500D01*
X136757319Y-85799500D01*
X136757318Y-85799500D01*
X136494920Y-85839050D01*
X136241346Y-85917267D01*
X136239959Y-85917935D01*
X136238290Y-85918209D01*
X136232470Y-85920005D01*
X136232224Y-85919208D01*
X136171017Y-85929283D01*
X136106884Y-85901557D01*
X136098483Y-85893893D01*
X134478493Y-84273903D01*
X132820802Y-82616211D01*
X132807906Y-82600113D01*
X132756775Y-82552098D01*
X132753978Y-82549387D01*
X132737227Y-82532636D01*
X132734471Y-82529880D01*
X132731290Y-82527412D01*
X132722422Y-82519837D01*
X132690582Y-82489938D01*
X132673024Y-82480285D01*
X132656764Y-82469604D01*
X132640936Y-82457327D01*
X132600851Y-82439980D01*
X132590361Y-82434841D01*
X132552091Y-82413802D01*
X132532691Y-82408821D01*
X132514284Y-82402519D01*
X132495897Y-82394562D01*
X132452758Y-82387729D01*
X132441324Y-82385361D01*
X132399019Y-82374500D01*
X132378984Y-82374500D01*
X132359586Y-82372973D01*
X132340398Y-82369934D01*
X132339805Y-82369840D01*
X132339804Y-82369840D01*
X132306751Y-82372964D01*
X132296325Y-82373950D01*
X132284656Y-82374500D01*
X111900226Y-82374500D01*
X111833187Y-82354815D01*
X111798651Y-82321623D01*
X111663494Y-82128598D01*
X111496404Y-81961508D01*
X111496401Y-81961505D01*
X111338966Y-81851268D01*
X111295343Y-81796692D01*
X111288150Y-81727193D01*
X111319672Y-81664839D01*
X111338968Y-81648119D01*
X111496078Y-81538109D01*
X111663106Y-81371081D01*
X111798600Y-81177576D01*
X111898430Y-80963492D01*
X111955636Y-80750000D01*
X110903969Y-80750000D01*
X110936519Y-80699351D01*
X110975000Y-80568295D01*
X110975000Y-80431705D01*
X110936519Y-80300649D01*
X110903969Y-80250000D01*
X111955636Y-80250000D01*
X111955635Y-80249999D01*
X111898430Y-80036507D01*
X111798599Y-79822421D01*
X111663109Y-79628921D01*
X111496078Y-79461890D01*
X111338967Y-79351880D01*
X111295342Y-79297303D01*
X111288148Y-79227805D01*
X111319671Y-79165450D01*
X111338960Y-79148735D01*
X111496401Y-79038495D01*
X111663495Y-78871401D01*
X111799035Y-78677830D01*
X111898903Y-78463663D01*
X111960063Y-78235408D01*
X111980659Y-78000000D01*
X111960063Y-77764592D01*
X111898903Y-77536337D01*
X111799035Y-77322171D01*
X111663495Y-77128599D01*
X111516294Y-76981397D01*
X111482809Y-76920075D01*
X111487793Y-76850383D01*
X111529665Y-76794450D01*
X111538879Y-76788178D01*
X111544331Y-76784814D01*
X111544334Y-76784814D01*
X111693656Y-76692712D01*
X111817712Y-76568656D01*
X111909814Y-76419334D01*
X111964999Y-76252797D01*
X111975500Y-76150009D01*
X111975499Y-74849992D01*
X111964999Y-74747203D01*
X111909814Y-74580666D01*
X111817712Y-74431344D01*
X111817711Y-74431342D01*
X111693657Y-74307288D01*
X111544334Y-74215186D01*
X111377797Y-74160000D01*
X111278141Y-74149819D01*
X111278122Y-74149818D01*
X111275009Y-74149500D01*
X111271860Y-74149500D01*
X109728140Y-74149500D01*
X109728120Y-74149500D01*
X109724992Y-74149501D01*
X109721860Y-74149820D01*
X109721858Y-74149821D01*
X109622203Y-74160000D01*
X109455665Y-74215186D01*
X109306342Y-74307288D01*
X109182288Y-74431342D01*
X109090186Y-74580665D01*
X109035000Y-74747202D01*
X109024819Y-74846858D01*
X109024817Y-74846878D01*
X109024500Y-74849991D01*
X109024500Y-74853138D01*
X109024500Y-74853139D01*
X109024500Y-76146859D01*
X109024500Y-76146878D01*
X109024501Y-76150008D01*
X109024820Y-76153140D01*
X109024821Y-76153141D01*
X109035000Y-76252796D01*
X109090186Y-76419334D01*
X109182288Y-76568657D01*
X109306342Y-76692711D01*
X109461120Y-76788178D01*
X109507845Y-76840126D01*
X109519068Y-76909088D01*
X109491225Y-76973170D01*
X109483705Y-76981398D01*
X109336505Y-77128599D01*
X109219120Y-77296243D01*
X109200964Y-77322172D01*
X109101097Y-77536337D01*
X109039936Y-77764592D01*
X109019340Y-78000000D01*
X109039936Y-78235407D01*
X109101097Y-78463663D01*
X109200965Y-78677829D01*
X109336505Y-78871401D01*
X109503598Y-79038494D01*
X109661032Y-79148730D01*
X109704657Y-79203307D01*
X109711851Y-79272805D01*
X109680328Y-79335160D01*
X109661033Y-79351880D01*
X109503918Y-79461893D01*
X109336893Y-79628918D01*
X109201399Y-79822423D01*
X109101569Y-80036507D01*
X109044364Y-80249999D01*
X109044364Y-80250000D01*
X110096031Y-80250000D01*
X110063481Y-80300649D01*
X110025000Y-80431705D01*
X110025000Y-80568295D01*
X110063481Y-80699351D01*
X110096031Y-80750000D01*
X109044364Y-80750000D01*
X109101569Y-80963492D01*
X109201400Y-81177578D01*
X109336890Y-81371078D01*
X109503921Y-81538109D01*
X109661032Y-81648119D01*
X109704657Y-81702696D01*
X109711851Y-81772194D01*
X109680328Y-81834549D01*
X109661033Y-81851268D01*
X109510979Y-81956338D01*
X109503595Y-81961508D01*
X109336508Y-82128595D01*
X109336505Y-82128598D01*
X109336505Y-82128599D01*
X109316773Y-82156780D01*
X109200964Y-82322172D01*
X109101097Y-82536337D01*
X109039936Y-82764592D01*
X109019340Y-82999999D01*
X109039936Y-83235407D01*
X109101096Y-83463663D01*
X109101097Y-83463663D01*
X109200965Y-83677829D01*
X109336505Y-83871401D01*
X109503599Y-84038495D01*
X109697171Y-84174035D01*
X109911337Y-84273903D01*
X110139592Y-84335063D01*
X110316034Y-84350500D01*
X110318742Y-84350500D01*
X110681258Y-84350500D01*
X110683966Y-84350500D01*
X110860408Y-84335063D01*
X111088663Y-84273903D01*
X111302829Y-84174035D01*
X111496401Y-84038495D01*
X111663495Y-83871401D01*
X111798653Y-83678374D01*
X111853229Y-83634752D01*
X111900227Y-83625500D01*
X132009548Y-83625500D01*
X132076587Y-83645185D01*
X132097229Y-83661819D01*
X135217366Y-86781957D01*
X135250851Y-86843280D01*
X135245867Y-86912972D01*
X135245114Y-86914939D01*
X135193414Y-87046673D01*
X135134364Y-87305383D01*
X135114534Y-87570000D01*
X135134364Y-87834616D01*
X135193414Y-88093329D01*
X135283326Y-88322421D01*
X135290361Y-88340345D01*
X135298040Y-88353645D01*
X135330659Y-88410144D01*
X135423042Y-88570155D01*
X135588492Y-88777623D01*
X135748764Y-88926333D01*
X135783018Y-88958116D01*
X136001630Y-89107163D01*
X136002268Y-89107598D01*
X136241350Y-89222734D01*
X136494922Y-89300950D01*
X136710748Y-89333480D01*
X136757318Y-89340500D01*
X136757319Y-89340500D01*
X137022682Y-89340500D01*
X137062232Y-89334538D01*
X137285078Y-89300950D01*
X137538650Y-89222734D01*
X137777733Y-89107598D01*
X137954452Y-88987112D01*
X137996986Y-88958113D01*
X138172493Y-88795266D01*
X138191508Y-88777623D01*
X138356958Y-88570155D01*
X138489639Y-88340345D01*
X138586586Y-88093327D01*
X138645635Y-87834619D01*
X138665465Y-87570000D01*
X138645641Y-87305457D01*
X138644941Y-87296114D01*
X138647621Y-87295913D01*
X138651018Y-87240498D01*
X138679952Y-87194967D01*
X148197389Y-77677529D01*
X148199559Y-77675413D01*
X148263053Y-77615059D01*
X148296759Y-77566630D01*
X148302428Y-77559113D01*
X148321000Y-77536337D01*
X148339698Y-77513407D01*
X148353783Y-77486439D01*
X148361918Y-77473015D01*
X148368373Y-77463740D01*
X148379295Y-77448049D01*
X148402568Y-77393815D01*
X148406598Y-77385331D01*
X148433908Y-77333051D01*
X148433909Y-77333049D01*
X148442278Y-77303797D01*
X148447534Y-77289032D01*
X148459540Y-77261058D01*
X148471418Y-77203256D01*
X148473651Y-77194156D01*
X148489887Y-77137418D01*
X148492197Y-77107077D01*
X148494376Y-77091535D01*
X148500500Y-77061741D01*
X148500500Y-77002757D01*
X148500858Y-76993342D01*
X148505337Y-76934524D01*
X148501493Y-76904339D01*
X148500500Y-76888676D01*
X148500500Y-69899999D01*
X150419340Y-69899999D01*
X150439936Y-70135407D01*
X150501097Y-70363663D01*
X150600965Y-70577829D01*
X150736505Y-70771401D01*
X150883705Y-70918601D01*
X150917190Y-70979924D01*
X150912206Y-71049616D01*
X150870334Y-71105549D01*
X150861121Y-71111821D01*
X150706341Y-71207289D01*
X150582288Y-71331342D01*
X150490186Y-71480665D01*
X150435000Y-71647202D01*
X150424819Y-71746858D01*
X150424817Y-71746878D01*
X150424500Y-71749991D01*
X150424500Y-71753138D01*
X150424500Y-71753139D01*
X150424500Y-73046859D01*
X150424500Y-73046878D01*
X150424501Y-73050008D01*
X150424820Y-73053140D01*
X150424821Y-73053141D01*
X150435000Y-73152796D01*
X150490186Y-73319334D01*
X150582288Y-73468657D01*
X150706342Y-73592711D01*
X150762895Y-73627593D01*
X150855666Y-73684814D01*
X150967016Y-73721712D01*
X151022202Y-73739999D01*
X151121858Y-73750180D01*
X151121859Y-73750180D01*
X151124991Y-73750500D01*
X152675008Y-73750499D01*
X152777797Y-73739999D01*
X152944334Y-73684814D01*
X153093656Y-73592712D01*
X153217712Y-73468656D01*
X153309814Y-73319334D01*
X153364999Y-73152797D01*
X153375500Y-73050009D01*
X153375499Y-71749992D01*
X153364999Y-71647203D01*
X153309814Y-71480666D01*
X153217712Y-71331344D01*
X153217711Y-71331342D01*
X153093657Y-71207288D01*
X152938879Y-71111821D01*
X152892154Y-71059873D01*
X152880931Y-70990911D01*
X152908775Y-70926828D01*
X152916272Y-70918623D01*
X153063495Y-70771401D01*
X153199035Y-70577830D01*
X153298903Y-70363663D01*
X153360063Y-70135408D01*
X153380659Y-69900000D01*
X153360063Y-69664592D01*
X153298903Y-69436337D01*
X153199035Y-69222171D01*
X153063495Y-69028599D01*
X152896401Y-68861505D01*
X152738966Y-68751268D01*
X152695343Y-68696692D01*
X152688150Y-68627193D01*
X152719672Y-68564839D01*
X152738968Y-68548119D01*
X152896078Y-68438109D01*
X153063106Y-68271081D01*
X153198600Y-68077576D01*
X153298430Y-67863492D01*
X153355636Y-67650000D01*
X152303969Y-67650000D01*
X152336519Y-67599351D01*
X152375000Y-67468295D01*
X152375000Y-67331705D01*
X152336519Y-67200649D01*
X152303969Y-67150000D01*
X153355636Y-67150000D01*
X153355635Y-67149999D01*
X153298430Y-66936507D01*
X153198599Y-66722421D01*
X153063109Y-66528921D01*
X152896078Y-66361890D01*
X152702578Y-66226400D01*
X152488492Y-66126569D01*
X152260318Y-66065430D01*
X152150000Y-66055778D01*
X152150000Y-66991981D01*
X152035199Y-66939554D01*
X151933975Y-66925000D01*
X151866025Y-66925000D01*
X151764801Y-66939554D01*
X151650000Y-66991981D01*
X151650000Y-66055778D01*
X151649999Y-66055778D01*
X151539681Y-66065430D01*
X151311507Y-66126569D01*
X151097421Y-66226400D01*
X150903921Y-66361890D01*
X150736893Y-66528918D01*
X150601399Y-66722423D01*
X150501569Y-66936507D01*
X150444364Y-67149999D01*
X150444364Y-67150000D01*
X151496031Y-67150000D01*
X151463481Y-67200649D01*
X151425000Y-67331705D01*
X151425000Y-67468295D01*
X151463481Y-67599351D01*
X151496031Y-67650000D01*
X150444364Y-67650000D01*
X150501569Y-67863492D01*
X150601400Y-68077578D01*
X150736890Y-68271078D01*
X150903921Y-68438109D01*
X151061032Y-68548119D01*
X151104657Y-68602696D01*
X151111851Y-68672194D01*
X151080328Y-68734549D01*
X151061033Y-68751269D01*
X150903595Y-68861508D01*
X150736508Y-69028595D01*
X150736505Y-69028598D01*
X150736505Y-69028599D01*
X150703750Y-69075379D01*
X150600964Y-69222172D01*
X150501097Y-69436337D01*
X150439936Y-69664592D01*
X150419340Y-69899999D01*
X148500500Y-69899999D01*
X148500500Y-62500000D01*
X151075001Y-62500000D01*
X151075001Y-62746829D01*
X151075321Y-62753111D01*
X151085493Y-62852695D01*
X151140642Y-63019122D01*
X151232683Y-63168345D01*
X151356654Y-63292316D01*
X151505877Y-63384357D01*
X151672303Y-63439506D01*
X151771891Y-63449680D01*
X151778167Y-63449999D01*
X151837499Y-63449998D01*
X151837500Y-63449998D01*
X151837500Y-62500000D01*
X151075001Y-62500000D01*
X148500500Y-62500000D01*
X148500500Y-62000000D01*
X151075000Y-62000000D01*
X151837500Y-62000000D01*
X151837500Y-61050000D01*
X151837499Y-61049999D01*
X151778171Y-61050000D01*
X151771888Y-61050321D01*
X151672304Y-61060493D01*
X151505877Y-61115642D01*
X151356654Y-61207683D01*
X151232683Y-61331654D01*
X151140642Y-61480877D01*
X151085493Y-61647303D01*
X151075319Y-61746890D01*
X151075000Y-61753168D01*
X151075000Y-62000000D01*
X148500500Y-62000000D01*
X148500500Y-61690781D01*
X148520185Y-61623742D01*
X148536814Y-61603105D01*
X151003101Y-59136817D01*
X151064424Y-59103333D01*
X151090782Y-59100499D01*
X151746859Y-59100499D01*
X151750008Y-59100499D01*
X151852797Y-59089999D01*
X152019334Y-59034814D01*
X152168656Y-58942712D01*
X152292712Y-58818656D01*
X152384814Y-58669334D01*
X152439999Y-58502797D01*
X152450500Y-58400009D01*
X152450499Y-58271277D01*
X152470183Y-58204240D01*
X152522987Y-58158485D01*
X152592145Y-58148541D01*
X152655701Y-58177565D01*
X152662180Y-58183598D01*
X153250681Y-58772098D01*
X153284166Y-58833421D01*
X153287000Y-58859779D01*
X153287000Y-61072911D01*
X153267315Y-61139950D01*
X153228098Y-61178449D01*
X153181344Y-61207287D01*
X153087327Y-61301304D01*
X153026004Y-61334788D01*
X152956312Y-61329804D01*
X152911965Y-61301303D01*
X152818345Y-61207683D01*
X152669122Y-61115642D01*
X152502696Y-61060493D01*
X152403109Y-61050319D01*
X152396832Y-61050000D01*
X152337500Y-61050000D01*
X152337500Y-63449999D01*
X152396829Y-63449999D01*
X152403111Y-63449678D01*
X152502695Y-63439506D01*
X152669122Y-63384357D01*
X152818344Y-63292316D01*
X152911964Y-63198696D01*
X152973287Y-63165210D01*
X153042978Y-63170194D01*
X153087325Y-63198693D01*
X153135834Y-63247202D01*
X153181345Y-63292713D01*
X153256004Y-63338762D01*
X153330666Y-63384814D01*
X153442017Y-63421712D01*
X153497202Y-63439999D01*
X153596858Y-63450180D01*
X153596859Y-63450180D01*
X153599991Y-63450500D01*
X154225008Y-63450499D01*
X154327797Y-63439999D01*
X154494334Y-63384814D01*
X154643656Y-63292712D01*
X154767712Y-63168656D01*
X154859814Y-63019334D01*
X154914999Y-62852797D01*
X154925500Y-62750009D01*
X154925499Y-61749992D01*
X154914999Y-61647203D01*
X154859814Y-61480666D01*
X154767712Y-61331344D01*
X154767711Y-61331342D01*
X154643657Y-61207288D01*
X154596902Y-61178449D01*
X154550178Y-61126501D01*
X154538000Y-61072911D01*
X154538000Y-58632067D01*
X154540263Y-58611566D01*
X154538061Y-58541471D01*
X154538000Y-58537577D01*
X154538000Y-58513871D01*
X154538000Y-58509977D01*
X154537498Y-58506008D01*
X154536580Y-58494351D01*
X154536190Y-58481930D01*
X154535209Y-58450700D01*
X154529620Y-58431467D01*
X154525674Y-58412409D01*
X154523164Y-58392533D01*
X154507088Y-58351931D01*
X154503304Y-58340880D01*
X154496874Y-58318749D01*
X154491118Y-58298937D01*
X154480914Y-58281682D01*
X154472361Y-58264222D01*
X154464986Y-58245595D01*
X154439308Y-58210252D01*
X154432901Y-58200498D01*
X154410670Y-58162907D01*
X154396506Y-58148743D01*
X154383867Y-58133944D01*
X154372095Y-58117740D01*
X154338441Y-58089900D01*
X154329799Y-58082036D01*
X153497762Y-57249999D01*
X152690229Y-56442465D01*
X152656746Y-56381145D01*
X152661730Y-56311453D01*
X152690229Y-56267108D01*
X156220223Y-52737115D01*
X156281544Y-52703632D01*
X156351236Y-52708616D01*
X156407169Y-52750488D01*
X156409461Y-52753652D01*
X156529174Y-52924620D01*
X156685380Y-53080826D01*
X156866338Y-53207534D01*
X156963403Y-53252796D01*
X156995189Y-53267618D01*
X157047628Y-53313790D01*
X157066780Y-53380984D01*
X157046564Y-53447865D01*
X156995189Y-53492382D01*
X156866338Y-53552466D01*
X156685379Y-53679174D01*
X156529174Y-53835379D01*
X156402466Y-54016338D01*
X156309106Y-54216548D01*
X156251929Y-54429934D01*
X156232676Y-54650000D01*
X156251929Y-54870065D01*
X156309106Y-55083451D01*
X156342382Y-55154811D01*
X156402466Y-55283662D01*
X156529174Y-55464620D01*
X156685380Y-55620826D01*
X156866338Y-55747534D01*
X156975899Y-55798623D01*
X156995189Y-55807618D01*
X157047628Y-55853790D01*
X157066780Y-55920984D01*
X157046564Y-55987865D01*
X156995189Y-56032382D01*
X156866338Y-56092466D01*
X156685379Y-56219174D01*
X156529174Y-56375379D01*
X156402466Y-56556338D01*
X156309106Y-56756548D01*
X156251929Y-56969934D01*
X156232676Y-57190000D01*
X156251929Y-57410065D01*
X156309106Y-57623451D01*
X156368117Y-57750000D01*
X156402466Y-57823662D01*
X156529174Y-58004620D01*
X156685380Y-58160826D01*
X156866338Y-58287534D01*
X156980739Y-58340880D01*
X156995189Y-58347618D01*
X157047628Y-58393790D01*
X157066780Y-58460984D01*
X157046564Y-58527865D01*
X156995189Y-58572382D01*
X156866338Y-58632466D01*
X156685379Y-58759174D01*
X156529174Y-58915379D01*
X156402466Y-59096338D01*
X156309106Y-59296548D01*
X156251929Y-59509934D01*
X156232676Y-59730000D01*
X156251929Y-59950065D01*
X156309106Y-60163451D01*
X156336611Y-60222435D01*
X156402466Y-60363662D01*
X156529174Y-60544620D01*
X156685380Y-60700826D01*
X156866338Y-60827534D01*
X156985748Y-60883215D01*
X156995189Y-60887618D01*
X157047628Y-60933790D01*
X157066780Y-61000984D01*
X157046564Y-61067865D01*
X156995189Y-61112382D01*
X156866338Y-61172466D01*
X156685379Y-61299174D01*
X156529174Y-61455379D01*
X156402466Y-61636338D01*
X156309106Y-61836548D01*
X156251929Y-62049934D01*
X156232676Y-62269999D01*
X156251929Y-62490065D01*
X156309106Y-62703451D01*
X156332263Y-62753111D01*
X156402466Y-62903662D01*
X156529174Y-63084620D01*
X156685380Y-63240826D01*
X156866338Y-63367534D01*
X156985748Y-63423215D01*
X156995189Y-63427618D01*
X157047628Y-63473790D01*
X157066780Y-63540984D01*
X157046564Y-63607865D01*
X156995189Y-63652382D01*
X156866338Y-63712466D01*
X156685379Y-63839174D01*
X156529174Y-63995379D01*
X156402466Y-64176338D01*
X156309106Y-64376548D01*
X156251929Y-64589934D01*
X156232676Y-64809999D01*
X156251929Y-65030065D01*
X156309106Y-65243451D01*
X156365162Y-65363663D01*
X156402466Y-65443662D01*
X156529174Y-65624620D01*
X156685380Y-65780826D01*
X156866338Y-65907534D01*
X156932730Y-65938493D01*
X156995780Y-65967894D01*
X157048219Y-66014066D01*
X157067371Y-66081260D01*
X157047155Y-66148141D01*
X156995780Y-66192658D01*
X156866589Y-66252900D01*
X156801812Y-66298258D01*
X156801811Y-66298258D01*
X157360400Y-66856847D01*
X157355408Y-66857565D01*
X157222530Y-66918248D01*
X157112131Y-67013910D01*
X157033155Y-67136799D01*
X157010477Y-67214030D01*
X156448258Y-66651811D01*
X156448258Y-66651812D01*
X156402900Y-66716589D01*
X156309578Y-66916719D01*
X156252424Y-67130021D01*
X156233178Y-67350000D01*
X156252424Y-67569978D01*
X156309579Y-67783281D01*
X156402898Y-67983406D01*
X156448258Y-68048187D01*
X157010477Y-67485968D01*
X157033155Y-67563201D01*
X157112131Y-67686090D01*
X157222530Y-67781752D01*
X157355408Y-67842435D01*
X157360400Y-67843152D01*
X156801812Y-68401740D01*
X156866592Y-68447100D01*
X156995780Y-68507341D01*
X157048220Y-68553513D01*
X157067372Y-68620706D01*
X157047157Y-68687587D01*
X156995782Y-68732105D01*
X156866336Y-68792467D01*
X156685379Y-68919174D01*
X156529174Y-69075379D01*
X156402466Y-69256338D01*
X156309106Y-69456548D01*
X156251929Y-69669934D01*
X156232676Y-69889999D01*
X156251929Y-70110065D01*
X156309106Y-70323451D01*
X156342382Y-70394811D01*
X156402466Y-70523662D01*
X156529174Y-70704620D01*
X156685380Y-70860826D01*
X156866338Y-70987534D01*
X156985748Y-71043215D01*
X156995189Y-71047618D01*
X157047628Y-71093790D01*
X157066780Y-71160984D01*
X157046564Y-71227865D01*
X156995189Y-71272382D01*
X156866338Y-71332466D01*
X156685379Y-71459174D01*
X156529174Y-71615379D01*
X156402466Y-71796338D01*
X156309106Y-71996548D01*
X156251929Y-72209934D01*
X156232676Y-72430000D01*
X156251929Y-72650065D01*
X156309106Y-72863451D01*
X156397560Y-73053141D01*
X156402466Y-73063662D01*
X156529174Y-73244620D01*
X156685380Y-73400826D01*
X156866338Y-73527534D01*
X156985748Y-73583215D01*
X156995189Y-73587618D01*
X157047628Y-73633790D01*
X157066780Y-73700984D01*
X157046564Y-73767865D01*
X156995189Y-73812382D01*
X156866338Y-73872466D01*
X156685379Y-73999174D01*
X156529174Y-74155379D01*
X156402466Y-74336338D01*
X156309106Y-74536548D01*
X156251929Y-74749934D01*
X156232676Y-74970000D01*
X156251929Y-75190065D01*
X156309106Y-75403451D01*
X156342382Y-75474811D01*
X156402466Y-75603662D01*
X156529174Y-75784620D01*
X156685380Y-75940826D01*
X156866338Y-76067534D01*
X156985748Y-76123215D01*
X156995189Y-76127618D01*
X157047628Y-76173790D01*
X157066780Y-76240984D01*
X157046564Y-76307865D01*
X156995189Y-76352382D01*
X156866338Y-76412466D01*
X156685379Y-76539174D01*
X156529174Y-76695379D01*
X156402466Y-76876338D01*
X156309106Y-77076548D01*
X156251929Y-77289934D01*
X156232676Y-77510000D01*
X156251929Y-77730065D01*
X156309106Y-77943451D01*
X156336611Y-78002435D01*
X156402466Y-78143662D01*
X156529174Y-78324620D01*
X156685380Y-78480826D01*
X156866338Y-78607534D01*
X156985748Y-78663215D01*
X156995189Y-78667618D01*
X157047628Y-78713790D01*
X157066780Y-78780984D01*
X157046564Y-78847865D01*
X156995189Y-78892382D01*
X156866338Y-78952466D01*
X156685379Y-79079174D01*
X156529174Y-79235379D01*
X156402466Y-79416338D01*
X156309106Y-79616548D01*
X156251929Y-79829934D01*
X156232676Y-80050000D01*
X156251929Y-80270065D01*
X156309106Y-80483451D01*
X156402466Y-80683662D01*
X156529174Y-80864620D01*
X156685380Y-81020826D01*
X156866338Y-81147534D01*
X156930764Y-81177576D01*
X156995189Y-81207618D01*
X157047628Y-81253790D01*
X157066780Y-81320984D01*
X157046564Y-81387865D01*
X156995189Y-81432382D01*
X156866338Y-81492466D01*
X156685379Y-81619174D01*
X156529174Y-81775379D01*
X156402466Y-81956338D01*
X156309106Y-82156548D01*
X156251929Y-82369934D01*
X156232676Y-82589999D01*
X156251929Y-82810065D01*
X156309106Y-83023451D01*
X156342382Y-83094811D01*
X156402466Y-83223662D01*
X156529174Y-83404620D01*
X156685380Y-83560826D01*
X156866338Y-83687534D01*
X156936173Y-83720098D01*
X156995780Y-83747894D01*
X157048219Y-83794066D01*
X157067371Y-83861260D01*
X157047155Y-83928141D01*
X156995780Y-83972658D01*
X156866589Y-84032900D01*
X156801812Y-84078258D01*
X156801811Y-84078258D01*
X157360400Y-84636847D01*
X157355408Y-84637565D01*
X157222530Y-84698248D01*
X157112131Y-84793910D01*
X157033155Y-84916799D01*
X157010477Y-84994030D01*
X156448258Y-84431811D01*
X156448258Y-84431812D01*
X156402900Y-84496589D01*
X156309578Y-84696719D01*
X156252424Y-84910021D01*
X156233178Y-85129999D01*
X156252424Y-85349978D01*
X156309579Y-85563281D01*
X156402898Y-85763406D01*
X156448258Y-85828187D01*
X157010477Y-85265968D01*
X157033155Y-85343201D01*
X157112131Y-85466090D01*
X157222530Y-85561752D01*
X157355408Y-85622435D01*
X157360400Y-85623152D01*
X156801812Y-86181740D01*
X156866593Y-86227101D01*
X157066718Y-86320420D01*
X157280021Y-86377575D01*
X157462580Y-86393547D01*
X157527649Y-86418999D01*
X157568628Y-86475590D01*
X157572506Y-86545352D01*
X157538052Y-86606136D01*
X157496211Y-86632839D01*
X157306770Y-86705559D01*
X157300846Y-86708196D01*
X156970423Y-86876555D01*
X156964802Y-86879801D01*
X156653797Y-87081770D01*
X156648543Y-87085587D01*
X156405750Y-87282197D01*
X157990677Y-88867124D01*
X157903075Y-88926333D01*
X157734094Y-89088288D01*
X157636581Y-89220133D01*
X156052197Y-87635750D01*
X155855587Y-87878543D01*
X155851770Y-87883797D01*
X155649801Y-88194802D01*
X155646555Y-88200423D01*
X155478196Y-88530846D01*
X155475559Y-88536770D01*
X155342658Y-88882988D01*
X155340659Y-88889140D01*
X155244676Y-89247356D01*
X155243328Y-89253699D01*
X155185315Y-89619975D01*
X155184638Y-89626418D01*
X155165230Y-89996756D01*
X155165230Y-90003243D01*
X155184638Y-90373581D01*
X155185315Y-90380024D01*
X155243328Y-90746300D01*
X155244676Y-90752643D01*
X155340659Y-91110859D01*
X155342658Y-91117011D01*
X155475559Y-91463229D01*
X155478196Y-91469153D01*
X155646555Y-91799576D01*
X155649801Y-91805197D01*
X155851770Y-92116202D01*
X155855587Y-92121456D01*
X156052197Y-92364248D01*
X157635874Y-90780571D01*
X157660507Y-90820577D01*
X157815144Y-90996278D01*
X157987835Y-91135716D01*
X156405750Y-92717801D01*
X156648543Y-92914412D01*
X156653797Y-92918229D01*
X156964802Y-93120198D01*
X156970423Y-93123444D01*
X157042828Y-93160336D01*
X157093624Y-93208310D01*
X157110419Y-93276131D01*
X157087882Y-93342266D01*
X157033167Y-93385718D01*
X156986545Y-93394821D01*
X111544777Y-93399254D01*
X111477736Y-93379576D01*
X111431976Y-93326776D01*
X111422025Y-93257619D01*
X111451044Y-93194060D01*
X111488471Y-93164769D01*
X111569569Y-93123448D01*
X111575197Y-93120198D01*
X111886202Y-92918229D01*
X111891456Y-92914412D01*
X112134249Y-92717802D01*
X110549322Y-91132875D01*
X110636925Y-91073667D01*
X110805906Y-90911712D01*
X110903419Y-90779866D01*
X112487802Y-92364249D01*
X112684412Y-92121456D01*
X112688229Y-92116202D01*
X112890198Y-91805197D01*
X112893444Y-91799576D01*
X113061803Y-91469153D01*
X113064440Y-91463229D01*
X113197341Y-91117011D01*
X113199340Y-91110859D01*
X113295323Y-90752643D01*
X113296671Y-90746300D01*
X113354684Y-90380024D01*
X113355361Y-90373581D01*
X113374770Y-90003243D01*
X113374770Y-89996756D01*
X113369415Y-89894578D01*
X146609500Y-89894578D01*
X146609501Y-89897872D01*
X146609853Y-89901152D01*
X146609854Y-89901159D01*
X146615909Y-89957483D01*
X146666204Y-90092331D01*
X146752454Y-90207546D01*
X146867669Y-90293796D01*
X147002517Y-90344091D01*
X147062127Y-90350500D01*
X148857872Y-90350499D01*
X148917483Y-90344091D01*
X149052331Y-90293796D01*
X149167546Y-90207546D01*
X149253796Y-90092331D01*
X149303003Y-89960399D01*
X149344873Y-89904467D01*
X149410337Y-89880050D01*
X149478610Y-89894901D01*
X149506865Y-89916053D01*
X149628918Y-90038106D01*
X149822423Y-90173600D01*
X150036509Y-90273430D01*
X150250000Y-90330634D01*
X150250000Y-89435501D01*
X150357685Y-89484680D01*
X150464237Y-89500000D01*
X150535763Y-89500000D01*
X150642315Y-89484680D01*
X150750000Y-89435501D01*
X150750000Y-90330633D01*
X150963490Y-90273430D01*
X151177576Y-90173600D01*
X151371081Y-90038106D01*
X151538106Y-89871081D01*
X151673600Y-89677576D01*
X151773430Y-89463492D01*
X151830636Y-89250000D01*
X150933686Y-89250000D01*
X150959493Y-89209844D01*
X151000000Y-89071889D01*
X151000000Y-88928111D01*
X150959493Y-88790156D01*
X150933686Y-88750000D01*
X151830636Y-88750000D01*
X151830635Y-88749999D01*
X151773430Y-88536507D01*
X151673599Y-88322421D01*
X151538109Y-88128921D01*
X151371081Y-87961893D01*
X151177576Y-87826399D01*
X150963492Y-87726569D01*
X150750000Y-87669364D01*
X150750000Y-88564498D01*
X150642315Y-88515320D01*
X150535763Y-88500000D01*
X150464237Y-88500000D01*
X150357685Y-88515320D01*
X150250000Y-88564498D01*
X150250000Y-87669364D01*
X150249999Y-87669364D01*
X150036507Y-87726569D01*
X149822421Y-87826400D01*
X149628924Y-87961888D01*
X149506865Y-88083947D01*
X149445542Y-88117431D01*
X149375850Y-88112447D01*
X149319917Y-88070575D01*
X149303002Y-88039598D01*
X149274018Y-87961888D01*
X149253796Y-87907669D01*
X149167546Y-87792454D01*
X149052331Y-87706204D01*
X148917483Y-87655909D01*
X148857873Y-87649500D01*
X148854550Y-87649500D01*
X147065439Y-87649500D01*
X147065420Y-87649500D01*
X147062128Y-87649501D01*
X147058848Y-87649853D01*
X147058840Y-87649854D01*
X147002515Y-87655909D01*
X146867669Y-87706204D01*
X146752454Y-87792454D01*
X146666204Y-87907668D01*
X146615909Y-88042516D01*
X146611455Y-88083947D01*
X146609500Y-88102127D01*
X146609500Y-88105448D01*
X146609500Y-88105449D01*
X146609500Y-89894560D01*
X146609500Y-89894578D01*
X113369415Y-89894578D01*
X113355361Y-89626418D01*
X113354684Y-89619975D01*
X113296671Y-89253699D01*
X113295323Y-89247356D01*
X113199340Y-88889140D01*
X113197341Y-88882988D01*
X113064440Y-88536770D01*
X113061803Y-88530846D01*
X112893444Y-88200423D01*
X112890198Y-88194802D01*
X112688229Y-87883797D01*
X112684412Y-87878543D01*
X112487801Y-87635750D01*
X110904124Y-89219427D01*
X110879493Y-89179423D01*
X110724856Y-89003722D01*
X110552164Y-88864283D01*
X111846447Y-87569999D01*
X117335036Y-87569999D01*
X117354861Y-87834542D01*
X117413894Y-88093182D01*
X117510813Y-88340126D01*
X117643456Y-88569871D01*
X117693642Y-88632803D01*
X117693643Y-88632803D01*
X118626923Y-87699523D01*
X118650507Y-87779844D01*
X118728239Y-87900798D01*
X118836900Y-87994952D01*
X118967685Y-88054680D01*
X118977466Y-88056086D01*
X118046438Y-88987112D01*
X118222521Y-89107163D01*
X118461533Y-89222265D01*
X118715034Y-89300461D01*
X118977356Y-89340000D01*
X119242644Y-89340000D01*
X119504965Y-89300461D01*
X119758469Y-89222265D01*
X119997481Y-89107163D01*
X120173560Y-88987112D01*
X119242533Y-88056086D01*
X119252315Y-88054680D01*
X119383100Y-87994952D01*
X119491761Y-87900798D01*
X119569493Y-87779844D01*
X119593076Y-87699524D01*
X120526355Y-88632803D01*
X120576543Y-88569870D01*
X120709186Y-88340126D01*
X120806105Y-88093182D01*
X120865138Y-87834542D01*
X120884963Y-87569999D01*
X120865138Y-87305457D01*
X120806105Y-87046817D01*
X120709186Y-86799873D01*
X120576543Y-86570128D01*
X120526355Y-86507195D01*
X119593076Y-87440474D01*
X119569493Y-87360156D01*
X119491761Y-87239202D01*
X119383100Y-87145048D01*
X119252315Y-87085320D01*
X119242534Y-87083913D01*
X120173560Y-86152886D01*
X119997481Y-86032836D01*
X119758469Y-85917734D01*
X119504965Y-85839538D01*
X119242644Y-85800000D01*
X118977356Y-85800000D01*
X118715034Y-85839538D01*
X118461533Y-85917734D01*
X118222518Y-86032837D01*
X118046438Y-86152886D01*
X118977466Y-87083913D01*
X118967685Y-87085320D01*
X118836900Y-87145048D01*
X118728239Y-87239202D01*
X118650507Y-87360156D01*
X118626923Y-87440476D01*
X117693643Y-86507196D01*
X117643455Y-86570130D01*
X117510813Y-86799873D01*
X117413894Y-87046817D01*
X117354861Y-87305457D01*
X117335036Y-87569999D01*
X111846447Y-87569999D01*
X112134249Y-87282197D01*
X111891456Y-87085587D01*
X111886202Y-87081770D01*
X111575197Y-86879801D01*
X111569576Y-86876555D01*
X111239153Y-86708196D01*
X111233229Y-86705559D01*
X110887011Y-86572658D01*
X110880859Y-86570659D01*
X110522643Y-86474676D01*
X110516300Y-86473328D01*
X110150024Y-86415315D01*
X110143581Y-86414638D01*
X109773244Y-86395230D01*
X109766756Y-86395230D01*
X109396418Y-86414638D01*
X109389975Y-86415315D01*
X109023699Y-86473328D01*
X109017356Y-86474676D01*
X108659140Y-86570659D01*
X108652988Y-86572658D01*
X108306770Y-86705559D01*
X108300846Y-86708196D01*
X107970423Y-86876555D01*
X107964802Y-86879801D01*
X107653797Y-87081770D01*
X107648543Y-87085587D01*
X107405750Y-87282197D01*
X108990677Y-88867124D01*
X108903075Y-88926333D01*
X108734094Y-89088288D01*
X108636580Y-89220133D01*
X107052197Y-87635750D01*
X106855587Y-87878543D01*
X106851770Y-87883797D01*
X106649801Y-88194802D01*
X106646555Y-88200423D01*
X106568485Y-88353645D01*
X106520510Y-88404441D01*
X106452689Y-88421236D01*
X106386554Y-88398698D01*
X106343103Y-88343983D01*
X106334000Y-88297350D01*
X106334000Y-66499999D01*
X109044340Y-66499999D01*
X109064936Y-66735407D01*
X109113928Y-66918248D01*
X109126097Y-66963663D01*
X109225965Y-67177829D01*
X109361505Y-67371401D01*
X109528599Y-67538495D01*
X109573690Y-67570068D01*
X109686032Y-67648730D01*
X109729657Y-67703307D01*
X109736851Y-67772805D01*
X109705328Y-67835160D01*
X109686033Y-67851880D01*
X109528918Y-67961893D01*
X109361893Y-68128918D01*
X109226399Y-68322423D01*
X109126569Y-68536507D01*
X109069364Y-68749999D01*
X109069364Y-68750000D01*
X110121031Y-68750000D01*
X110088481Y-68800649D01*
X110050000Y-68931705D01*
X110050000Y-69068295D01*
X110088481Y-69199351D01*
X110121031Y-69250000D01*
X109069364Y-69250000D01*
X109126569Y-69463492D01*
X109226400Y-69677578D01*
X109361890Y-69871078D01*
X109528921Y-70038109D01*
X109722421Y-70173599D01*
X109936507Y-70273430D01*
X110164682Y-70334569D01*
X110275000Y-70344220D01*
X110275000Y-69408018D01*
X110389801Y-69460446D01*
X110491025Y-69475000D01*
X110558975Y-69475000D01*
X110660199Y-69460446D01*
X110775000Y-69408018D01*
X110775000Y-70344219D01*
X110885317Y-70334569D01*
X111113492Y-70273430D01*
X111327578Y-70173599D01*
X111521078Y-70038109D01*
X111688106Y-69871081D01*
X111823600Y-69677576D01*
X111923430Y-69463492D01*
X111980636Y-69250000D01*
X110928969Y-69250000D01*
X110961519Y-69199351D01*
X111000000Y-69068295D01*
X111000000Y-68931705D01*
X110961519Y-68800649D01*
X110928969Y-68750000D01*
X111980636Y-68750000D01*
X111980635Y-68749999D01*
X111923430Y-68536507D01*
X111823599Y-68322421D01*
X111688109Y-68128921D01*
X111521078Y-67961890D01*
X111363967Y-67851880D01*
X111320342Y-67797303D01*
X111313148Y-67727805D01*
X111344671Y-67665450D01*
X111363960Y-67648735D01*
X111521401Y-67538495D01*
X111688495Y-67371401D01*
X111824035Y-67177830D01*
X111923903Y-66963663D01*
X111985063Y-66735408D01*
X112005659Y-66500000D01*
X111985063Y-66264592D01*
X111923903Y-66036337D01*
X111824035Y-65822171D01*
X111688495Y-65628599D01*
X111541294Y-65481397D01*
X111507809Y-65420075D01*
X111512793Y-65350383D01*
X111554665Y-65294450D01*
X111563879Y-65288178D01*
X111569331Y-65284814D01*
X111569334Y-65284814D01*
X111718656Y-65192712D01*
X111842712Y-65068656D01*
X111934814Y-64919334D01*
X111989999Y-64752797D01*
X112000500Y-64650009D01*
X112000499Y-63349992D01*
X111989999Y-63247203D01*
X111934814Y-63080666D01*
X111842712Y-62931344D01*
X111842711Y-62931342D01*
X111718657Y-62807288D01*
X111569334Y-62715186D01*
X111402797Y-62660000D01*
X111303141Y-62649819D01*
X111303122Y-62649818D01*
X111300009Y-62649500D01*
X111296860Y-62649500D01*
X109753140Y-62649500D01*
X109753120Y-62649500D01*
X109749992Y-62649501D01*
X109746860Y-62649820D01*
X109746858Y-62649821D01*
X109647203Y-62660000D01*
X109480665Y-62715186D01*
X109331342Y-62807288D01*
X109207288Y-62931342D01*
X109115186Y-63080665D01*
X109060000Y-63247202D01*
X109049819Y-63346858D01*
X109049817Y-63346878D01*
X109049500Y-63349991D01*
X109049500Y-63353138D01*
X109049500Y-63353139D01*
X109049500Y-64646859D01*
X109049500Y-64646878D01*
X109049501Y-64650008D01*
X109049820Y-64653140D01*
X109049821Y-64653141D01*
X109060000Y-64752796D01*
X109115186Y-64919334D01*
X109207288Y-65068657D01*
X109331342Y-65192711D01*
X109465736Y-65275605D01*
X109480077Y-65284451D01*
X109486120Y-65288178D01*
X109532845Y-65340126D01*
X109544068Y-65409088D01*
X109516225Y-65473170D01*
X109508705Y-65481398D01*
X109361505Y-65628599D01*
X109254915Y-65780826D01*
X109225964Y-65822172D01*
X109126097Y-66036337D01*
X109064936Y-66264592D01*
X109044340Y-66499999D01*
X106334000Y-66499999D01*
X106334000Y-55000000D01*
X109069340Y-55000000D01*
X109089936Y-55235407D01*
X109151097Y-55463663D01*
X109250965Y-55677829D01*
X109386505Y-55871401D01*
X109553598Y-56038494D01*
X109711032Y-56148730D01*
X109754657Y-56203307D01*
X109761851Y-56272805D01*
X109730328Y-56335160D01*
X109711033Y-56351880D01*
X109553918Y-56461893D01*
X109386893Y-56628918D01*
X109251399Y-56822423D01*
X109151569Y-57036507D01*
X109094364Y-57249999D01*
X109094364Y-57250000D01*
X110146031Y-57250000D01*
X110113481Y-57300649D01*
X110075000Y-57431705D01*
X110075000Y-57568295D01*
X110113481Y-57699351D01*
X110146031Y-57750000D01*
X109094364Y-57750000D01*
X109151569Y-57963492D01*
X109251400Y-58177578D01*
X109386890Y-58371078D01*
X109553921Y-58538109D01*
X109747421Y-58673599D01*
X109961507Y-58773430D01*
X110189682Y-58834569D01*
X110300000Y-58844220D01*
X110300000Y-57908018D01*
X110414801Y-57960446D01*
X110516025Y-57975000D01*
X110583975Y-57975000D01*
X110685199Y-57960446D01*
X110799999Y-57908018D01*
X110799999Y-58844219D01*
X110910317Y-58834569D01*
X111138492Y-58773430D01*
X111352578Y-58673599D01*
X111546078Y-58538109D01*
X111713106Y-58371081D01*
X111848600Y-58177576D01*
X111948430Y-57963492D01*
X112005636Y-57750000D01*
X110953969Y-57750000D01*
X110986519Y-57699351D01*
X111025000Y-57568295D01*
X111025000Y-57431705D01*
X110986519Y-57300649D01*
X110953969Y-57250000D01*
X112005636Y-57250000D01*
X112005635Y-57249999D01*
X111948430Y-57036507D01*
X111848599Y-56822421D01*
X111713109Y-56628921D01*
X111546078Y-56461890D01*
X111388967Y-56351880D01*
X111345342Y-56297303D01*
X111338148Y-56227805D01*
X111369671Y-56165450D01*
X111388960Y-56148735D01*
X111546401Y-56038495D01*
X111713495Y-55871401D01*
X111849035Y-55677830D01*
X111948903Y-55463663D01*
X112010063Y-55235408D01*
X112030659Y-55000000D01*
X112010063Y-54764592D01*
X111948903Y-54536337D01*
X111849035Y-54322171D01*
X111713495Y-54128599D01*
X111566293Y-53981397D01*
X111532809Y-53920075D01*
X111537793Y-53850383D01*
X111579665Y-53794450D01*
X111588879Y-53788178D01*
X111594331Y-53784814D01*
X111594334Y-53784814D01*
X111743656Y-53692712D01*
X111867712Y-53568656D01*
X111959814Y-53419334D01*
X112014999Y-53252797D01*
X112025500Y-53150009D01*
X112025499Y-51849992D01*
X112014999Y-51747203D01*
X111959814Y-51580666D01*
X111867712Y-51431344D01*
X111867711Y-51431342D01*
X111743657Y-51307288D01*
X111594334Y-51215186D01*
X111427797Y-51160000D01*
X111328141Y-51149819D01*
X111328122Y-51149818D01*
X111325009Y-51149500D01*
X111321860Y-51149500D01*
X109778140Y-51149500D01*
X109778120Y-51149500D01*
X109774992Y-51149501D01*
X109771860Y-51149820D01*
X109771858Y-51149821D01*
X109672203Y-51160000D01*
X109505665Y-51215186D01*
X109356342Y-51307288D01*
X109232288Y-51431342D01*
X109140186Y-51580665D01*
X109085000Y-51747202D01*
X109074819Y-51846858D01*
X109074817Y-51846878D01*
X109074500Y-51849991D01*
X109074500Y-51853138D01*
X109074500Y-51853139D01*
X109074500Y-53146859D01*
X109074500Y-53146878D01*
X109074501Y-53150008D01*
X109074820Y-53153140D01*
X109074821Y-53153141D01*
X109085000Y-53252796D01*
X109140186Y-53419334D01*
X109232288Y-53568657D01*
X109356342Y-53692711D01*
X109511120Y-53788178D01*
X109557845Y-53840126D01*
X109569068Y-53909088D01*
X109541225Y-53973170D01*
X109533705Y-53981398D01*
X109386505Y-54128599D01*
X109324923Y-54216548D01*
X109250964Y-54322172D01*
X109151097Y-54536337D01*
X109089936Y-54764592D01*
X109069340Y-55000000D01*
X106334000Y-55000000D01*
X106334000Y-43499999D01*
X109069340Y-43499999D01*
X109089936Y-43735407D01*
X109127736Y-43876477D01*
X109151097Y-43963663D01*
X109250965Y-44177829D01*
X109386505Y-44371401D01*
X109553599Y-44538495D01*
X109622610Y-44586817D01*
X109711032Y-44648730D01*
X109754657Y-44703307D01*
X109761851Y-44772805D01*
X109730328Y-44835160D01*
X109711033Y-44851880D01*
X109553918Y-44961893D01*
X109386893Y-45128918D01*
X109251399Y-45322423D01*
X109151569Y-45536507D01*
X109094364Y-45749999D01*
X109094364Y-45750000D01*
X110146031Y-45750000D01*
X110113481Y-45800649D01*
X110075000Y-45931705D01*
X110075000Y-46068295D01*
X110113481Y-46199351D01*
X110146031Y-46250000D01*
X109094364Y-46250000D01*
X109151569Y-46463492D01*
X109251400Y-46677578D01*
X109386890Y-46871078D01*
X109553921Y-47038109D01*
X109747421Y-47173599D01*
X109961507Y-47273430D01*
X110189682Y-47334569D01*
X110300000Y-47344220D01*
X110300000Y-46408018D01*
X110414801Y-46460446D01*
X110516025Y-46475000D01*
X110583975Y-46475000D01*
X110685199Y-46460446D01*
X110799999Y-46408018D01*
X110799999Y-47344219D01*
X110910317Y-47334569D01*
X111138492Y-47273430D01*
X111352578Y-47173599D01*
X111546078Y-47038109D01*
X111654188Y-46929999D01*
X117335036Y-46929999D01*
X117354861Y-47194542D01*
X117413894Y-47453182D01*
X117510813Y-47700126D01*
X117643456Y-47929871D01*
X117693642Y-47992803D01*
X117693643Y-47992803D01*
X118626923Y-47059523D01*
X118650507Y-47139844D01*
X118728239Y-47260798D01*
X118836900Y-47354952D01*
X118967685Y-47414680D01*
X118977466Y-47416086D01*
X118046438Y-48347112D01*
X118222521Y-48467163D01*
X118461533Y-48582265D01*
X118715034Y-48660461D01*
X118977356Y-48700000D01*
X119242644Y-48700000D01*
X119504965Y-48660461D01*
X119758469Y-48582265D01*
X119997481Y-48467163D01*
X120173560Y-48347112D01*
X119242533Y-47416086D01*
X119252315Y-47414680D01*
X119383100Y-47354952D01*
X119491761Y-47260798D01*
X119569493Y-47139844D01*
X119593076Y-47059524D01*
X120526355Y-47992803D01*
X120576543Y-47929870D01*
X120709186Y-47700126D01*
X120806105Y-47453182D01*
X120865138Y-47194542D01*
X120884963Y-46929999D01*
X120865138Y-46665457D01*
X120806105Y-46406817D01*
X120709186Y-46159873D01*
X120576543Y-45930128D01*
X120526355Y-45867195D01*
X119593076Y-46800474D01*
X119569493Y-46720156D01*
X119491761Y-46599202D01*
X119383100Y-46505048D01*
X119252315Y-46445320D01*
X119242534Y-46443913D01*
X120173560Y-45512886D01*
X119997481Y-45392836D01*
X119758469Y-45277734D01*
X119504965Y-45199538D01*
X119242644Y-45160000D01*
X118977356Y-45160000D01*
X118715034Y-45199538D01*
X118461533Y-45277734D01*
X118222518Y-45392837D01*
X118046438Y-45512886D01*
X118977466Y-46443913D01*
X118967685Y-46445320D01*
X118836900Y-46505048D01*
X118728239Y-46599202D01*
X118650507Y-46720156D01*
X118626923Y-46800476D01*
X117693643Y-45867196D01*
X117643455Y-45930130D01*
X117510813Y-46159873D01*
X117413894Y-46406817D01*
X117354861Y-46665457D01*
X117335036Y-46929999D01*
X111654188Y-46929999D01*
X111713106Y-46871081D01*
X111848600Y-46677576D01*
X111948430Y-46463492D01*
X112005636Y-46250000D01*
X110953969Y-46250000D01*
X110986519Y-46199351D01*
X111025000Y-46068295D01*
X111025000Y-45931705D01*
X110986519Y-45800649D01*
X110953969Y-45750000D01*
X112005636Y-45750000D01*
X112005635Y-45749999D01*
X111948430Y-45536507D01*
X111848599Y-45322421D01*
X111713109Y-45128921D01*
X111546078Y-44961890D01*
X111388967Y-44851880D01*
X111345342Y-44797303D01*
X111338148Y-44727805D01*
X111369671Y-44665450D01*
X111388960Y-44648735D01*
X111546401Y-44538495D01*
X111713495Y-44371401D01*
X111849035Y-44177830D01*
X111948903Y-43963663D01*
X112010063Y-43735408D01*
X112030659Y-43500000D01*
X112010063Y-43264592D01*
X111948903Y-43036337D01*
X111849035Y-42822171D01*
X111713495Y-42628599D01*
X111566294Y-42481397D01*
X111532809Y-42420075D01*
X111537793Y-42350383D01*
X111579665Y-42294450D01*
X111588879Y-42288178D01*
X111594331Y-42284814D01*
X111594334Y-42284814D01*
X111743656Y-42192712D01*
X111867712Y-42068656D01*
X111959814Y-41919334D01*
X112014999Y-41752797D01*
X112025500Y-41650009D01*
X112025499Y-40349992D01*
X112014999Y-40247203D01*
X111959814Y-40080666D01*
X111867712Y-39931344D01*
X111867711Y-39931342D01*
X111743657Y-39807288D01*
X111594334Y-39715186D01*
X111427797Y-39660000D01*
X111328141Y-39649819D01*
X111328122Y-39649818D01*
X111325009Y-39649500D01*
X111321860Y-39649500D01*
X109778140Y-39649500D01*
X109778120Y-39649500D01*
X109774992Y-39649501D01*
X109771860Y-39649820D01*
X109771858Y-39649821D01*
X109672203Y-39660000D01*
X109505665Y-39715186D01*
X109356342Y-39807288D01*
X109232288Y-39931342D01*
X109140186Y-40080665D01*
X109085000Y-40247202D01*
X109074819Y-40346858D01*
X109074817Y-40346878D01*
X109074500Y-40349991D01*
X109074500Y-40353138D01*
X109074500Y-40353139D01*
X109074500Y-41646859D01*
X109074500Y-41646878D01*
X109074501Y-41650008D01*
X109074820Y-41653140D01*
X109074821Y-41653141D01*
X109085000Y-41752796D01*
X109140186Y-41919334D01*
X109232288Y-42068657D01*
X109356342Y-42192711D01*
X109511120Y-42288178D01*
X109557845Y-42340126D01*
X109569068Y-42409088D01*
X109541225Y-42473170D01*
X109533705Y-42481398D01*
X109386505Y-42628599D01*
X109265067Y-42802031D01*
X109250964Y-42822172D01*
X109151097Y-43036337D01*
X109089936Y-43264592D01*
X109069340Y-43499999D01*
X106334000Y-43499999D01*
X106334000Y-33702649D01*
X106353685Y-33635610D01*
X106406489Y-33589855D01*
X106475647Y-33579911D01*
X106539203Y-33608936D01*
X106568485Y-33646354D01*
X106646555Y-33799576D01*
X106649801Y-33805197D01*
X106851770Y-34116202D01*
X106855587Y-34121456D01*
X107052197Y-34364248D01*
X108635874Y-32780571D01*
X108660507Y-32820577D01*
X108815144Y-32996278D01*
X108987835Y-33135716D01*
X107405750Y-34717801D01*
X107648543Y-34914412D01*
X107653797Y-34918229D01*
X107964802Y-35120198D01*
X107970423Y-35123444D01*
X108300846Y-35291803D01*
X108306770Y-35294440D01*
X108652988Y-35427341D01*
X108659140Y-35429340D01*
X109017356Y-35525323D01*
X109023699Y-35526671D01*
X109389975Y-35584684D01*
X109396418Y-35585361D01*
X109766756Y-35604770D01*
X109773244Y-35604770D01*
X110143581Y-35585361D01*
X110150024Y-35584684D01*
X110516300Y-35526671D01*
X110522643Y-35525323D01*
X110880859Y-35429340D01*
X110887011Y-35427341D01*
X111233229Y-35294440D01*
X111239153Y-35291803D01*
X111569576Y-35123444D01*
X111575197Y-35120198D01*
X111886202Y-34918229D01*
X111891456Y-34914412D01*
X112134249Y-34717802D01*
X110549322Y-33132875D01*
X110636925Y-33073667D01*
X110805906Y-32911712D01*
X110903419Y-32779866D01*
X112487802Y-34364249D01*
X112684412Y-34121456D01*
X112688229Y-34116202D01*
X112890198Y-33805197D01*
X112893444Y-33799576D01*
X113061803Y-33469153D01*
X113064440Y-33463229D01*
X113197341Y-33117011D01*
X113199340Y-33110859D01*
X113295323Y-32752643D01*
X113296671Y-32746300D01*
X113354684Y-32380024D01*
X113355361Y-32373581D01*
X113374770Y-32003243D01*
X113374770Y-31996756D01*
X113355361Y-31626418D01*
X113354684Y-31619975D01*
X113296671Y-31253699D01*
X113295323Y-31247356D01*
X113199340Y-30889140D01*
X113197341Y-30882988D01*
X113064440Y-30536770D01*
X113061803Y-30530846D01*
X112893444Y-30200423D01*
X112890198Y-30194802D01*
X112688229Y-29883797D01*
X112684412Y-29878543D01*
X112487801Y-29635750D01*
X110904124Y-31219427D01*
X110879493Y-31179423D01*
X110724856Y-31003722D01*
X110552163Y-30864282D01*
X112134248Y-29282197D01*
X111891456Y-29085587D01*
X111886202Y-29081770D01*
X111575197Y-28879801D01*
X111569576Y-28876555D01*
X111416354Y-28798485D01*
X111365558Y-28750510D01*
X111348763Y-28682690D01*
X111371300Y-28616555D01*
X111426015Y-28573103D01*
X111472649Y-28564000D01*
X157067351Y-28564000D01*
X157134390Y-28583685D01*
G37*
%TD.AperFunction*%
%TA.AperFunction,Conductor*%
G36*
X161487802Y-34364249D02*
G01*
X161684412Y-34121456D01*
X161688229Y-34116202D01*
X161890198Y-33805197D01*
X161893444Y-33799576D01*
X161971515Y-33646354D01*
X162019490Y-33595558D01*
X162087310Y-33578763D01*
X162153445Y-33601300D01*
X162196897Y-33656015D01*
X162206000Y-33702649D01*
X162206000Y-88297350D01*
X162186315Y-88364389D01*
X162133511Y-88410144D01*
X162064353Y-88420088D01*
X162000797Y-88391063D01*
X161971515Y-88353645D01*
X161893444Y-88200423D01*
X161890198Y-88194802D01*
X161688229Y-87883797D01*
X161684412Y-87878543D01*
X161487801Y-87635750D01*
X159904124Y-89219427D01*
X159879493Y-89179423D01*
X159724856Y-89003722D01*
X159552164Y-88864283D01*
X161134249Y-87282197D01*
X160891456Y-87085587D01*
X160886202Y-87081770D01*
X160575197Y-86879801D01*
X160569576Y-86876555D01*
X160239153Y-86708196D01*
X160233229Y-86705559D01*
X160044853Y-86633248D01*
X159989321Y-86590846D01*
X159965528Y-86525152D01*
X159981030Y-86457024D01*
X160030903Y-86408091D01*
X160078483Y-86393956D01*
X160260068Y-86378070D01*
X160473450Y-86320894D01*
X160673662Y-86227534D01*
X160854620Y-86100826D01*
X161010826Y-85944620D01*
X161137534Y-85763662D01*
X161230894Y-85563450D01*
X161288070Y-85350068D01*
X161307323Y-85130000D01*
X161288070Y-84909932D01*
X161230894Y-84696550D01*
X161137534Y-84496339D01*
X161010826Y-84315380D01*
X160854620Y-84159174D01*
X160673662Y-84032466D01*
X160544811Y-83972382D01*
X160492372Y-83926210D01*
X160473220Y-83859016D01*
X160493436Y-83792135D01*
X160544811Y-83747618D01*
X160550027Y-83745185D01*
X160673662Y-83687534D01*
X160854620Y-83560826D01*
X161010826Y-83404620D01*
X161137534Y-83223662D01*
X161230894Y-83023450D01*
X161288070Y-82810068D01*
X161307323Y-82590000D01*
X161288070Y-82369932D01*
X161230894Y-82156550D01*
X161137534Y-81956339D01*
X161010826Y-81775380D01*
X160854620Y-81619174D01*
X160673662Y-81492466D01*
X160544811Y-81432382D01*
X160492372Y-81386210D01*
X160473220Y-81319016D01*
X160493436Y-81252135D01*
X160544811Y-81207618D01*
X160550027Y-81205185D01*
X160673662Y-81147534D01*
X160854620Y-81020826D01*
X161010826Y-80864620D01*
X161137534Y-80683662D01*
X161230894Y-80483450D01*
X161288070Y-80270068D01*
X161307323Y-80050000D01*
X161288070Y-79829932D01*
X161230894Y-79616550D01*
X161137534Y-79416339D01*
X161010826Y-79235380D01*
X160854620Y-79079174D01*
X160673662Y-78952466D01*
X160544218Y-78892105D01*
X160491779Y-78845932D01*
X160472627Y-78778739D01*
X160492843Y-78711858D01*
X160544220Y-78667340D01*
X160673411Y-78607098D01*
X160738187Y-78561740D01*
X160179600Y-78003152D01*
X160184592Y-78002435D01*
X160317470Y-77941752D01*
X160427869Y-77846090D01*
X160506845Y-77723201D01*
X160529522Y-77645969D01*
X161091740Y-78208186D01*
X161137100Y-78143408D01*
X161230420Y-77943281D01*
X161287575Y-77729978D01*
X161306821Y-77510000D01*
X161287575Y-77290021D01*
X161230421Y-77076720D01*
X161137098Y-76876589D01*
X161091740Y-76811811D01*
X160529521Y-77374029D01*
X160506845Y-77296799D01*
X160427869Y-77173910D01*
X160317470Y-77078248D01*
X160184592Y-77017565D01*
X160179599Y-77016847D01*
X160738187Y-76458258D01*
X160673406Y-76412898D01*
X160544219Y-76352658D01*
X160491779Y-76306486D01*
X160472627Y-76239293D01*
X160492843Y-76172411D01*
X160544219Y-76127894D01*
X160544811Y-76127618D01*
X160673662Y-76067534D01*
X160854620Y-75940826D01*
X161010826Y-75784620D01*
X161137534Y-75603662D01*
X161230894Y-75403450D01*
X161288070Y-75190068D01*
X161307323Y-74970000D01*
X161288070Y-74749932D01*
X161230894Y-74536550D01*
X161137534Y-74336339D01*
X161010826Y-74155380D01*
X160854620Y-73999174D01*
X160673662Y-73872466D01*
X160544218Y-73812105D01*
X160491779Y-73765932D01*
X160472627Y-73698739D01*
X160492843Y-73631858D01*
X160544220Y-73587340D01*
X160673411Y-73527098D01*
X160738187Y-73481740D01*
X160179600Y-72923152D01*
X160184592Y-72922435D01*
X160317470Y-72861752D01*
X160427869Y-72766090D01*
X160506845Y-72643201D01*
X160529522Y-72565969D01*
X161091740Y-73128186D01*
X161137100Y-73063408D01*
X161230420Y-72863281D01*
X161287575Y-72649978D01*
X161306821Y-72430000D01*
X161287575Y-72210021D01*
X161230421Y-71996720D01*
X161137098Y-71796589D01*
X161091740Y-71731811D01*
X160529521Y-72294029D01*
X160506845Y-72216799D01*
X160427869Y-72093910D01*
X160317470Y-71998248D01*
X160184592Y-71937565D01*
X160179599Y-71936847D01*
X160738187Y-71378258D01*
X160673406Y-71332898D01*
X160544219Y-71272658D01*
X160491779Y-71226486D01*
X160472627Y-71159293D01*
X160492843Y-71092411D01*
X160544219Y-71047894D01*
X160544811Y-71047618D01*
X160673662Y-70987534D01*
X160854620Y-70860826D01*
X161010826Y-70704620D01*
X161137534Y-70523662D01*
X161230894Y-70323450D01*
X161288070Y-70110068D01*
X161307323Y-69890000D01*
X161288070Y-69669932D01*
X161230894Y-69456550D01*
X161137534Y-69256339D01*
X161010826Y-69075380D01*
X160854620Y-68919174D01*
X160673662Y-68792466D01*
X160544811Y-68732382D01*
X160492372Y-68686210D01*
X160473220Y-68619016D01*
X160493436Y-68552135D01*
X160544811Y-68507618D01*
X160550027Y-68505185D01*
X160673662Y-68447534D01*
X160854620Y-68320826D01*
X161010826Y-68164620D01*
X161137534Y-67983662D01*
X161230894Y-67783450D01*
X161288070Y-67570068D01*
X161307323Y-67350000D01*
X161288070Y-67129932D01*
X161230894Y-66916550D01*
X161137534Y-66716339D01*
X161010826Y-66535380D01*
X160854620Y-66379174D01*
X160673662Y-66252466D01*
X160544811Y-66192382D01*
X160492372Y-66146210D01*
X160473220Y-66079016D01*
X160493436Y-66012135D01*
X160544811Y-65967618D01*
X160550027Y-65965185D01*
X160673662Y-65907534D01*
X160854620Y-65780826D01*
X161010826Y-65624620D01*
X161137534Y-65443662D01*
X161230894Y-65243450D01*
X161288070Y-65030068D01*
X161307323Y-64810000D01*
X161288070Y-64589932D01*
X161230894Y-64376550D01*
X161137534Y-64176339D01*
X161010826Y-63995380D01*
X160854620Y-63839174D01*
X160673662Y-63712466D01*
X160544811Y-63652382D01*
X160492372Y-63606210D01*
X160473220Y-63539016D01*
X160493436Y-63472135D01*
X160544811Y-63427618D01*
X160550027Y-63425185D01*
X160673662Y-63367534D01*
X160854620Y-63240826D01*
X161010826Y-63084620D01*
X161137534Y-62903662D01*
X161230894Y-62703450D01*
X161288070Y-62490068D01*
X161307323Y-62270000D01*
X161288070Y-62049932D01*
X161230894Y-61836550D01*
X161137534Y-61636339D01*
X161010826Y-61455380D01*
X160854620Y-61299174D01*
X160673662Y-61172466D01*
X160673661Y-61172465D01*
X160544218Y-61112105D01*
X160491779Y-61065932D01*
X160472627Y-60998739D01*
X160492843Y-60931858D01*
X160544220Y-60887340D01*
X160673411Y-60827098D01*
X160738187Y-60781740D01*
X160179600Y-60223152D01*
X160184592Y-60222435D01*
X160317470Y-60161752D01*
X160427869Y-60066090D01*
X160506845Y-59943201D01*
X160529522Y-59865968D01*
X161091740Y-60428186D01*
X161137100Y-60363408D01*
X161230420Y-60163281D01*
X161287575Y-59949978D01*
X161306821Y-59729999D01*
X161287575Y-59510021D01*
X161230421Y-59296720D01*
X161137098Y-59096589D01*
X161091740Y-59031811D01*
X160529521Y-59594029D01*
X160506845Y-59516799D01*
X160427869Y-59393910D01*
X160317470Y-59298248D01*
X160184592Y-59237565D01*
X160179599Y-59236847D01*
X160738187Y-58678258D01*
X160673406Y-58632898D01*
X160544219Y-58572658D01*
X160491779Y-58526486D01*
X160472627Y-58459293D01*
X160492843Y-58392411D01*
X160544219Y-58347894D01*
X160559261Y-58340880D01*
X160673662Y-58287534D01*
X160854620Y-58160826D01*
X161010826Y-58004620D01*
X161137534Y-57823662D01*
X161230894Y-57623450D01*
X161288070Y-57410068D01*
X161307323Y-57190000D01*
X161288070Y-56969932D01*
X161230894Y-56756550D01*
X161137534Y-56556339D01*
X161010826Y-56375380D01*
X160854620Y-56219174D01*
X160673662Y-56092466D01*
X160544811Y-56032382D01*
X160492372Y-55986210D01*
X160473220Y-55919016D01*
X160493436Y-55852135D01*
X160544811Y-55807618D01*
X160564101Y-55798623D01*
X160673662Y-55747534D01*
X160854620Y-55620826D01*
X161010826Y-55464620D01*
X161137534Y-55283662D01*
X161230894Y-55083450D01*
X161288070Y-54870068D01*
X161307323Y-54650000D01*
X161288070Y-54429932D01*
X161230894Y-54216550D01*
X161137534Y-54016339D01*
X161010826Y-53835380D01*
X160854620Y-53679174D01*
X160673662Y-53552466D01*
X160673661Y-53552465D01*
X160544218Y-53492105D01*
X160491779Y-53445932D01*
X160472627Y-53378739D01*
X160492843Y-53311858D01*
X160544220Y-53267340D01*
X160673411Y-53207098D01*
X160738187Y-53161740D01*
X160179600Y-52603152D01*
X160184592Y-52602435D01*
X160317470Y-52541752D01*
X160427869Y-52446090D01*
X160506845Y-52323201D01*
X160529522Y-52245968D01*
X161091740Y-52808186D01*
X161137100Y-52743408D01*
X161230420Y-52543281D01*
X161287575Y-52329978D01*
X161306821Y-52109999D01*
X161287575Y-51890021D01*
X161230421Y-51676720D01*
X161137098Y-51476589D01*
X161091740Y-51411811D01*
X160529521Y-51974029D01*
X160506845Y-51896799D01*
X160427869Y-51773910D01*
X160317470Y-51678248D01*
X160184592Y-51617565D01*
X160179599Y-51616847D01*
X160738187Y-51058258D01*
X160673406Y-51012898D01*
X160544219Y-50952658D01*
X160491779Y-50906486D01*
X160472627Y-50839293D01*
X160492843Y-50772411D01*
X160544219Y-50727894D01*
X160550425Y-50725000D01*
X160673662Y-50667534D01*
X160854620Y-50540826D01*
X161010826Y-50384620D01*
X161137534Y-50203662D01*
X161230894Y-50003450D01*
X161288070Y-49790068D01*
X161307323Y-49570000D01*
X161304434Y-49536983D01*
X161298705Y-49471492D01*
X161288070Y-49349932D01*
X161230894Y-49136550D01*
X161137534Y-48936339D01*
X161010826Y-48755380D01*
X160854620Y-48599174D01*
X160673662Y-48472466D01*
X160609035Y-48442330D01*
X160544811Y-48412382D01*
X160492372Y-48366210D01*
X160473220Y-48299016D01*
X160493436Y-48232135D01*
X160544811Y-48187618D01*
X160550027Y-48185185D01*
X160673662Y-48127534D01*
X160854620Y-48000826D01*
X161010826Y-47844620D01*
X161137534Y-47663662D01*
X161230894Y-47463450D01*
X161288070Y-47250068D01*
X161307323Y-47030000D01*
X161288070Y-46809932D01*
X161230894Y-46596550D01*
X161137534Y-46396339D01*
X161010826Y-46215380D01*
X160854620Y-46059174D01*
X160673662Y-45932466D01*
X160668648Y-45930128D01*
X160544811Y-45872381D01*
X160492372Y-45826208D01*
X160473220Y-45759015D01*
X160493436Y-45692133D01*
X160544810Y-45647618D01*
X160673662Y-45587534D01*
X160854620Y-45460826D01*
X161010826Y-45304620D01*
X161137534Y-45123662D01*
X161230894Y-44923450D01*
X161288070Y-44710068D01*
X161307323Y-44490000D01*
X161288070Y-44269932D01*
X161230894Y-44056550D01*
X161137534Y-43856339D01*
X161010826Y-43675380D01*
X160854620Y-43519174D01*
X160673662Y-43392466D01*
X160655700Y-43384090D01*
X160544218Y-43332105D01*
X160491779Y-43285932D01*
X160472627Y-43218739D01*
X160492843Y-43151858D01*
X160544220Y-43107340D01*
X160673411Y-43047098D01*
X160738186Y-43001740D01*
X160179598Y-42443152D01*
X160184592Y-42442435D01*
X160317470Y-42381752D01*
X160427869Y-42286090D01*
X160506845Y-42163201D01*
X160529522Y-42085969D01*
X161091740Y-42648186D01*
X161137100Y-42583408D01*
X161230420Y-42383281D01*
X161287575Y-42169978D01*
X161306821Y-41950000D01*
X161287575Y-41730021D01*
X161230421Y-41516720D01*
X161137098Y-41316589D01*
X161091740Y-41251811D01*
X160529521Y-41814029D01*
X160506845Y-41736799D01*
X160427869Y-41613910D01*
X160317470Y-41518248D01*
X160184592Y-41457565D01*
X160179599Y-41456847D01*
X160738187Y-40898258D01*
X160673406Y-40852898D01*
X160544219Y-40792658D01*
X160491779Y-40746486D01*
X160472627Y-40679293D01*
X160492843Y-40612411D01*
X160544219Y-40567894D01*
X160604038Y-40540000D01*
X160673662Y-40507534D01*
X160854620Y-40380826D01*
X161010826Y-40224620D01*
X161137534Y-40043662D01*
X161230894Y-39843450D01*
X161288070Y-39630068D01*
X161307323Y-39410000D01*
X161305572Y-39389991D01*
X161288070Y-39189934D01*
X161288070Y-39189932D01*
X161230894Y-38976550D01*
X161137534Y-38776339D01*
X161010826Y-38595380D01*
X160854620Y-38439174D01*
X160843374Y-38431299D01*
X160799750Y-38376721D01*
X160790500Y-38329726D01*
X160790500Y-37950273D01*
X160810185Y-37883234D01*
X160843375Y-37848699D01*
X160854620Y-37840826D01*
X161010826Y-37684620D01*
X161137534Y-37503662D01*
X161230894Y-37303450D01*
X161288070Y-37090068D01*
X161307323Y-36870000D01*
X161288070Y-36649932D01*
X161230894Y-36436550D01*
X161137534Y-36236339D01*
X161010826Y-36055380D01*
X160854620Y-35899174D01*
X160673662Y-35772466D01*
X160598306Y-35737327D01*
X160473451Y-35679106D01*
X160260065Y-35621929D01*
X160078484Y-35606043D01*
X160013415Y-35580591D01*
X159972436Y-35524000D01*
X159968558Y-35454238D01*
X160003012Y-35393454D01*
X160044854Y-35366751D01*
X160233223Y-35294443D01*
X160239153Y-35291803D01*
X160569576Y-35123444D01*
X160575197Y-35120198D01*
X160886202Y-34918229D01*
X160891456Y-34914412D01*
X161134249Y-34717802D01*
X161134249Y-34717801D01*
X159549323Y-33132875D01*
X159636925Y-33073667D01*
X159805906Y-32911712D01*
X159903419Y-32779866D01*
X161487802Y-34364249D01*
G37*
%TD.AperFunction*%
%TA.AperFunction,Conductor*%
G36*
X158551740Y-85828186D02*
G01*
X158597098Y-85763411D01*
X158657340Y-85634220D01*
X158703512Y-85581780D01*
X158770705Y-85562627D01*
X158837587Y-85582842D01*
X158882105Y-85634218D01*
X158882106Y-85634220D01*
X158942466Y-85763662D01*
X159069174Y-85944620D01*
X159225380Y-86100826D01*
X159387868Y-86214601D01*
X159431493Y-86269178D01*
X159438687Y-86338676D01*
X159407164Y-86401031D01*
X159346934Y-86436445D01*
X159297347Y-86438649D01*
X159150024Y-86415315D01*
X159143581Y-86414638D01*
X158773244Y-86395230D01*
X158766756Y-86395230D01*
X158396418Y-86414638D01*
X158389975Y-86415315D01*
X158241525Y-86438828D01*
X158172231Y-86429873D01*
X158118780Y-86384877D01*
X158098140Y-86318126D01*
X158116865Y-86250812D01*
X158151002Y-86214781D01*
X158198187Y-86181740D01*
X157639600Y-85623152D01*
X157644592Y-85622435D01*
X157777470Y-85561752D01*
X157887869Y-85466090D01*
X157966845Y-85343201D01*
X157989522Y-85265969D01*
X158551740Y-85828186D01*
G37*
%TD.AperFunction*%
%TA.AperFunction,Conductor*%
G36*
X158837865Y-83043436D02*
G01*
X158882382Y-83094811D01*
X158942466Y-83223662D01*
X159069174Y-83404620D01*
X159225380Y-83560826D01*
X159406338Y-83687534D01*
X159525748Y-83743215D01*
X159535189Y-83747618D01*
X159587628Y-83793790D01*
X159606780Y-83860984D01*
X159586564Y-83927865D01*
X159535189Y-83972382D01*
X159406338Y-84032466D01*
X159225379Y-84159174D01*
X159069174Y-84315379D01*
X158942467Y-84496336D01*
X158882105Y-84625782D01*
X158835932Y-84678221D01*
X158768738Y-84697372D01*
X158701857Y-84677156D01*
X158657341Y-84625780D01*
X158597099Y-84496590D01*
X158551740Y-84431811D01*
X157989521Y-84994029D01*
X157966845Y-84916799D01*
X157887869Y-84793910D01*
X157777470Y-84698248D01*
X157644592Y-84637565D01*
X157639599Y-84636847D01*
X158198187Y-84078258D01*
X158133406Y-84032898D01*
X158004219Y-83972658D01*
X157951779Y-83926486D01*
X157932627Y-83859293D01*
X157952843Y-83792411D01*
X158004219Y-83747894D01*
X158004811Y-83747618D01*
X158133662Y-83687534D01*
X158314620Y-83560826D01*
X158470826Y-83404620D01*
X158597534Y-83223662D01*
X158657617Y-83094811D01*
X158703790Y-83042372D01*
X158770984Y-83023220D01*
X158837865Y-83043436D01*
G37*
%TD.AperFunction*%
%TA.AperFunction,Conductor*%
G36*
X159573155Y-77723201D02*
G01*
X159652131Y-77846090D01*
X159762530Y-77941752D01*
X159895408Y-78002435D01*
X159900400Y-78003152D01*
X159341812Y-78561740D01*
X159406592Y-78607100D01*
X159535780Y-78667341D01*
X159588220Y-78713513D01*
X159607372Y-78780706D01*
X159587157Y-78847587D01*
X159535782Y-78892105D01*
X159406336Y-78952467D01*
X159225379Y-79079174D01*
X159069174Y-79235379D01*
X158942466Y-79416338D01*
X158882382Y-79545189D01*
X158836209Y-79597628D01*
X158769016Y-79616780D01*
X158702135Y-79596564D01*
X158657618Y-79545189D01*
X158618775Y-79461890D01*
X158597534Y-79416339D01*
X158470826Y-79235380D01*
X158314620Y-79079174D01*
X158133662Y-78952466D01*
X158004811Y-78892382D01*
X157952372Y-78846210D01*
X157933220Y-78779016D01*
X157953436Y-78712135D01*
X158004811Y-78667618D01*
X158010027Y-78665185D01*
X158133662Y-78607534D01*
X158314620Y-78480826D01*
X158470826Y-78324620D01*
X158597534Y-78143662D01*
X158657894Y-78014218D01*
X158704066Y-77961779D01*
X158771259Y-77942627D01*
X158838141Y-77962842D01*
X158882658Y-78014219D01*
X158942898Y-78143406D01*
X158988258Y-78208187D01*
X159550477Y-77645968D01*
X159573155Y-77723201D01*
G37*
%TD.AperFunction*%
%TA.AperFunction,Conductor*%
G36*
X158837865Y-75423436D02*
G01*
X158882382Y-75474811D01*
X158942466Y-75603662D01*
X159069174Y-75784620D01*
X159225380Y-75940826D01*
X159406338Y-76067534D01*
X159476173Y-76100098D01*
X159535780Y-76127894D01*
X159588219Y-76174066D01*
X159607371Y-76241260D01*
X159587155Y-76308141D01*
X159535780Y-76352658D01*
X159406589Y-76412900D01*
X159341812Y-76458258D01*
X159341811Y-76458258D01*
X159900400Y-77016847D01*
X159895408Y-77017565D01*
X159762530Y-77078248D01*
X159652131Y-77173910D01*
X159573155Y-77296799D01*
X159550477Y-77374030D01*
X158988258Y-76811812D01*
X158942900Y-76876590D01*
X158882657Y-77005781D01*
X158836484Y-77058220D01*
X158769291Y-77077372D01*
X158702409Y-77057156D01*
X158657893Y-77005780D01*
X158656483Y-77002757D01*
X158597534Y-76876339D01*
X158470826Y-76695380D01*
X158314620Y-76539174D01*
X158133662Y-76412466D01*
X158004811Y-76352382D01*
X157952372Y-76306210D01*
X157933220Y-76239016D01*
X157953436Y-76172135D01*
X158004811Y-76127618D01*
X158010027Y-76125185D01*
X158133662Y-76067534D01*
X158314620Y-75940826D01*
X158470826Y-75784620D01*
X158597534Y-75603662D01*
X158657617Y-75474811D01*
X158703790Y-75422372D01*
X158770984Y-75403220D01*
X158837865Y-75423436D01*
G37*
%TD.AperFunction*%
%TA.AperFunction,Conductor*%
G36*
X159573155Y-72643201D02*
G01*
X159652131Y-72766090D01*
X159762530Y-72861752D01*
X159895408Y-72922435D01*
X159900400Y-72923152D01*
X159341812Y-73481740D01*
X159406592Y-73527100D01*
X159535780Y-73587341D01*
X159588220Y-73633513D01*
X159607372Y-73700706D01*
X159587157Y-73767587D01*
X159535782Y-73812105D01*
X159406336Y-73872467D01*
X159225379Y-73999174D01*
X159069174Y-74155379D01*
X158942466Y-74336338D01*
X158882382Y-74465189D01*
X158836209Y-74517628D01*
X158769016Y-74536780D01*
X158702135Y-74516564D01*
X158657618Y-74465189D01*
X158640744Y-74429004D01*
X158597534Y-74336339D01*
X158470826Y-74155380D01*
X158314620Y-73999174D01*
X158133662Y-73872466D01*
X158004811Y-73812382D01*
X157952372Y-73766210D01*
X157933220Y-73699016D01*
X157953436Y-73632135D01*
X158004811Y-73587618D01*
X158010027Y-73585185D01*
X158133662Y-73527534D01*
X158314620Y-73400826D01*
X158470826Y-73244620D01*
X158597534Y-73063662D01*
X158657894Y-72934218D01*
X158704066Y-72881779D01*
X158771259Y-72862627D01*
X158838141Y-72882842D01*
X158882658Y-72934219D01*
X158942898Y-73063406D01*
X158988258Y-73128187D01*
X159550477Y-72565968D01*
X159573155Y-72643201D01*
G37*
%TD.AperFunction*%
%TA.AperFunction,Conductor*%
G36*
X158837865Y-70343436D02*
G01*
X158882382Y-70394811D01*
X158942466Y-70523662D01*
X159069174Y-70704620D01*
X159225380Y-70860826D01*
X159406338Y-70987534D01*
X159476173Y-71020098D01*
X159535780Y-71047894D01*
X159588219Y-71094066D01*
X159607371Y-71161260D01*
X159587155Y-71228141D01*
X159535780Y-71272658D01*
X159406589Y-71332900D01*
X159341812Y-71378258D01*
X159341811Y-71378258D01*
X159900400Y-71936847D01*
X159895408Y-71937565D01*
X159762530Y-71998248D01*
X159652131Y-72093910D01*
X159573155Y-72216799D01*
X159550477Y-72294030D01*
X158988258Y-71731811D01*
X158988258Y-71731812D01*
X158942900Y-71796590D01*
X158882657Y-71925781D01*
X158836484Y-71978220D01*
X158769291Y-71997372D01*
X158702409Y-71977156D01*
X158657893Y-71925780D01*
X158656130Y-71922000D01*
X158597534Y-71796339D01*
X158470826Y-71615380D01*
X158314620Y-71459174D01*
X158133662Y-71332466D01*
X158004811Y-71272382D01*
X157952372Y-71226210D01*
X157933220Y-71159016D01*
X157953436Y-71092135D01*
X158004811Y-71047618D01*
X158010027Y-71045185D01*
X158133662Y-70987534D01*
X158314620Y-70860826D01*
X158470826Y-70704620D01*
X158597534Y-70523662D01*
X158657617Y-70394811D01*
X158703790Y-70342372D01*
X158770984Y-70323220D01*
X158837865Y-70343436D01*
G37*
%TD.AperFunction*%
%TA.AperFunction,Conductor*%
G36*
X158551740Y-68048186D02*
G01*
X158597098Y-67983411D01*
X158657340Y-67854220D01*
X158703512Y-67801780D01*
X158770705Y-67782627D01*
X158837587Y-67802842D01*
X158882105Y-67854218D01*
X158886430Y-67863492D01*
X158942466Y-67983662D01*
X159069174Y-68164620D01*
X159225380Y-68320826D01*
X159406338Y-68447534D01*
X159525748Y-68503215D01*
X159535189Y-68507618D01*
X159587628Y-68553790D01*
X159606780Y-68620984D01*
X159586564Y-68687865D01*
X159535189Y-68732382D01*
X159406338Y-68792466D01*
X159225379Y-68919174D01*
X159069174Y-69075379D01*
X158942466Y-69256338D01*
X158882382Y-69385189D01*
X158836209Y-69437628D01*
X158769016Y-69456780D01*
X158702135Y-69436564D01*
X158657618Y-69385189D01*
X158624542Y-69314258D01*
X158597534Y-69256339D01*
X158470826Y-69075380D01*
X158314620Y-68919174D01*
X158133662Y-68792466D01*
X158004218Y-68732105D01*
X157951779Y-68685932D01*
X157932627Y-68618739D01*
X157952843Y-68551858D01*
X158004220Y-68507340D01*
X158133411Y-68447098D01*
X158198187Y-68401740D01*
X157639600Y-67843152D01*
X157644592Y-67842435D01*
X157777470Y-67781752D01*
X157887869Y-67686090D01*
X157966845Y-67563201D01*
X157989522Y-67485969D01*
X158551740Y-68048186D01*
G37*
%TD.AperFunction*%
%TA.AperFunction,Conductor*%
G36*
X158837865Y-65263436D02*
G01*
X158882382Y-65314811D01*
X158942466Y-65443662D01*
X159069174Y-65624620D01*
X159225380Y-65780826D01*
X159406338Y-65907534D01*
X159525748Y-65963215D01*
X159535189Y-65967618D01*
X159587628Y-66013790D01*
X159606780Y-66080984D01*
X159586564Y-66147865D01*
X159535189Y-66192382D01*
X159406338Y-66252466D01*
X159225379Y-66379174D01*
X159069174Y-66535379D01*
X158942467Y-66716336D01*
X158882105Y-66845782D01*
X158835932Y-66898221D01*
X158768738Y-66917372D01*
X158701857Y-66897156D01*
X158657341Y-66845780D01*
X158597099Y-66716590D01*
X158551740Y-66651811D01*
X157989521Y-67214029D01*
X157966845Y-67136799D01*
X157887869Y-67013910D01*
X157777470Y-66918248D01*
X157644592Y-66857565D01*
X157639599Y-66856847D01*
X158198187Y-66298258D01*
X158133406Y-66252898D01*
X158004219Y-66192658D01*
X157951779Y-66146486D01*
X157932627Y-66079293D01*
X157952843Y-66012411D01*
X158004219Y-65967894D01*
X158004811Y-65967618D01*
X158133662Y-65907534D01*
X158314620Y-65780826D01*
X158470826Y-65624620D01*
X158597534Y-65443662D01*
X158657617Y-65314811D01*
X158703790Y-65262372D01*
X158770984Y-65243220D01*
X158837865Y-65263436D01*
G37*
%TD.AperFunction*%
%TA.AperFunction,Conductor*%
G36*
X159573155Y-59943201D02*
G01*
X159652131Y-60066090D01*
X159762530Y-60161752D01*
X159895408Y-60222435D01*
X159900400Y-60223152D01*
X159341812Y-60781740D01*
X159406592Y-60827100D01*
X159535780Y-60887341D01*
X159588220Y-60933513D01*
X159607372Y-61000706D01*
X159587157Y-61067587D01*
X159535782Y-61112105D01*
X159406336Y-61172467D01*
X159225379Y-61299174D01*
X159069174Y-61455379D01*
X158942466Y-61636338D01*
X158882382Y-61765189D01*
X158836209Y-61817628D01*
X158769016Y-61836780D01*
X158702135Y-61816564D01*
X158657618Y-61765189D01*
X158610630Y-61664424D01*
X158597534Y-61636339D01*
X158470826Y-61455380D01*
X158314620Y-61299174D01*
X158133662Y-61172466D01*
X158004811Y-61112382D01*
X157952372Y-61066210D01*
X157933220Y-60999016D01*
X157953436Y-60932135D01*
X158004811Y-60887618D01*
X158010027Y-60885185D01*
X158133662Y-60827534D01*
X158314620Y-60700826D01*
X158470826Y-60544620D01*
X158597534Y-60363662D01*
X158657894Y-60234218D01*
X158704066Y-60181779D01*
X158771259Y-60162627D01*
X158838141Y-60182842D01*
X158882658Y-60234219D01*
X158942898Y-60363406D01*
X158988258Y-60428187D01*
X159550477Y-59865968D01*
X159573155Y-59943201D01*
G37*
%TD.AperFunction*%
%TA.AperFunction,Conductor*%
G36*
X158837865Y-57643436D02*
G01*
X158882382Y-57694811D01*
X158908117Y-57750000D01*
X158942466Y-57823662D01*
X159069174Y-58004620D01*
X159225380Y-58160826D01*
X159406338Y-58287534D01*
X159473279Y-58318749D01*
X159535780Y-58347894D01*
X159588219Y-58394066D01*
X159607371Y-58461260D01*
X159587155Y-58528141D01*
X159535780Y-58572658D01*
X159406589Y-58632900D01*
X159341812Y-58678258D01*
X159341811Y-58678258D01*
X159900400Y-59236847D01*
X159895408Y-59237565D01*
X159762530Y-59298248D01*
X159652131Y-59393910D01*
X159573155Y-59516799D01*
X159550477Y-59594030D01*
X158988258Y-59031811D01*
X158988258Y-59031812D01*
X158942900Y-59096590D01*
X158882657Y-59225781D01*
X158836484Y-59278220D01*
X158769291Y-59297372D01*
X158702409Y-59277156D01*
X158657893Y-59225780D01*
X158656130Y-59222000D01*
X158597534Y-59096339D01*
X158470826Y-58915380D01*
X158314620Y-58759174D01*
X158133662Y-58632466D01*
X158004811Y-58572382D01*
X157952372Y-58526210D01*
X157933220Y-58459016D01*
X157953436Y-58392135D01*
X158004811Y-58347618D01*
X158010027Y-58345185D01*
X158133662Y-58287534D01*
X158314620Y-58160826D01*
X158470826Y-58004620D01*
X158597534Y-57823662D01*
X158657617Y-57694811D01*
X158703790Y-57642372D01*
X158770984Y-57623220D01*
X158837865Y-57643436D01*
G37*
%TD.AperFunction*%
%TA.AperFunction,Conductor*%
G36*
X159573155Y-52323201D02*
G01*
X159652131Y-52446090D01*
X159762530Y-52541752D01*
X159895408Y-52602435D01*
X159900400Y-52603152D01*
X159341812Y-53161740D01*
X159406592Y-53207100D01*
X159535780Y-53267341D01*
X159588220Y-53313513D01*
X159607372Y-53380706D01*
X159587157Y-53447587D01*
X159535782Y-53492105D01*
X159406336Y-53552467D01*
X159225379Y-53679174D01*
X159069174Y-53835379D01*
X158942466Y-54016338D01*
X158882382Y-54145189D01*
X158836209Y-54197628D01*
X158769016Y-54216780D01*
X158702135Y-54196564D01*
X158657618Y-54145189D01*
X158600406Y-54022499D01*
X158597534Y-54016339D01*
X158470826Y-53835380D01*
X158314620Y-53679174D01*
X158133662Y-53552466D01*
X158004811Y-53492382D01*
X157952372Y-53446210D01*
X157933220Y-53379016D01*
X157953436Y-53312135D01*
X158004811Y-53267618D01*
X158011300Y-53264592D01*
X158133662Y-53207534D01*
X158314620Y-53080826D01*
X158470826Y-52924620D01*
X158597534Y-52743662D01*
X158657894Y-52614218D01*
X158704066Y-52561779D01*
X158771259Y-52542627D01*
X158838141Y-52562842D01*
X158882658Y-52614219D01*
X158942898Y-52743406D01*
X158988258Y-52808187D01*
X159550477Y-52245968D01*
X159573155Y-52323201D01*
G37*
%TD.AperFunction*%
%TA.AperFunction,Conductor*%
G36*
X157033155Y-47243201D02*
G01*
X157112131Y-47366090D01*
X157222530Y-47461752D01*
X157293172Y-47494013D01*
X157284369Y-47494290D01*
X157265129Y-47499880D01*
X157246081Y-47503825D01*
X157226209Y-47506335D01*
X157185599Y-47522413D01*
X157174554Y-47526194D01*
X157132610Y-47538381D01*
X157115365Y-47548579D01*
X157097904Y-47557133D01*
X157079267Y-47564512D01*
X157043931Y-47590185D01*
X157034174Y-47596595D01*
X156996580Y-47618829D01*
X156982413Y-47632996D01*
X156967624Y-47645626D01*
X156951413Y-47657404D01*
X156923572Y-47691058D01*
X156915711Y-47699697D01*
X156445181Y-48170227D01*
X156383858Y-48203712D01*
X156314166Y-48198728D01*
X156258233Y-48156856D01*
X156233816Y-48091392D01*
X156233500Y-48082546D01*
X156233500Y-48063483D01*
X156235027Y-48044084D01*
X156238160Y-48024304D01*
X156234050Y-47980824D01*
X156233500Y-47969155D01*
X156233500Y-47814758D01*
X156253185Y-47747719D01*
X156305989Y-47701964D01*
X156375147Y-47692020D01*
X156438703Y-47721045D01*
X156444877Y-47727891D01*
X156448258Y-47728187D01*
X157010477Y-47165967D01*
X157033155Y-47243201D01*
G37*
%TD.AperFunction*%
%TD*%
M02*
