%TF.GenerationSoftware,KiCad,Pcbnew,7.0.2*%
%TF.CreationDate,2024-02-14T23:55:05+01:00*%
%TF.ProjectId,CDFR,43444652-2e6b-4696-9361-645f70636258,rev?*%
%TF.SameCoordinates,Original*%
%TF.FileFunction,Soldermask,Top*%
%TF.FilePolarity,Negative*%
%FSLAX46Y46*%
G04 Gerber Fmt 4.6, Leading zero omitted, Abs format (unit mm)*
G04 Created by KiCad (PCBNEW 7.0.2) date 2024-02-14 23:55:05*
%MOMM*%
%LPD*%
G01*
G04 APERTURE LIST*
G04 Aperture macros list*
%AMRoundRect*
0 Rectangle with rounded corners*
0 $1 Rounding radius*
0 $2 $3 $4 $5 $6 $7 $8 $9 X,Y pos of 4 corners*
0 Add a 4 corners polygon primitive as box body*
4,1,4,$2,$3,$4,$5,$6,$7,$8,$9,$2,$3,0*
0 Add four circle primitives for the rounded corners*
1,1,$1+$1,$2,$3*
1,1,$1+$1,$4,$5*
1,1,$1+$1,$6,$7*
1,1,$1+$1,$8,$9*
0 Add four rect primitives between the rounded corners*
20,1,$1+$1,$2,$3,$4,$5,0*
20,1,$1+$1,$4,$5,$6,$7,0*
20,1,$1+$1,$6,$7,$8,$9,0*
20,1,$1+$1,$8,$9,$2,$3,0*%
G04 Aperture macros list end*
%ADD10RoundRect,0.250000X0.350000X-0.850000X0.350000X0.850000X-0.350000X0.850000X-0.350000X-0.850000X0*%
%ADD11RoundRect,0.249997X2.650003X-2.950003X2.650003X2.950003X-2.650003X2.950003X-2.650003X-2.950003X0*%
%ADD12RoundRect,0.250000X0.450000X-0.350000X0.450000X0.350000X-0.450000X0.350000X-0.450000X-0.350000X0*%
%ADD13RoundRect,0.250000X0.600000X0.725000X-0.600000X0.725000X-0.600000X-0.725000X0.600000X-0.725000X0*%
%ADD14O,1.700000X1.950000*%
%ADD15RoundRect,0.250000X-0.725000X0.600000X-0.725000X-0.600000X0.725000X-0.600000X0.725000X0.600000X0*%
%ADD16O,1.950000X1.700000*%
%ADD17RoundRect,0.250000X0.725000X-0.600000X0.725000X0.600000X-0.725000X0.600000X-0.725000X-0.600000X0*%
%ADD18RoundRect,0.250000X-0.262500X-0.450000X0.262500X-0.450000X0.262500X0.450000X-0.262500X0.450000X0*%
%ADD19R,1.700000X1.700000*%
%ADD20O,1.700000X1.700000*%
%ADD21RoundRect,0.102000X-0.762000X0.762000X-0.762000X-0.762000X0.762000X-0.762000X0.762000X0.762000X0*%
%ADD22C,1.728000*%
%ADD23C,6.404000*%
%ADD24R,2.540000X2.540000*%
%ADD25C,2.540000*%
%ADD26RoundRect,0.225000X-0.375000X0.225000X-0.375000X-0.225000X0.375000X-0.225000X0.375000X0.225000X0*%
%ADD27R,2.550000X2.550000*%
%ADD28C,2.550000*%
G04 APERTURE END LIST*
D10*
%TO.C,Q1*%
X142470000Y-40290000D03*
D11*
X144750000Y-33990000D03*
D10*
X147030000Y-40290000D03*
%TD*%
D12*
%TO.C,R1*%
X153000000Y-38750000D03*
X153000000Y-36750000D03*
%TD*%
D13*
%TO.C,J5*%
X123000000Y-33025000D03*
D14*
X120500000Y-33025000D03*
X118000000Y-33025000D03*
%TD*%
D15*
%TO.C,J2*%
X110550000Y-52500000D03*
D16*
X110550000Y-55000000D03*
X110550000Y-57500000D03*
%TD*%
D17*
%TO.C,J8*%
X150975000Y-57750000D03*
D16*
X150975000Y-55250000D03*
X150975000Y-52750000D03*
X150975000Y-50250000D03*
X150975000Y-47750000D03*
%TD*%
D12*
%TO.C,R2*%
X155250000Y-38750000D03*
X155250000Y-36750000D03*
%TD*%
D18*
%TO.C,R3*%
X152087500Y-62250000D03*
X153912500Y-62250000D03*
%TD*%
D19*
%TO.C,JP1*%
X146000000Y-50960000D03*
D20*
X146000000Y-53500000D03*
X146000000Y-56040000D03*
%TD*%
D15*
%TO.C,J4*%
X110525000Y-75500000D03*
D16*
X110525000Y-78000000D03*
X110525000Y-80500000D03*
%TD*%
D15*
%TO.C,J1*%
X110550000Y-41000000D03*
D16*
X110550000Y-43500000D03*
X110550000Y-46000000D03*
%TD*%
D21*
%TO.C,U1*%
X157500000Y-36870000D03*
D22*
X160040000Y-36870000D03*
X157500000Y-39410000D03*
X160040000Y-39410000D03*
X157500000Y-41950000D03*
X160040000Y-41950000D03*
X157500000Y-44490000D03*
X160040000Y-44490000D03*
X157500000Y-47030000D03*
X160040000Y-47030000D03*
X157500000Y-49570000D03*
X160040000Y-49570000D03*
X157500000Y-52110000D03*
X160040000Y-52110000D03*
X157500000Y-54650000D03*
X160040000Y-54650000D03*
X157500000Y-57190000D03*
X160040000Y-57190000D03*
X157500000Y-59730000D03*
X160040000Y-59730000D03*
X157500000Y-62270000D03*
X160040000Y-62270000D03*
X157500000Y-64810000D03*
X160040000Y-64810000D03*
X157500000Y-67350000D03*
X160040000Y-67350000D03*
X157500000Y-69890000D03*
X160040000Y-69890000D03*
X157500000Y-72430000D03*
X160040000Y-72430000D03*
X157500000Y-74970000D03*
X160040000Y-74970000D03*
X157500000Y-77510000D03*
X160040000Y-77510000D03*
X157500000Y-80050000D03*
X160040000Y-80050000D03*
X157500000Y-82590000D03*
X160040000Y-82590000D03*
X157500000Y-85130000D03*
X160040000Y-85130000D03*
D23*
X158770000Y-32000000D03*
X158770000Y-90000000D03*
X109770000Y-90000000D03*
X109770000Y-32000000D03*
%TD*%
D15*
%TO.C,J3*%
X110525000Y-64000000D03*
D16*
X110525000Y-66500000D03*
X110525000Y-69000000D03*
%TD*%
D24*
%TO.C,U3*%
X136890000Y-46930000D03*
D25*
X119110000Y-46930000D03*
X119110000Y-87570000D03*
X136890000Y-87570000D03*
%TD*%
D19*
%TO.C,J6*%
X147960000Y-89000000D03*
D20*
X150500000Y-89000000D03*
%TD*%
D26*
%TO.C,D1*%
X144250000Y-43600000D03*
X144250000Y-46900000D03*
%TD*%
D27*
%TO.C,J7*%
X130420000Y-39500000D03*
D28*
X135500000Y-39500000D03*
%TD*%
D12*
%TO.C,R4*%
X141750000Y-46250000D03*
X141750000Y-44250000D03*
%TD*%
M02*
